  0
SECTION
  2
HEADER
  9
$ACADVER
  1
AC1009
  9
$FILLMODE
 70
1
  9
$EXTMIN
 10
-0.0005
 20
-0.0005
 30
0.0000
  9
$EXTMAX
 10
108.5005
 20
83.9005
 30
0.0000
  0
ENDSEC
  0
SECTION
  2
TABLES
  0
TABLE
  2
LTYPE
 70
1
  0
LTYPE
  2
CONTINUOUS
 70
64
  3
Solid line
 72
65
 73
0
 40
0
  0
ENDTAB
  0
TABLE
  2
LAYER
 70
255
  0
LAYER
  2
1
 70
64
 62
12
  6
CONTINUOUS
  0
LAYER
  2
16
 70
64
 62
132
  6
CONTINUOUS
  0
LAYER
  2
17
 70
64
 62
110
  6
CONTINUOUS
  0
LAYER
  2
18
 70
64
 62
110
  6
CONTINUOUS
  0
LAYER
  2
19
 70
64
 62
53
  6
CONTINUOUS
  0
LAYER
  2
20
 70
64
 62
31
  6
CONTINUOUS
  0
LAYER
  2
21
 70
64
 62
253
  6
CONTINUOUS
  0
LAYER
  2
22
 70
64
 62
253
  6
CONTINUOUS
  0
LAYER
  2
23
 70
64
 62
53
  6
CONTINUOUS
  0
LAYER
  2
24
 70
64
 62
53
  6
CONTINUOUS
  0
LAYER
  2
25
 70
64
 62
253
  6
CONTINUOUS
  0
LAYER
  2
26
 70
64
 62
253
  6
CONTINUOUS
  0
LAYER
  2
27
 70
64
 62
253
  6
CONTINUOUS
  0
LAYER
  2
28
 70
64
 62
253
  6
CONTINUOUS
  0
LAYER
  2
39
 70
64
 62
12
  6
CONTINUOUS
  0
LAYER
  2
40
 70
64
 62
132
  6
CONTINUOUS
  0
LAYER
  2
41
 70
64
 62
12
  6
CONTINUOUS
  0
LAYER
  2
42
 70
64
 62
132
  6
CONTINUOUS
  0
LAYER
  2
43
 70
64
 62
110
  6
CONTINUOUS
  0
LAYER
  2
48
 70
64
 62
253
  6
CONTINUOUS
  0
LAYER
  2
49
 70
64
 62
253
  6
CONTINUOUS
  0
LAYER
  2
50
 70
64
 62
1
  6
CONTINUOUS
  0
LAYER
  2
51
 70
64
 62
253
  6
CONTINUOUS
  0
LAYER
  2
52
 70
64
 62
253
  6
CONTINUOUS
  0
LAYER
  2
108
 70
64
 62
253
  6
CONTINUOUS
  0
LAYER
  2
109
 70
64
 62
253
  6
CONTINUOUS
  0
LAYER
  2
110
 70
64
 62
253
  6
CONTINUOUS
  0
LAYER
  2
111
 70
64
 62
253
  6
CONTINUOUS
  0
LAYER
  2
112
 70
64
 62
253
  6
CONTINUOUS
  0
LAYER
  2
113
 70
64
 62
12
  6
CONTINUOUS
  0
LAYER
  2
118
 70
64
 62
12
  6
CONTINUOUS
  0
LAYER
  2
120
 70
64
 62
253
  6
CONTINUOUS
  0
LAYER
  2
123
 70
64
 62
253
  6
CONTINUOUS
  0
LAYER
  2
124
 70
64
 62
253
  6
CONTINUOUS
  0
LAYER
  2
125
 70
64
 62
253
  6
CONTINUOUS
  0
LAYER
  2
126
 70
64
 62
253
  6
CONTINUOUS
  0
LAYER
  2
127
 70
64
 62
253
  6
CONTINUOUS
  0
LAYER
  2
128
 70
64
 62
253
  6
CONTINUOUS
  0
LAYER
  2
129
 70
64
 62
253
  6
CONTINUOUS
  0
LAYER
  2
130
 70
64
 62
253
  6
CONTINUOUS
  0
LAYER
  2
131
 70
64
 62
253
  6
CONTINUOUS
  0
LAYER
  2
132
 70
64
 62
253
  6
CONTINUOUS
  0
LAYER
  2
150
 70
64
 62
253
  6
CONTINUOUS
  0
LAYER
  2
152
 70
64
 62
253
  6
CONTINUOUS
  0
LAYER
  2
156
 70
64
 62
190
  6
CONTINUOUS
  0
LAYER
  2
157
 70
64
 62
155
  6
CONTINUOUS
  0
LAYER
  2
199
 70
64
 62
253
  6
CONTINUOUS
  0
LAYER
  2
225
 70
64
 62
253
  6
CONTINUOUS
  0
LAYER
  2
226
 70
64
 62
253
  6
CONTINUOUS
  0
LAYER
  2
227
 70
64
 62
253
  6
CONTINUOUS
  0
LAYER
  2
228
 70
64
 62
253
  6
CONTINUOUS
  0
LAYER
  2
229
 70
64
 62
253
  6
CONTINUOUS
  0
LAYER
  2
230
 70
64
 62
253
  6
CONTINUOUS
  0
LAYER
  2
231
 70
64
 62
40
  6
CONTINUOUS
  0
LAYER
  2
232
 70
64
 62
40
  6
CONTINUOUS
  0
LAYER
  2
233
 70
64
 62
40
  6
CONTINUOUS
  0
LAYER
  2
248
 70
64
 62
253
  6
CONTINUOUS
  0
LAYER
  2
249
 70
64
 62
253
  6
CONTINUOUS
  0
LAYER
  2
255
 70
64
 62
253
  6
CONTINUOUS
  0
ENDTAB
  0
ENDSEC
  0
SECTION
  2
BLOCKS
  0
BLOCK
  8
0
  2
RECT
 70
64
 10
0.0000
 20
0.0000
 30
0.0000
  3
RECT
  0
SOLID
  8
0
 10
-0.5000
 20
-0.5000
 30
0.0000
 11
0.5000
 21
-0.5000
 31
0.0000
 12
-0.5000
 22
0.5000
 32
0.0000
 13
0.5000
 23
0.5000
 33
0.0000
  0
ENDBLK
  8
0
  0
BLOCK
  8
0
  2
PIE
 70
64
 10
0.0000
 20
0.0000
 30
0.0000
  3
PIE
  0
POLYLINE
  8
0
 66
1
 10
0.0000
 20
0.0000
 30
0.0000
 40
0.5000
 41
0.5000
 70
0
  0
VERTEX
  8
0
 10
0.0000
 20
-0.2500
 30
0.0000
 42
1.0000
  0
VERTEX
  8
0
 10
0.0000
 20
0.2500
 30
0.0000
 42
1.0000
  0
VERTEX
  8
0
 10
0.0000
 20
-0.2500
 30
0.0000
  0
SEQEND
  8
0
  0
ENDBLK
  8
0
  0
BLOCK
  8
0
  2
OCTAGONP
 70
64
 10
0.0000
 20
0.0000
 30
0.0000
  3
OCTAGONP
  0
POLYLINE
  8
0
 66
1
 10
0.0000
 20
0.0000
 30
0.0000
 40
0.5000
 41
0.5000
 70
0
  0
VERTEX
  8
0
 10
-0.2500
 20
-0.1036
 30
0.0000
  0
VERTEX
  8
0
 10
-0.2500
 20
0.1036
 30
0.0000
  0
VERTEX
  8
0
 10
-0.1036
 20
0.2500
 30
0.0000
  0
VERTEX
  8
0
 10
0.1036
 20
0.2500
 30
0.0000
  0
VERTEX
  8
0
 10
0.2500
 20
0.1036
 30
0.0000
  0
VERTEX
  8
0
 10
0.2500
 20
-0.1036
 30
0.0000
  0
VERTEX
  8
0
 10
0.1036
 20
-0.2500
 30
0.0000
  0
VERTEX
  8
0
 10
-0.1036
 20
-0.2500
 30
0.0000
  0
VERTEX
  8
0
 10
-0.2500
 20
-0.1036
 30
0.0000
  0
VERTEX
  8
0
 10
-0.2500
 20
0.1036
 30
0.0000
  0
SEQEND
  8
0
  0
ENDBLK
  8
0
  0
BLOCK
  8
0
  2
SQUAREP
 70
64
 10
0.0000
 20
0.0000
 30
0.0000
  3
SQUAREP
  0
SOLID
  8
0
 10
-0.5000
 20
-0.5000
 30
0.0000
 11
0.5000
 21
-0.5000
 31
0.0000
 12
-0.5000
 22
0.5000
 32
0.0000
 13
0.5000
 23
0.5000
 33
0.0000
  0
ENDBLK
  8
0
  0
BLOCK
  8
0
  2
ROUNDP
 70
64
 10
0.0000
 20
0.0000
 30
0.0000
  3
ROUNDP
  0
POLYLINE
  8
0
 66
1
 10
0.0000
 20
0.0000
 30
0.0000
 40
0.5000
 41
0.5000
 70
0
  0
VERTEX
  8
0
 10
0.0000
 20
-0.2500
 30
0.0000
 42
1.0000
  0
VERTEX
  8
0
 10
0.0000
 20
0.2500
 30
0.0000
 42
1.0000
  0
VERTEX
  8
0
 10
0.0000
 20
-0.2500
 30
0.0000
  0
SEQEND
  8
0
  0
ENDBLK
  8
0
  0
BLOCK
  8
0
  2
ANNULUSP
 70
64
 10
0.0000
 20
0.0000
 30
0.0000
  3
ANNULUSP
  0
POLYLINE
  8
0
 66
1
 10
0.0000
 20
0.0000
 30
0.0000
 40
0.5000
 41
0.5000
 70
0
  0
VERTEX
  8
0
 10
0.0000
 20
-0.2500
 30
0.0000
 42
1.0000
  0
VERTEX
  8
0
 10
0.0000
 20
0.2500
 30
0.0000
 42
1.0000
  0
VERTEX
  8
0
 10
0.0000
 20
-0.2500
 30
0.0000
  0
SEQEND
  8
0
  0
ENDBLK
  8
0
  0
BLOCK
  8
0
  2
THERMALP
 70
64
 10
0.0000
 20
0.0000
 30
0.0000
  3
THERMALP
  0
POLYLINE
  8
0
 66
1
 10
0.0000
 20
0.0000
 30
0.0000
 40
0.1000
 41
0.1000
 70
0
  0
VERTEX
  8
0
 10
-0.2379
 20
0.4500
 30
0.0000
  0
VERTEX
  8
0
 10
0.2379
 20
0.4500
 30
0.0000
  0
SEQEND
  8
0
  0
POLYLINE
  8
0
 66
1
 10
0.0000
 20
0.0000
 30
0.0000
 40
0.0500
 41
0.0500
 70
0
  0
VERTEX
  8
0
 10
0.2379
 20
0.4250
 30
0.0000
 42
1.0000
  0
VERTEX
  8
0
 10
0.2379
 20
0.4750
 30
0.0000
  0
SEQEND
  8
0
  0
POLYLINE
  8
0
 66
1
 10
0.0000
 20
0.0000
 30
0.0000
 40
0.0500
 41
0.0500
 70
0
  0
VERTEX
  8
0
 10
-0.2379
 20
0.4750
 30
0.0000
 42
1.0000
  0
VERTEX
  8
0
 10
-0.2379
 20
0.4250
 30
0.0000
  0
SEQEND
  8
0
  0
POLYLINE
  8
0
 66
1
 10
0.0000
 20
0.0000
 30
0.0000
 40
0.1000
 41
0.1000
 70
0
  0
VERTEX
  8
0
 10
0.4500
 20
0.2379
 30
0.0000
  0
VERTEX
  8
0
 10
0.4500
 20
-0.2379
 30
0.0000
  0
SEQEND
  8
0
  0
POLYLINE
  8
0
 66
1
 10
0.0000
 20
0.0000
 30
0.0000
 40
0.0500
 41
0.0500
 70
0
  0
VERTEX
  8
0
 10
0.4250
 20
-0.2379
 30
0.0000
 42
1.0000
  0
VERTEX
  8
0
 10
0.4750
 20
-0.2379
 30
0.0000
  0
SEQEND
  8
0
  0
POLYLINE
  8
0
 66
1
 10
0.0000
 20
0.0000
 30
0.0000
 40
0.0500
 41
0.0500
 70
0
  0
VERTEX
  8
0
 10
0.4750
 20
0.2379
 30
0.0000
 42
1.0000
  0
VERTEX
  8
0
 10
0.4250
 20
0.2379
 30
0.0000
  0
SEQEND
  8
0
  0
POLYLINE
  8
0
 66
1
 10
0.0000
 20
0.0000
 30
0.0000
 40
0.1000
 41
0.1000
 70
0
  0
VERTEX
  8
0
 10
0.2379
 20
-0.4500
 30
0.0000
  0
VERTEX
  8
0
 10
-0.2379
 20
-0.4500
 30
0.0000
  0
SEQEND
  8
0
  0
POLYLINE
  8
0
 66
1
 10
0.0000
 20
0.0000
 30
0.0000
 40
0.0500
 41
0.0500
 70
0
  0
VERTEX
  8
0
 10
-0.2379
 20
-0.4250
 30
0.0000
 42
1.0000
  0
VERTEX
  8
0
 10
-0.2379
 20
-0.4750
 30
0.0000
  0
SEQEND
  8
0
  0
POLYLINE
  8
0
 66
1
 10
0.0000
 20
0.0000
 30
0.0000
 40
0.0500
 41
0.0500
 70
0
  0
VERTEX
  8
0
 10
0.2379
 20
-0.4750
 30
0.0000
 42
1.0000
  0
VERTEX
  8
0
 10
0.2379
 20
-0.4250
 30
0.0000
  0
SEQEND
  8
0
  0
POLYLINE
  8
0
 66
1
 10
0.0000
 20
0.0000
 30
0.0000
 40
0.1000
 41
0.1000
 70
0
  0
VERTEX
  8
0
 10
-0.4500
 20
-0.2379
 30
0.0000
  0
VERTEX
  8
0
 10
-0.4500
 20
0.2379
 30
0.0000
  0
SEQEND
  8
0
  0
POLYLINE
  8
0
 66
1
 10
0.0000
 20
0.0000
 30
0.0000
 40
0.0500
 41
0.0500
 70
0
  0
VERTEX
  8
0
 10
-0.4250
 20
0.2379
 30
0.0000
 42
1.0000
  0
VERTEX
  8
0
 10
-0.4750
 20
0.2379
 30
0.0000
  0
SEQEND
  8
0
  0
POLYLINE
  8
0
 66
1
 10
0.0000
 20
0.0000
 30
0.0000
 40
0.0500
 41
0.0500
 70
0
  0
VERTEX
  8
0
 10
-0.4750
 20
-0.2379
 30
0.0000
 42
1.0000
  0
VERTEX
  8
0
 10
-0.4250
 20
-0.2379
 30
0.0000
  0
SEQEND
  8
0
  0
ENDBLK
  8
0
  0
BLOCK
  8
0
  2
OCTAGONV
 70
64
 10
0.0000
 20
0.0000
 30
0.0000
  3
OCTAGONV
  0
POLYLINE
  8
0
 66
1
 10
0.0000
 20
0.0000
 30
0.0000
 40
0.5000
 41
0.5000
 70
0
  0
VERTEX
  8
0
 10
-0.2500
 20
-0.1036
 30
0.0000
  0
VERTEX
  8
0
 10
-0.2500
 20
0.1036
 30
0.0000
  0
VERTEX
  8
0
 10
-0.1036
 20
0.2500
 30
0.0000
  0
VERTEX
  8
0
 10
0.1036
 20
0.2500
 30
0.0000
  0
VERTEX
  8
0
 10
0.2500
 20
0.1036
 30
0.0000
  0
VERTEX
  8
0
 10
0.2500
 20
-0.1036
 30
0.0000
  0
VERTEX
  8
0
 10
0.1036
 20
-0.2500
 30
0.0000
  0
VERTEX
  8
0
 10
-0.1036
 20
-0.2500
 30
0.0000
  0
VERTEX
  8
0
 10
-0.2500
 20
-0.1036
 30
0.0000
  0
VERTEX
  8
0
 10
-0.2500
 20
0.1036
 30
0.0000
  0
SEQEND
  8
0
  0
ENDBLK
  8
0
  0
BLOCK
  8
0
  2
SQUAREV
 70
64
 10
0.0000
 20
0.0000
 30
0.0000
  3
SQUAREV
  0
SOLID
  8
0
 10
-0.5000
 20
-0.5000
 30
0.0000
 11
0.5000
 21
-0.5000
 31
0.0000
 12
-0.5000
 22
0.5000
 32
0.0000
 13
0.5000
 23
0.5000
 33
0.0000
  0
ENDBLK
  8
0
  0
BLOCK
  8
0
  2
ROUNDV
 70
64
 10
0.0000
 20
0.0000
 30
0.0000
  3
ROUNDV
  0
POLYLINE
  8
0
 66
1
 10
0.0000
 20
0.0000
 30
0.0000
 40
0.5000
 41
0.5000
 70
0
  0
VERTEX
  8
0
 10
0.0000
 20
-0.2500
 30
0.0000
 42
1.0000
  0
VERTEX
  8
0
 10
0.0000
 20
0.2500
 30
0.0000
 42
1.0000
  0
VERTEX
  8
0
 10
0.0000
 20
-0.2500
 30
0.0000
  0
SEQEND
  8
0
  0
ENDBLK
  8
0
  0
BLOCK
  8
0
  2
ANNULUSV
 70
64
 10
0.0000
 20
0.0000
 30
0.0000
  3
ANNULUSV
  0
POLYLINE
  8
0
 66
1
 10
0.0000
 20
0.0000
 30
0.0000
 40
0.5000
 41
0.5000
 70
0
  0
VERTEX
  8
0
 10
0.0000
 20
-0.2500
 30
0.0000
 42
1.0000
  0
VERTEX
  8
0
 10
0.0000
 20
0.2500
 30
0.0000
 42
1.0000
  0
VERTEX
  8
0
 10
0.0000
 20
-0.2500
 30
0.0000
  0
SEQEND
  8
0
  0
ENDBLK
  8
0
  0
BLOCK
  8
0
  2
THERMALV
 70
64
 10
0.0000
 20
0.0000
 30
0.0000
  3
THERMALV
  0
POLYLINE
  8
0
 66
1
 10
0.0000
 20
0.0000
 30
0.0000
 40
0.1000
 41
0.1000
 70
0
  0
VERTEX
  8
0
 10
-0.2379
 20
0.4500
 30
0.0000
  0
VERTEX
  8
0
 10
0.2379
 20
0.4500
 30
0.0000
  0
SEQEND
  8
0
  0
POLYLINE
  8
0
 66
1
 10
0.0000
 20
0.0000
 30
0.0000
 40
0.0500
 41
0.0500
 70
0
  0
VERTEX
  8
0
 10
0.2379
 20
0.4250
 30
0.0000
 42
1.0000
  0
VERTEX
  8
0
 10
0.2379
 20
0.4750
 30
0.0000
  0
SEQEND
  8
0
  0
POLYLINE
  8
0
 66
1
 10
0.0000
 20
0.0000
 30
0.0000
 40
0.0500
 41
0.0500
 70
0
  0
VERTEX
  8
0
 10
-0.2379
 20
0.4750
 30
0.0000
 42
1.0000
  0
VERTEX
  8
0
 10
-0.2379
 20
0.4250
 30
0.0000
  0
SEQEND
  8
0
  0
POLYLINE
  8
0
 66
1
 10
0.0000
 20
0.0000
 30
0.0000
 40
0.1000
 41
0.1000
 70
0
  0
VERTEX
  8
0
 10
0.4500
 20
0.2379
 30
0.0000
  0
VERTEX
  8
0
 10
0.4500
 20
-0.2379
 30
0.0000
  0
SEQEND
  8
0
  0
POLYLINE
  8
0
 66
1
 10
0.0000
 20
0.0000
 30
0.0000
 40
0.0500
 41
0.0500
 70
0
  0
VERTEX
  8
0
 10
0.4250
 20
-0.2379
 30
0.0000
 42
1.0000
  0
VERTEX
  8
0
 10
0.4750
 20
-0.2379
 30
0.0000
  0
SEQEND
  8
0
  0
POLYLINE
  8
0
 66
1
 10
0.0000
 20
0.0000
 30
0.0000
 40
0.0500
 41
0.0500
 70
0
  0
VERTEX
  8
0
 10
0.4750
 20
0.2379
 30
0.0000
 42
1.0000
  0
VERTEX
  8
0
 10
0.4250
 20
0.2379
 30
0.0000
  0
SEQEND
  8
0
  0
POLYLINE
  8
0
 66
1
 10
0.0000
 20
0.0000
 30
0.0000
 40
0.1000
 41
0.1000
 70
0
  0
VERTEX
  8
0
 10
0.2379
 20
-0.4500
 30
0.0000
  0
VERTEX
  8
0
 10
-0.2379
 20
-0.4500
 30
0.0000
  0
SEQEND
  8
0
  0
POLYLINE
  8
0
 66
1
 10
0.0000
 20
0.0000
 30
0.0000
 40
0.0500
 41
0.0500
 70
0
  0
VERTEX
  8
0
 10
-0.2379
 20
-0.4250
 30
0.0000
 42
1.0000
  0
VERTEX
  8
0
 10
-0.2379
 20
-0.4750
 30
0.0000
  0
SEQEND
  8
0
  0
POLYLINE
  8
0
 66
1
 10
0.0000
 20
0.0000
 30
0.0000
 40
0.0500
 41
0.0500
 70
0
  0
VERTEX
  8
0
 10
0.2379
 20
-0.4750
 30
0.0000
 42
1.0000
  0
VERTEX
  8
0
 10
0.2379
 20
-0.4250
 30
0.0000
  0
SEQEND
  8
0
  0
POLYLINE
  8
0
 66
1
 10
0.0000
 20
0.0000
 30
0.0000
 40
0.1000
 41
0.1000
 70
0
  0
VERTEX
  8
0
 10
-0.4500
 20
-0.2379
 30
0.0000
  0
VERTEX
  8
0
 10
-0.4500
 20
0.2379
 30
0.0000
  0
SEQEND
  8
0
  0
POLYLINE
  8
0
 66
1
 10
0.0000
 20
0.0000
 30
0.0000
 40
0.0500
 41
0.0500
 70
0
  0
VERTEX
  8
0
 10
-0.4250
 20
0.2379
 30
0.0000
 42
1.0000
  0
VERTEX
  8
0
 10
-0.4750
 20
0.2379
 30
0.0000
  0
SEQEND
  8
0
  0
POLYLINE
  8
0
 66
1
 10
0.0000
 20
0.0000
 30
0.0000
 40
0.0500
 41
0.0500
 70
0
  0
VERTEX
  8
0
 10
-0.4750
 20
-0.2379
 30
0.0000
 42
1.0000
  0
VERTEX
  8
0
 10
-0.4250
 20
-0.2379
 30
0.0000
  0
SEQEND
  8
0
  0
ENDBLK
  8
0
  0
ENDSEC
  0
SECTION
  2
ENTITIES
  0
POLYLINE
  8
20
 66
1
 10
0.0000
 20
0.0000
 30
0.0000
 40
0.0010
 41
0.0010
 70
0
  0
VERTEX
  8
20
 10
0.0000
 20
3.0000
 30
0.0000
 42
0.4142
  0
VERTEX
  8
20
 10
3.0000
 20
0.0000
 30
0.0000
  0
SEQEND
  8
0
  0
POLYLINE
  8
20
 66
1
 10
0.0000
 20
0.0000
 30
0.0000
 40
0.0005
 41
0.0005
 70
0
  0
VERTEX
  8
20
 10
0.0003
 20
3.0000
 30
0.0000
 42
1.0000
  0
VERTEX
  8
20
 10
-0.0003
 20
3.0000
 30
0.0000
  0
SEQEND
  8
0
  0
POLYLINE
  8
20
 66
1
 10
0.0000
 20
0.0000
 30
0.0000
 40
0.0005
 41
0.0005
 70
0
  0
VERTEX
  8
20
 10
3.0000
 20
-0.0003
 30
0.0000
 42
1.0000
  0
VERTEX
  8
20
 10
3.0000
 20
0.0003
 30
0.0000
  0
SEQEND
  8
0
  0
POLYLINE
  8
20
 66
1
 10
0.0000
 20
0.0000
 30
0.0000
 40
0.0010
 41
0.0010
 70
0
  0
VERTEX
  8
20
 10
3.0000
 20
0.0000
 30
0.0000
  0
VERTEX
  8
20
 10
105.5000
 20
0.0000
 30
0.0000
  0
SEQEND
  8
0
  0
POLYLINE
  8
20
 66
1
 10
0.0000
 20
0.0000
 30
0.0000
 40
0.0005
 41
0.0005
 70
0
  0
VERTEX
  8
20
 10
105.5000
 20
-0.0003
 30
0.0000
 42
1.0000
  0
VERTEX
  8
20
 10
105.5000
 20
0.0003
 30
0.0000
  0
SEQEND
  8
0
  0
POLYLINE
  8
20
 66
1
 10
0.0000
 20
0.0000
 30
0.0000
 40
0.0005
 41
0.0005
 70
0
  0
VERTEX
  8
20
 10
3.0000
 20
0.0003
 30
0.0000
 42
1.0000
  0
VERTEX
  8
20
 10
3.0000
 20
-0.0003
 30
0.0000
  0
SEQEND
  8
0
  0
POLYLINE
  8
20
 66
1
 10
0.0000
 20
0.0000
 30
0.0000
 40
0.0010
 41
0.0010
 70
0
  0
VERTEX
  8
20
 10
105.5000
 20
0.0000
 30
0.0000
 42
0.4142
  0
VERTEX
  8
20
 10
108.5000
 20
3.0000
 30
0.0000
  0
SEQEND
  8
0
  0
POLYLINE
  8
20
 66
1
 10
0.0000
 20
0.0000
 30
0.0000
 40
0.0005
 41
0.0005
 70
0
  0
VERTEX
  8
20
 10
105.5000
 20
0.0003
 30
0.0000
 42
1.0000
  0
VERTEX
  8
20
 10
105.5000
 20
-0.0003
 30
0.0000
  0
SEQEND
  8
0
  0
POLYLINE
  8
20
 66
1
 10
0.0000
 20
0.0000
 30
0.0000
 40
0.0005
 41
0.0005
 70
0
  0
VERTEX
  8
20
 10
108.5002
 20
3.0000
 30
0.0000
 42
1.0000
  0
VERTEX
  8
20
 10
108.4998
 20
3.0000
 30
0.0000
  0
SEQEND
  8
0
  0
POLYLINE
  8
20
 66
1
 10
0.0000
 20
0.0000
 30
0.0000
 40
0.0010
 41
0.0010
 70
0
  0
VERTEX
  8
20
 10
108.5000
 20
3.0000
 30
0.0000
  0
VERTEX
  8
20
 10
108.5000
 20
26.5000
 30
0.0000
  0
SEQEND
  8
0
  0
POLYLINE
  8
20
 66
1
 10
0.0000
 20
0.0000
 30
0.0000
 40
0.0005
 41
0.0005
 70
0
  0
VERTEX
  8
20
 10
108.5002
 20
26.5000
 30
0.0000
 42
1.0000
  0
VERTEX
  8
20
 10
108.4998
 20
26.5000
 30
0.0000
  0
SEQEND
  8
0
  0
POLYLINE
  8
20
 66
1
 10
0.0000
 20
0.0000
 30
0.0000
 40
0.0005
 41
0.0005
 70
0
  0
VERTEX
  8
20
 10
108.4998
 20
3.0000
 30
0.0000
 42
1.0000
  0
VERTEX
  8
20
 10
108.5002
 20
3.0000
 30
0.0000
  0
SEQEND
  8
0
  0
POLYLINE
  8
20
 66
1
 10
0.0000
 20
0.0000
 30
0.0000
 40
0.0010
 41
0.0010
 70
0
  0
VERTEX
  8
20
 10
108.5000
 20
26.5000
 30
0.0000
 42
0.4142
  0
VERTEX
  8
20
 10
105.5000
 20
29.5000
 30
0.0000
  0
SEQEND
  8
0
  0
POLYLINE
  8
20
 66
1
 10
0.0000
 20
0.0000
 30
0.0000
 40
0.0005
 41
0.0005
 70
0
  0
VERTEX
  8
20
 10
108.4998
 20
26.5000
 30
0.0000
 42
1.0000
  0
VERTEX
  8
20
 10
108.5002
 20
26.5000
 30
0.0000
  0
SEQEND
  8
0
  0
POLYLINE
  8
20
 66
1
 10
0.0000
 20
0.0000
 30
0.0000
 40
0.0005
 41
0.0005
 70
0
  0
VERTEX
  8
20
 10
105.5000
 20
29.5003
 30
0.0000
 42
1.0000
  0
VERTEX
  8
20
 10
105.5000
 20
29.4997
 30
0.0000
  0
SEQEND
  8
0
  0
POLYLINE
  8
20
 66
1
 10
0.0000
 20
0.0000
 30
0.0000
 40
0.0010
 41
0.0010
 70
0
  0
VERTEX
  8
20
 10
105.5000
 20
29.5000
 30
0.0000
  0
VERTEX
  8
20
 10
3.0000
 20
29.5000
 30
0.0000
  0
SEQEND
  8
0
  0
POLYLINE
  8
20
 66
1
 10
0.0000
 20
0.0000
 30
0.0000
 40
0.0005
 41
0.0005
 70
0
  0
VERTEX
  8
20
 10
3.0000
 20
29.5003
 30
0.0000
 42
1.0000
  0
VERTEX
  8
20
 10
3.0000
 20
29.4997
 30
0.0000
  0
SEQEND
  8
0
  0
POLYLINE
  8
20
 66
1
 10
0.0000
 20
0.0000
 30
0.0000
 40
0.0005
 41
0.0005
 70
0
  0
VERTEX
  8
20
 10
105.5000
 20
29.4997
 30
0.0000
 42
1.0000
  0
VERTEX
  8
20
 10
105.5000
 20
29.5003
 30
0.0000
  0
SEQEND
  8
0
  0
POLYLINE
  8
20
 66
1
 10
0.0000
 20
0.0000
 30
0.0000
 40
0.0010
 41
0.0010
 70
0
  0
VERTEX
  8
20
 10
3.0000
 20
29.5000
 30
0.0000
 42
0.4142
  0
VERTEX
  8
20
 10
0.0000
 20
26.5000
 30
0.0000
  0
SEQEND
  8
0
  0
POLYLINE
  8
20
 66
1
 10
0.0000
 20
0.0000
 30
0.0000
 40
0.0005
 41
0.0005
 70
0
  0
VERTEX
  8
20
 10
3.0000
 20
29.4997
 30
0.0000
 42
1.0000
  0
VERTEX
  8
20
 10
3.0000
 20
29.5003
 30
0.0000
  0
SEQEND
  8
0
  0
POLYLINE
  8
20
 66
1
 10
0.0000
 20
0.0000
 30
0.0000
 40
0.0005
 41
0.0005
 70
0
  0
VERTEX
  8
20
 10
-0.0003
 20
26.5000
 30
0.0000
 42
1.0000
  0
VERTEX
  8
20
 10
0.0003
 20
26.5000
 30
0.0000
  0
SEQEND
  8
0
  0
POLYLINE
  8
20
 66
1
 10
0.0000
 20
0.0000
 30
0.0000
 40
0.0010
 41
0.0010
 70
0
  0
VERTEX
  8
20
 10
0.0000
 20
26.5000
 30
0.0000
  0
VERTEX
  8
20
 10
0.0000
 20
3.0000
 30
0.0000
  0
SEQEND
  8
0
  0
POLYLINE
  8
20
 66
1
 10
0.0000
 20
0.0000
 30
0.0000
 40
0.0005
 41
0.0005
 70
0
  0
VERTEX
  8
20
 10
-0.0003
 20
3.0000
 30
0.0000
 42
1.0000
  0
VERTEX
  8
20
 10
0.0003
 20
3.0000
 30
0.0000
  0
SEQEND
  8
0
  0
POLYLINE
  8
20
 66
1
 10
0.0000
 20
0.0000
 30
0.0000
 40
0.0005
 41
0.0005
 70
0
  0
VERTEX
  8
20
 10
0.0003
 20
26.5000
 30
0.0000
 42
1.0000
  0
VERTEX
  8
20
 10
-0.0003
 20
26.5000
 30
0.0000
  0
SEQEND
  8
0
  0
POLYLINE
  8
20
 66
1
 10
0.0000
 20
0.0000
 30
0.0000
 40
0.0010
 41
0.0010
 70
0
  0
VERTEX
  8
20
 10
0.0000
 20
80.9000
 30
0.0000
  0
VERTEX
  8
20
 10
0.0000
 20
57.4000
 30
0.0000
  0
SEQEND
  8
0
  0
POLYLINE
  8
20
 66
1
 10
0.0000
 20
0.0000
 30
0.0000
 40
0.0005
 41
0.0005
 70
0
  0
VERTEX
  8
20
 10
-0.0003
 20
57.4000
 30
0.0000
 42
1.0000
  0
VERTEX
  8
20
 10
0.0003
 20
57.4000
 30
0.0000
  0
SEQEND
  8
0
  0
POLYLINE
  8
20
 66
1
 10
0.0000
 20
0.0000
 30
0.0000
 40
0.0005
 41
0.0005
 70
0
  0
VERTEX
  8
20
 10
0.0003
 20
80.9000
 30
0.0000
 42
1.0000
  0
VERTEX
  8
20
 10
-0.0003
 20
80.9000
 30
0.0000
  0
SEQEND
  8
0
  0
POLYLINE
  8
20
 66
1
 10
0.0000
 20
0.0000
 30
0.0000
 40
0.0010
 41
0.0010
 70
0
  0
VERTEX
  8
20
 10
0.0000
 20
57.4000
 30
0.0000
 42
0.4142
  0
VERTEX
  8
20
 10
3.0000
 20
54.4000
 30
0.0000
  0
SEQEND
  8
0
  0
POLYLINE
  8
20
 66
1
 10
0.0000
 20
0.0000
 30
0.0000
 40
0.0005
 41
0.0005
 70
0
  0
VERTEX
  8
20
 10
0.0003
 20
57.4000
 30
0.0000
 42
1.0000
  0
VERTEX
  8
20
 10
-0.0003
 20
57.4000
 30
0.0000
  0
SEQEND
  8
0
  0
POLYLINE
  8
20
 66
1
 10
0.0000
 20
0.0000
 30
0.0000
 40
0.0005
 41
0.0005
 70
0
  0
VERTEX
  8
20
 10
3.0000
 20
54.3998
 30
0.0000
 42
1.0000
  0
VERTEX
  8
20
 10
3.0000
 20
54.4003
 30
0.0000
  0
SEQEND
  8
0
  0
POLYLINE
  8
20
 66
1
 10
0.0000
 20
0.0000
 30
0.0000
 40
0.0010
 41
0.0010
 70
0
  0
VERTEX
  8
20
 10
3.0000
 20
54.4000
 30
0.0000
  0
VERTEX
  8
20
 10
105.5000
 20
54.4000
 30
0.0000
  0
SEQEND
  8
0
  0
POLYLINE
  8
20
 66
1
 10
0.0000
 20
0.0000
 30
0.0000
 40
0.0005
 41
0.0005
 70
0
  0
VERTEX
  8
20
 10
105.5000
 20
54.3998
 30
0.0000
 42
1.0000
  0
VERTEX
  8
20
 10
105.5000
 20
54.4003
 30
0.0000
  0
SEQEND
  8
0
  0
POLYLINE
  8
20
 66
1
 10
0.0000
 20
0.0000
 30
0.0000
 40
0.0005
 41
0.0005
 70
0
  0
VERTEX
  8
20
 10
3.0000
 20
54.4003
 30
0.0000
 42
1.0000
  0
VERTEX
  8
20
 10
3.0000
 20
54.3998
 30
0.0000
  0
SEQEND
  8
0
  0
POLYLINE
  8
20
 66
1
 10
0.0000
 20
0.0000
 30
0.0000
 40
0.0010
 41
0.0010
 70
0
  0
VERTEX
  8
20
 10
105.5000
 20
54.4000
 30
0.0000
 42
0.4142
  0
VERTEX
  8
20
 10
108.5000
 20
57.4000
 30
0.0000
  0
SEQEND
  8
0
  0
POLYLINE
  8
20
 66
1
 10
0.0000
 20
0.0000
 30
0.0000
 40
0.0005
 41
0.0005
 70
0
  0
VERTEX
  8
20
 10
105.5000
 20
54.4003
 30
0.0000
 42
1.0000
  0
VERTEX
  8
20
 10
105.5000
 20
54.3998
 30
0.0000
  0
SEQEND
  8
0
  0
POLYLINE
  8
20
 66
1
 10
0.0000
 20
0.0000
 30
0.0000
 40
0.0005
 41
0.0005
 70
0
  0
VERTEX
  8
20
 10
108.5002
 20
57.4000
 30
0.0000
 42
1.0000
  0
VERTEX
  8
20
 10
108.4998
 20
57.4000
 30
0.0000
  0
SEQEND
  8
0
  0
POLYLINE
  8
20
 66
1
 10
0.0000
 20
0.0000
 30
0.0000
 40
0.0010
 41
0.0010
 70
0
  0
VERTEX
  8
20
 10
108.5000
 20
57.4000
 30
0.0000
  0
VERTEX
  8
20
 10
108.5000
 20
80.9000
 30
0.0000
  0
SEQEND
  8
0
  0
POLYLINE
  8
20
 66
1
 10
0.0000
 20
0.0000
 30
0.0000
 40
0.0005
 41
0.0005
 70
0
  0
VERTEX
  8
20
 10
108.5002
 20
80.9000
 30
0.0000
 42
1.0000
  0
VERTEX
  8
20
 10
108.4998
 20
80.9000
 30
0.0000
  0
SEQEND
  8
0
  0
POLYLINE
  8
20
 66
1
 10
0.0000
 20
0.0000
 30
0.0000
 40
0.0005
 41
0.0005
 70
0
  0
VERTEX
  8
20
 10
108.4998
 20
57.4000
 30
0.0000
 42
1.0000
  0
VERTEX
  8
20
 10
108.5002
 20
57.4000
 30
0.0000
  0
SEQEND
  8
0
  0
POLYLINE
  8
20
 66
1
 10
0.0000
 20
0.0000
 30
0.0000
 40
0.0010
 41
0.0010
 70
0
  0
VERTEX
  8
20
 10
108.5000
 20
80.9000
 30
0.0000
 42
0.4142
  0
VERTEX
  8
20
 10
105.5000
 20
83.9000
 30
0.0000
  0
SEQEND
  8
0
  0
POLYLINE
  8
20
 66
1
 10
0.0000
 20
0.0000
 30
0.0000
 40
0.0005
 41
0.0005
 70
0
  0
VERTEX
  8
20
 10
108.4998
 20
80.9000
 30
0.0000
 42
1.0000
  0
VERTEX
  8
20
 10
108.5002
 20
80.9000
 30
0.0000
  0
SEQEND
  8
0
  0
POLYLINE
  8
20
 66
1
 10
0.0000
 20
0.0000
 30
0.0000
 40
0.0005
 41
0.0005
 70
0
  0
VERTEX
  8
20
 10
105.5000
 20
83.9002
 30
0.0000
 42
1.0000
  0
VERTEX
  8
20
 10
105.5000
 20
83.8998
 30
0.0000
  0
SEQEND
  8
0
  0
POLYLINE
  8
20
 66
1
 10
0.0000
 20
0.0000
 30
0.0000
 40
0.0010
 41
0.0010
 70
0
  0
VERTEX
  8
20
 10
105.5000
 20
83.9000
 30
0.0000
  0
VERTEX
  8
20
 10
3.0000
 20
83.9000
 30
0.0000
  0
SEQEND
  8
0
  0
POLYLINE
  8
20
 66
1
 10
0.0000
 20
0.0000
 30
0.0000
 40
0.0005
 41
0.0005
 70
0
  0
VERTEX
  8
20
 10
3.0000
 20
83.9002
 30
0.0000
 42
1.0000
  0
VERTEX
  8
20
 10
3.0000
 20
83.8998
 30
0.0000
  0
SEQEND
  8
0
  0
POLYLINE
  8
20
 66
1
 10
0.0000
 20
0.0000
 30
0.0000
 40
0.0005
 41
0.0005
 70
0
  0
VERTEX
  8
20
 10
105.5000
 20
83.8998
 30
0.0000
 42
1.0000
  0
VERTEX
  8
20
 10
105.5000
 20
83.9002
 30
0.0000
  0
SEQEND
  8
0
  0
POLYLINE
  8
20
 66
1
 10
0.0000
 20
0.0000
 30
0.0000
 40
0.0010
 41
0.0010
 70
0
  0
VERTEX
  8
20
 10
3.0000
 20
83.9000
 30
0.0000
 42
0.4142
  0
VERTEX
  8
20
 10
0.0000
 20
80.9000
 30
0.0000
  0
SEQEND
  8
0
  0
POLYLINE
  8
20
 66
1
 10
0.0000
 20
0.0000
 30
0.0000
 40
0.0005
 41
0.0005
 70
0
  0
VERTEX
  8
20
 10
3.0000
 20
83.8998
 30
0.0000
 42
1.0000
  0
VERTEX
  8
20
 10
3.0000
 20
83.9002
 30
0.0000
  0
SEQEND
  8
0
  0
POLYLINE
  8
20
 66
1
 10
0.0000
 20
0.0000
 30
0.0000
 40
0.0005
 41
0.0005
 70
0
  0
VERTEX
  8
20
 10
-0.0003
 20
80.9000
 30
0.0000
 42
1.0000
  0
VERTEX
  8
20
 10
0.0003
 20
80.9000
 30
0.0000
  0
SEQEND
  8
0
  0
POLYLINE
  8
20
 66
1
 10
0.0000
 20
0.0000
 30
0.0000
 40
0.0010
 41
0.0010
 70
0
  0
VERTEX
  8
20
 10
9.2500
 20
8.7000
 30
0.0000
  0
VERTEX
  8
20
 10
23.2500
 20
8.7000
 30
0.0000
  0
SEQEND
  8
0
  0
POLYLINE
  8
20
 66
1
 10
0.0000
 20
0.0000
 30
0.0000
 40
0.0005
 41
0.0005
 70
0
  0
VERTEX
  8
20
 10
23.2500
 20
8.6998
 30
0.0000
 42
1.0000
  0
VERTEX
  8
20
 10
23.2500
 20
8.7003
 30
0.0000
  0
SEQEND
  8
0
  0
POLYLINE
  8
20
 66
1
 10
0.0000
 20
0.0000
 30
0.0000
 40
0.0005
 41
0.0005
 70
0
  0
VERTEX
  8
20
 10
9.2500
 20
8.7003
 30
0.0000
 42
1.0000
  0
VERTEX
  8
20
 10
9.2500
 20
8.6998
 30
0.0000
  0
SEQEND
  8
0
  0
POLYLINE
  8
20
 66
1
 10
0.0000
 20
0.0000
 30
0.0000
 40
0.0010
 41
0.0010
 70
0
  0
VERTEX
  8
20
 10
23.2500
 20
8.7000
 30
0.0000
  0
VERTEX
  8
20
 10
23.2500
 20
22.7000
 30
0.0000
  0
SEQEND
  8
0
  0
POLYLINE
  8
20
 66
1
 10
0.0000
 20
0.0000
 30
0.0000
 40
0.0005
 41
0.0005
 70
0
  0
VERTEX
  8
20
 10
23.2503
 20
22.7000
 30
0.0000
 42
1.0000
  0
VERTEX
  8
20
 10
23.2497
 20
22.7000
 30
0.0000
  0
SEQEND
  8
0
  0
POLYLINE
  8
20
 66
1
 10
0.0000
 20
0.0000
 30
0.0000
 40
0.0005
 41
0.0005
 70
0
  0
VERTEX
  8
20
 10
23.2497
 20
8.7000
 30
0.0000
 42
1.0000
  0
VERTEX
  8
20
 10
23.2503
 20
8.7000
 30
0.0000
  0
SEQEND
  8
0
  0
POLYLINE
  8
20
 66
1
 10
0.0000
 20
0.0000
 30
0.0000
 40
0.0010
 41
0.0010
 70
0
  0
VERTEX
  8
20
 10
23.2500
 20
22.7000
 30
0.0000
  0
VERTEX
  8
20
 10
9.2500
 20
22.7000
 30
0.0000
  0
SEQEND
  8
0
  0
POLYLINE
  8
20
 66
1
 10
0.0000
 20
0.0000
 30
0.0000
 40
0.0005
 41
0.0005
 70
0
  0
VERTEX
  8
20
 10
9.2500
 20
22.7003
 30
0.0000
 42
1.0000
  0
VERTEX
  8
20
 10
9.2500
 20
22.6998
 30
0.0000
  0
SEQEND
  8
0
  0
POLYLINE
  8
20
 66
1
 10
0.0000
 20
0.0000
 30
0.0000
 40
0.0005
 41
0.0005
 70
0
  0
VERTEX
  8
20
 10
23.2500
 20
22.6998
 30
0.0000
 42
1.0000
  0
VERTEX
  8
20
 10
23.2500
 20
22.7003
 30
0.0000
  0
SEQEND
  8
0
  0
POLYLINE
  8
20
 66
1
 10
0.0000
 20
0.0000
 30
0.0000
 40
0.0010
 41
0.0010
 70
0
  0
VERTEX
  8
20
 10
9.2500
 20
22.7000
 30
0.0000
  0
VERTEX
  8
20
 10
9.2500
 20
8.7000
 30
0.0000
  0
SEQEND
  8
0
  0
POLYLINE
  8
20
 66
1
 10
0.0000
 20
0.0000
 30
0.0000
 40
0.0005
 41
0.0005
 70
0
  0
VERTEX
  8
20
 10
9.2498
 20
8.7000
 30
0.0000
 42
1.0000
  0
VERTEX
  8
20
 10
9.2502
 20
8.7000
 30
0.0000
  0
SEQEND
  8
0
  0
POLYLINE
  8
20
 66
1
 10
0.0000
 20
0.0000
 30
0.0000
 40
0.0005
 41
0.0005
 70
0
  0
VERTEX
  8
20
 10
9.2502
 20
22.7000
 30
0.0000
 42
1.0000
  0
VERTEX
  8
20
 10
9.2498
 20
22.7000
 30
0.0000
  0
SEQEND
  8
0
  0
POLYLINE
  8
20
 66
1
 10
0.0000
 20
0.0000
 30
0.0000
 40
0.0010
 41
0.0010
 70
0
  0
VERTEX
  8
20
 10
48.0000
 20
24.0000
 30
0.0000
  0
VERTEX
  8
20
 10
27.0000
 20
24.0000
 30
0.0000
  0
SEQEND
  8
0
  0
POLYLINE
  8
20
 66
1
 10
0.0000
 20
0.0000
 30
0.0000
 40
0.0005
 41
0.0005
 70
0
  0
VERTEX
  8
20
 10
27.0000
 20
24.0003
 30
0.0000
 42
1.0000
  0
VERTEX
  8
20
 10
27.0000
 20
23.9997
 30
0.0000
  0
SEQEND
  8
0
  0
POLYLINE
  8
20
 66
1
 10
0.0000
 20
0.0000
 30
0.0000
 40
0.0005
 41
0.0005
 70
0
  0
VERTEX
  8
20
 10
48.0000
 20
23.9997
 30
0.0000
 42
1.0000
  0
VERTEX
  8
20
 10
48.0000
 20
24.0003
 30
0.0000
  0
SEQEND
  8
0
  0
POLYLINE
  8
20
 66
1
 10
0.0000
 20
0.0000
 30
0.0000
 40
0.0010
 41
0.0010
 70
0
  0
VERTEX
  8
20
 10
98.5000
 20
23.5000
 30
0.0000
  0
VERTEX
  8
20
 10
77.5000
 20
23.5000
 30
0.0000
  0
SEQEND
  8
0
  0
POLYLINE
  8
20
 66
1
 10
0.0000
 20
0.0000
 30
0.0000
 40
0.0005
 41
0.0005
 70
0
  0
VERTEX
  8
20
 10
77.5000
 20
23.5003
 30
0.0000
 42
1.0000
  0
VERTEX
  8
20
 10
77.5000
 20
23.4997
 30
0.0000
  0
SEQEND
  8
0
  0
POLYLINE
  8
20
 66
1
 10
0.0000
 20
0.0000
 30
0.0000
 40
0.0005
 41
0.0005
 70
0
  0
VERTEX
  8
20
 10
98.5000
 20
23.4997
 30
0.0000
 42
1.0000
  0
VERTEX
  8
20
 10
98.5000
 20
23.5003
 30
0.0000
  0
SEQEND
  8
0
  0
POLYLINE
  8
20
 66
1
 10
0.0000
 20
0.0000
 30
0.0000
 40
0.0010
 41
0.0010
 70
0
  0
VERTEX
  8
20
 10
29.1500
 20
71.0000
 30
0.0000
  0
VERTEX
  8
20
 10
29.1500
 20
79.9000
 30
0.0000
  0
SEQEND
  8
0
  0
POLYLINE
  8
20
 66
1
 10
0.0000
 20
0.0000
 30
0.0000
 40
0.0005
 41
0.0005
 70
0
  0
VERTEX
  8
20
 10
29.1503
 20
79.9000
 30
0.0000
 42
1.0000
  0
VERTEX
  8
20
 10
29.1498
 20
79.9000
 30
0.0000
  0
SEQEND
  8
0
  0
POLYLINE
  8
20
 66
1
 10
0.0000
 20
0.0000
 30
0.0000
 40
0.0005
 41
0.0005
 70
0
  0
VERTEX
  8
20
 10
29.1498
 20
71.0000
 30
0.0000
 42
1.0000
  0
VERTEX
  8
20
 10
29.1503
 20
71.0000
 30
0.0000
  0
SEQEND
  8
0
  0
POLYLINE
  8
20
 66
1
 10
0.0000
 20
0.0000
 30
0.0000
 40
0.0010
 41
0.0010
 70
0
  0
VERTEX
  8
20
 10
64.8500
 20
71.0000
 30
0.0000
  0
VERTEX
  8
20
 10
64.8500
 20
63.0000
 30
0.0000
  0
SEQEND
  8
0
  0
POLYLINE
  8
20
 66
1
 10
0.0000
 20
0.0000
 30
0.0000
 40
0.0005
 41
0.0005
 70
0
  0
VERTEX
  8
20
 10
64.8498
 20
63.0000
 30
0.0000
 42
1.0000
  0
VERTEX
  8
20
 10
64.8503
 20
63.0000
 30
0.0000
  0
SEQEND
  8
0
  0
POLYLINE
  8
20
 66
1
 10
0.0000
 20
0.0000
 30
0.0000
 40
0.0005
 41
0.0005
 70
0
  0
VERTEX
  8
20
 10
64.8503
 20
71.0000
 30
0.0000
 42
1.0000
  0
VERTEX
  8
20
 10
64.8498
 20
71.0000
 30
0.0000
  0
SEQEND
  8
0
  0
POLYLINE
  8
20
 66
1
 10
0.0000
 20
0.0000
 30
0.0000
 40
0.0010
 41
0.0010
 70
0
  0
VERTEX
  8
20
 10
11.2500
 20
63.0000
 30
0.0000
  0
VERTEX
  8
20
 10
11.2500
 20
79.9000
 30
0.0000
  0
SEQEND
  8
0
  0
POLYLINE
  8
20
 66
1
 10
0.0000
 20
0.0000
 30
0.0000
 40
0.0005
 41
0.0005
 70
0
  0
VERTEX
  8
20
 10
11.2502
 20
79.9000
 30
0.0000
 42
1.0000
  0
VERTEX
  8
20
 10
11.2498
 20
79.9000
 30
0.0000
  0
SEQEND
  8
0
  0
POLYLINE
  8
20
 66
1
 10
0.0000
 20
0.0000
 30
0.0000
 40
0.0005
 41
0.0005
 70
0
  0
VERTEX
  8
20
 10
11.2498
 20
63.0000
 30
0.0000
 42
1.0000
  0
VERTEX
  8
20
 10
11.2502
 20
63.0000
 30
0.0000
  0
SEQEND
  8
0
  0
POLYLINE
  8
20
 66
1
 10
0.0000
 20
0.0000
 30
0.0000
 40
0.0010
 41
0.0010
 70
0
  0
VERTEX
  8
20
 10
11.2500
 20
79.9000
 30
0.0000
  0
VERTEX
  8
20
 10
29.1500
 20
79.9000
 30
0.0000
  0
SEQEND
  8
0
  0
POLYLINE
  8
20
 66
1
 10
0.0000
 20
0.0000
 30
0.0000
 40
0.0005
 41
0.0005
 70
0
  0
VERTEX
  8
20
 10
29.1500
 20
79.8998
 30
0.0000
 42
1.0000
  0
VERTEX
  8
20
 10
29.1500
 20
79.9002
 30
0.0000
  0
SEQEND
  8
0
  0
POLYLINE
  8
20
 66
1
 10
0.0000
 20
0.0000
 30
0.0000
 40
0.0005
 41
0.0005
 70
0
  0
VERTEX
  8
20
 10
11.2500
 20
79.9002
 30
0.0000
 42
1.0000
  0
VERTEX
  8
20
 10
11.2500
 20
79.8998
 30
0.0000
  0
SEQEND
  8
0
  0
POLYLINE
  8
20
 66
1
 10
0.0000
 20
0.0000
 30
0.0000
 40
0.0010
 41
0.0010
 70
0
  0
VERTEX
  8
20
 10
67.1500
 20
68.0000
 30
0.0000
  0
VERTEX
  8
20
 10
77.4500
 20
68.0000
 30
0.0000
  0
SEQEND
  8
0
  0
POLYLINE
  8
20
 66
1
 10
0.0000
 20
0.0000
 30
0.0000
 40
0.0005
 41
0.0005
 70
0
  0
VERTEX
  8
20
 10
77.4500
 20
67.9998
 30
0.0000
 42
1.0000
  0
VERTEX
  8
20
 10
77.4500
 20
68.0002
 30
0.0000
  0
SEQEND
  8
0
  0
POLYLINE
  8
20
 66
1
 10
0.0000
 20
0.0000
 30
0.0000
 40
0.0005
 41
0.0005
 70
0
  0
VERTEX
  8
20
 10
67.1500
 20
68.0002
 30
0.0000
 42
1.0000
  0
VERTEX
  8
20
 10
67.1500
 20
67.9998
 30
0.0000
  0
SEQEND
  8
0
  0
POLYLINE
  8
20
 66
1
 10
0.0000
 20
0.0000
 30
0.0000
 40
0.0010
 41
0.0010
 70
0
  0
VERTEX
  8
20
 10
67.1500
 20
63.4000
 30
0.0000
  0
VERTEX
  8
20
 10
77.4500
 20
63.4000
 30
0.0000
  0
SEQEND
  8
0
  0
POLYLINE
  8
20
 66
1
 10
0.0000
 20
0.0000
 30
0.0000
 40
0.0005
 41
0.0005
 70
0
  0
VERTEX
  8
20
 10
77.4500
 20
63.3998
 30
0.0000
 42
1.0000
  0
VERTEX
  8
20
 10
77.4500
 20
63.4003
 30
0.0000
  0
SEQEND
  8
0
  0
POLYLINE
  8
20
 66
1
 10
0.0000
 20
0.0000
 30
0.0000
 40
0.0005
 41
0.0005
 70
0
  0
VERTEX
  8
20
 10
67.1500
 20
63.4003
 30
0.0000
 42
1.0000
  0
VERTEX
  8
20
 10
67.1500
 20
63.3998
 30
0.0000
  0
SEQEND
  8
0
  0
POLYLINE
  8
20
 66
1
 10
0.0000
 20
0.0000
 30
0.0000
 40
0.0010
 41
0.0010
 70
0
  0
VERTEX
  8
20
 10
67.1500
 20
63.4000
 30
0.0000
  0
VERTEX
  8
20
 10
67.1500
 20
68.0000
 30
0.0000
  0
SEQEND
  8
0
  0
POLYLINE
  8
20
 66
1
 10
0.0000
 20
0.0000
 30
0.0000
 40
0.0005
 41
0.0005
 70
0
  0
VERTEX
  8
20
 10
67.1502
 20
68.0000
 30
0.0000
 42
1.0000
  0
VERTEX
  8
20
 10
67.1498
 20
68.0000
 30
0.0000
  0
SEQEND
  8
0
  0
POLYLINE
  8
20
 66
1
 10
0.0000
 20
0.0000
 30
0.0000
 40
0.0005
 41
0.0005
 70
0
  0
VERTEX
  8
20
 10
67.1498
 20
63.4000
 30
0.0000
 42
1.0000
  0
VERTEX
  8
20
 10
67.1502
 20
63.4000
 30
0.0000
  0
SEQEND
  8
0
  0
POLYLINE
  8
20
 66
1
 10
0.0000
 20
0.0000
 30
0.0000
 40
0.0010
 41
0.0010
 70
0
  0
VERTEX
  8
20
 10
77.4500
 20
68.0000
 30
0.0000
  0
VERTEX
  8
20
 10
77.4500
 20
63.4000
 30
0.0000
  0
SEQEND
  8
0
  0
POLYLINE
  8
20
 66
1
 10
0.0000
 20
0.0000
 30
0.0000
 40
0.0005
 41
0.0005
 70
0
  0
VERTEX
  8
20
 10
77.4498
 20
63.4000
 30
0.0000
 42
1.0000
  0
VERTEX
  8
20
 10
77.4502
 20
63.4000
 30
0.0000
  0
SEQEND
  8
0
  0
POLYLINE
  8
20
 66
1
 10
0.0000
 20
0.0000
 30
0.0000
 40
0.0005
 41
0.0005
 70
0
  0
VERTEX
  8
20
 10
77.4502
 20
68.0000
 30
0.0000
 42
1.0000
  0
VERTEX
  8
20
 10
77.4498
 20
68.0000
 30
0.0000
  0
SEQEND
  8
0
  0
POLYLINE
  8
20
 66
1
 10
0.0000
 20
0.0000
 30
0.0000
 40
0.0010
 41
0.0010
 70
0
  0
VERTEX
  8
20
 10
29.1500
 20
71.0000
 30
0.0000
  0
VERTEX
  8
20
 10
64.8500
 20
71.0000
 30
0.0000
  0
SEQEND
  8
0
  0
POLYLINE
  8
20
 66
1
 10
0.0000
 20
0.0000
 30
0.0000
 40
0.0005
 41
0.0005
 70
0
  0
VERTEX
  8
20
 10
64.8500
 20
70.9998
 30
0.0000
 42
1.0000
  0
VERTEX
  8
20
 10
64.8500
 20
71.0002
 30
0.0000
  0
SEQEND
  8
0
  0
POLYLINE
  8
20
 66
1
 10
0.0000
 20
0.0000
 30
0.0000
 40
0.0005
 41
0.0005
 70
0
  0
VERTEX
  8
20
 10
29.1500
 20
71.0002
 30
0.0000
 42
1.0000
  0
VERTEX
  8
20
 10
29.1500
 20
70.9998
 30
0.0000
  0
SEQEND
  8
0
  0
POLYLINE
  8
20
 66
1
 10
0.0000
 20
0.0000
 30
0.0000
 40
0.0010
 41
0.0010
 70
0
  0
VERTEX
  8
20
 10
11.2500
 20
63.0000
 30
0.0000
  0
VERTEX
  8
20
 10
64.8500
 20
63.0000
 30
0.0000
  0
SEQEND
  8
0
  0
POLYLINE
  8
20
 66
1
 10
0.0000
 20
0.0000
 30
0.0000
 40
0.0005
 41
0.0005
 70
0
  0
VERTEX
  8
20
 10
64.8500
 20
62.9997
 30
0.0000
 42
1.0000
  0
VERTEX
  8
20
 10
64.8500
 20
63.0003
 30
0.0000
  0
SEQEND
  8
0
  0
POLYLINE
  8
20
 66
1
 10
0.0000
 20
0.0000
 30
0.0000
 40
0.0005
 41
0.0005
 70
0
  0
VERTEX
  8
20
 10
11.2500
 20
63.0003
 30
0.0000
 42
1.0000
  0
VERTEX
  8
20
 10
11.2500
 20
62.9997
 30
0.0000
  0
SEQEND
  8
0
  0
LINE
  8
20
 10
29.1917
 20
19.9633
 30
0.0000
 11
30.2500
 21
20.8100
 31
0.0000
  0
LINE
  8
20
 10
30.2500
 20
20.8100
 30
0.0000
 11
30.2500
 21
17.0000
 31
0.0000
  0
LINE
  8
20
 10
29.1917
 20
17.0000
 30
0.0000
 11
31.3083
 21
17.0000
 31
0.0000
  0
ARC
  8
20
 10
43.3558
 20
19.8575
 30
0.0000
 40
0.9525
 50
0.0000
 51
90.0000
  0
ARC
  8
20
 10
43.3558
 20
19.5863
 30
0.0000
 40
1.2237
 50
90.0000
 51
162.0549
  0
ARC
  8
20
 10
43.2853
 20
19.8575
 30
0.0000
 40
1.0231
 50
313.6027
 51
0.0000
  0
LINE
  8
20
 10
43.9908
 20
19.1167
 30
0.0000
 11
42.1917
 21
17.0000
 31
0.0000
  0
LINE
  8
20
 10
42.1917
 20
17.0000
 30
0.0000
 11
44.3083
 21
17.0000
 31
0.0000
  0
LINE
  8
20
 10
55.1917
 20
17.0000
 30
0.0000
 11
56.2500
 21
17.0000
 31
0.0000
  0
ARC
  8
20
 10
56.2500
 20
18.0583
 30
0.0000
 40
1.0583
 50
270.0000
 51
90.0000
  0
LINE
  8
20
 10
55.1917
 20
20.8100
 30
0.0000
 11
56.4617
 21
20.8100
 31
0.0000
  0
ARC
  8
20
 10
56.4617
 20
19.9633
 30
0.0000
 40
0.8467
 50
270.0000
 51
90.0000
  0
LINE
  8
20
 10
56.4617
 20
19.1167
 30
0.0000
 11
55.6150
 21
19.1167
 31
0.0000
  0
LINE
  8
20
 10
69.0383
 20
20.8100
 30
0.0000
 11
68.1917
 21
17.8467
 31
0.0000
  0
LINE
  8
20
 10
68.1917
 20
17.8467
 30
0.0000
 11
70.3083
 21
17.8467
 31
0.0000
  0
LINE
  8
20
 10
69.6733
 20
18.6933
 30
0.0000
 11
69.6733
 21
17.0000
 31
0.0000
  0
LINE
  8
20
 10
81.1917
 20
17.0000
 30
0.0000
 11
82.4617
 21
17.0000
 31
0.0000
  0
ARC
  8
20
 10
82.4617
 20
17.8467
 30
0.0000
 40
0.8467
 50
270.0000
 51
0.0002
  0
LINE
  8
20
 10
83.3083
 20
17.8467
 30
0.0000
 11
83.3083
 21
18.2700
 31
0.0000
  0
ARC
  8
20
 10
82.4617
 20
18.2700
 30
0.0000
 40
0.8467
 50
0.0000
 51
90.0000
  0
LINE
  8
20
 10
82.4617
 20
19.1167
 30
0.0000
 11
81.1917
 21
19.1167
 31
0.0000
  0
LINE
  8
20
 10
81.1917
 20
19.1167
 30
0.0000
 11
81.1917
 21
20.8100
 31
0.0000
  0
LINE
  8
20
 10
81.1917
 20
20.8100
 30
0.0000
 11
83.3083
 21
20.8100
 31
0.0000
  0
LINE
  8
20
 10
94.1917
 20
19.1167
 30
0.0000
 11
95.4617
 21
19.1167
 31
0.0000
  0
ARC
  8
20
 10
95.4617
 20
18.2700
 30
0.0000
 40
0.8467
 50
0.0000
 51
90.0000
  0
LINE
  8
20
 10
96.3083
 20
18.2700
 30
0.0000
 11
96.3083
 21
18.0583
 31
0.0000
  0
ARC
  8
20
 10
95.2500
 20
18.0583
 30
0.0000
 40
1.0583
 50
180.0000
 51
0.0000
  0
LINE
  8
20
 10
94.1917
 20
18.0583
 30
0.0000
 11
94.1917
 21
19.1167
 31
0.0000
  0
ARC
  8
20
 10
95.8850
 20
19.1167
 30
0.0000
 40
1.6933
 50
90.0001
 51
180.0000
  0
LINE
  8
20
 10
49.6568
 20
23.0000
 30
0.0000
 11
50.3624
 21
23.0000
 31
0.0000
  0
ARC
  8
20
 10
50.3624
 20
23.7056
 30
0.0000
 40
0.7056
 50
270.0000
 51
90.0000
  0
LINE
  8
20
 10
49.6568
 20
25.5400
 30
0.0000
 11
50.5035
 21
25.5400
 31
0.0000
  0
ARC
  8
20
 10
50.5035
 20
24.9756
 30
0.0000
 40
0.5644
 50
270.0000
 51
90.0000
  0
LINE
  8
20
 10
50.5035
 20
24.4111
 30
0.0000
 11
49.9391
 21
24.4111
 31
0.0000
  0
LINE
  8
20
 10
51.7447
 20
23.0000
 30
0.0000
 11
52.4503
 21
23.0000
 31
0.0000
  0
ARC
  8
20
 10
52.4503
 20
23.7056
 30
0.0000
 40
0.7056
 50
270.0000
 51
90.0000
  0
LINE
  8
20
 10
51.7447
 20
25.5400
 30
0.0000
 11
52.5914
 21
25.5400
 31
0.0000
  0
ARC
  8
20
 10
52.5914
 20
24.9756
 30
0.0000
 40
0.5644
 50
270.0000
 51
90.0000
  0
LINE
  8
20
 10
52.5914
 20
24.4111
 30
0.0000
 11
52.0269
 21
24.4111
 31
0.0000
  0
LINE
  8
20
 10
53.8326
 20
23.0000
 30
0.0000
 11
54.5382
 21
23.0000
 31
0.0000
  0
ARC
  8
20
 10
54.5382
 20
23.7056
 30
0.0000
 40
0.7056
 50
270.0000
 51
90.0000
  0
LINE
  8
20
 10
53.8326
 20
25.5400
 30
0.0000
 11
54.6793
 21
25.5400
 31
0.0000
  0
ARC
  8
20
 10
54.6793
 20
24.9756
 30
0.0000
 40
0.5644
 50
270.0000
 51
90.0000
  0
LINE
  8
20
 10
54.6793
 20
24.4111
 30
0.0000
 11
54.1148
 21
24.4111
 31
0.0000
  0
LINE
  8
20
 10
55.9882
 20
23.0000
 30
0.0000
 11
55.9882
 21
24.6933
 31
0.0000
  0
LINE
  8
20
 10
55.9882
 20
24.6933
 30
0.0000
 11
57.2582
 21
24.6933
 31
0.0000
  0
ARC
  8
20
 10
57.2582
 20
24.2700
 30
0.0000
 40
0.4233
 50
0.0000
 51
90.0000
  0
LINE
  8
20
 10
57.6815
 20
24.2700
 30
0.0000
 11
57.6815
 21
23.0000
 31
0.0000
  0
LINE
  8
20
 10
56.8348
 20
23.0000
 30
0.0000
 11
56.8348
 21
24.6933
 31
0.0000
  0
LINE
  8
20
 10
58.2848
 20
25.5400
 30
0.0000
 11
59.1315
 21
23.0000
 31
0.0000
  0
LINE
  8
20
 10
59.1315
 20
23.0000
 30
0.0000
 11
59.9782
 21
25.5400
 31
0.0000
  0
LINE
  8
20
 10
62.7567
 20
23.0000
 30
0.0000
 11
62.1923
 21
23.0000
 31
0.0000
  0
ARC
  8
20
 10
62.1923
 20
23.5644
 30
0.0000
 40
0.5644
 50
180.0000
 51
270.0000
  0
LINE
  8
20
 10
61.6278
 20
23.5644
 30
0.0000
 11
61.6278
 21
24.9756
 31
0.0000
  0
ARC
  8
20
 10
62.1923
 20
24.9756
 30
0.0000
 40
0.5644
 50
90.0003
 51
180.0000
  0
LINE
  8
20
 10
62.1923
 20
25.5400
 30
0.0000
 11
62.7567
 21
25.5400
 31
0.0000
  0
LINE
  8
20
 10
63.9336
 20
23.0000
 30
0.0000
 11
63.9336
 21
25.5400
 31
0.0000
  0
LINE
  8
20
 10
63.2281
 20
25.5400
 30
0.0000
 11
64.6392
 21
25.5400
 31
0.0000
  0
LINE
  8
20
 10
66.5783
 20
25.5400
 30
0.0000
 11
66.5783
 21
23.0000
 31
0.0000
  0
LINE
  8
20
 10
66.2960
 20
23.0000
 30
0.0000
 11
66.8605
 21
23.0000
 31
0.0000
  0
LINE
  8
20
 10
66.2960
 20
25.5400
 30
0.0000
 11
66.8605
 21
25.5400
 31
0.0000
  0
LINE
  8
20
 10
67.6145
 20
23.0000
 30
0.0000
 11
67.6145
 21
24.6933
 31
0.0000
  0
LINE
  8
20
 10
67.6145
 20
24.6933
 30
0.0000
 11
68.3201
 21
24.6933
 31
0.0000
  0
ARC
  8
20
 10
68.3201
 20
24.2700
 30
0.0000
 40
0.4233
 50
0.0004
 51
90.0000
  0
LINE
  8
20
 10
68.7434
 20
24.2700
 30
0.0000
 11
68.7434
 21
23.0000
 31
0.0000
  0
LINE
  8
20
 10
69.5622
 20
22.1533
 30
0.0000
 11
69.5622
 21
24.6933
 31
0.0000
  0
LINE
  8
20
 10
69.5622
 20
24.6933
 30
0.0000
 11
70.2677
 21
24.6933
 31
0.0000
  0
ARC
  8
20
 10
70.2677
 20
24.2700
 30
0.0000
 40
0.4233
 50
0.0004
 51
90.0000
  0
LINE
  8
20
 10
70.6911
 20
24.2700
 30
0.0000
 11
70.6911
 21
23.4233
 31
0.0000
  0
ARC
  8
20
 10
70.2677
 20
23.4233
 30
0.0000
 40
0.4233
 50
270.0000
 51
0.0000
  0
LINE
  8
20
 10
70.2677
 20
23.0000
 30
0.0000
 11
69.5622
 21
23.0000
 31
0.0000
  0
LINE
  8
20
 10
71.4423
 20
24.6933
 30
0.0000
 11
71.4423
 21
23.4233
 31
0.0000
  0
ARC
  8
20
 10
71.8656
 20
23.4233
 30
0.0000
 40
0.4233
 50
180.0000
 51
270.0000
  0
LINE
  8
20
 10
71.8656
 20
23.0000
 30
0.0000
 11
72.5712
 21
23.0000
 31
0.0000
  0
LINE
  8
20
 10
72.5712
 20
23.0000
 30
0.0000
 11
72.5712
 21
24.6933
 31
0.0000
  0
LINE
  8
20
 10
73.1858
 20
24.6933
 30
0.0000
 11
74.0325
 21
24.6933
 31
0.0000
  0
LINE
  8
20
 10
73.4681
 20
25.5400
 30
0.0000
 11
73.4681
 21
23.4233
 31
0.0000
  0
ARC
  8
20
 10
73.8914
 20
23.4233
 30
0.0000
 40
0.4233
 50
180.0000
 51
270.0000
  0
LINE
  8
20
 10
73.8914
 20
23.0000
 30
0.0000
 11
74.0325
 21
23.0000
 31
0.0000
  0
LINE
  8
20
 10
75.5609
 20
23.7056
 30
0.0000
 11
74.8554
 21
23.9878
 31
0.0000
  0
ARC
  8
20
 10
74.9913
 20
24.3275
 30
0.0000
 40
0.3659
 50
89.1818
 51
248.1987
  0
ARC
  8
20
 10
74.9736
 20
23.0910
 30
0.0000
 40
1.6025
 50
65.7609
 51
89.1817
  0
ARC
  8
20
 10
75.4250
 20
23.3658
 30
0.0000
 40
0.3659
 50
269.1817
 51
68.1987
  0
ARC
  8
20
 10
75.4540
 20
25.3929
 30
0.0000
 40
2.3931
 50
250.2088
 51
269.1818
  0
LINE
  8
20
 10
12.6286
 20
24.0000
 30
0.0000
 11
11.9230
 21
24.0000
 31
0.0000
  0
ARC
  8
20
 10
11.9230
 20
24.4233
 30
0.0000
 40
0.4233
 50
180.0000
 51
270.0000
  0
LINE
  8
20
 10
11.4997
 20
24.4233
 30
0.0000
 11
11.4997
 21
25.1289
 31
0.0000
  0
ARC
  8
20
 10
12.0641
 20
25.1289
 30
0.0000
 40
0.5644
 50
0.0000
 51
180.0000
  0
LINE
  8
20
 10
12.6286
 20
25.1289
 30
0.0000
 11
12.6286
 21
24.8467
 31
0.0000
  0
LINE
  8
20
 10
12.6286
 20
24.8467
 30
0.0000
 11
11.4997
 21
24.8467
 31
0.0000
  0
LINE
  8
20
 10
13.3750
 20
24.0000
 30
0.0000
 11
13.3750
 21
25.6933
 31
0.0000
  0
LINE
  8
20
 10
13.3750
 20
25.6933
 30
0.0000
 11
14.6450
 21
25.6933
 31
0.0000
  0
ARC
  8
20
 10
14.6450
 20
25.2700
 30
0.0000
 40
0.4233
 50
0.0000
 51
90.0000
  0
LINE
  8
20
 10
15.0683
 20
25.2700
 30
0.0000
 11
15.0683
 21
24.0000
 31
0.0000
  0
LINE
  8
20
 10
14.2216
 20
24.0000
 30
0.0000
 11
14.2216
 21
25.6933
 31
0.0000
  0
LINE
  8
20
 10
15.8146
 20
24.5644
 30
0.0000
 11
15.8146
 21
25.1289
 31
0.0000
  0
ARC
  8
20
 10
16.3791
 20
25.1289
 30
0.0000
 40
0.5644
 50
0.0000
 51
180.0000
  0
LINE
  8
20
 10
16.9435
 20
25.1289
 30
0.0000
 11
16.9435
 21
24.5644
 31
0.0000
  0
ARC
  8
20
 10
16.3791
 20
24.5644
 30
0.0000
 40
0.5644
 50
180.0000
 51
0.0000
  0
LINE
  8
20
 10
17.6937
 20
24.0000
 30
0.0000
 11
17.6937
 21
25.6933
 31
0.0000
  0
LINE
  8
20
 10
17.6937
 20
25.6933
 30
0.0000
 11
18.3993
 21
25.6933
 31
0.0000
  0
ARC
  8
20
 10
18.3993
 20
25.2700
 30
0.0000
 40
0.4233
 50
0.0004
 51
90.0000
  0
LINE
  8
20
 10
18.8226
 20
25.2700
 30
0.0000
 11
18.8226
 21
24.0000
 31
0.0000
  0
LINE
  8
20
 10
19.4298
 20
26.5400
 30
0.0000
 11
20.2765
 21
24.0000
 31
0.0000
  0
LINE
  8
20
 10
20.2765
 20
24.0000
 30
0.0000
 11
21.1231
 21
26.5400
 31
0.0000
  0
ARC
  8
20
 10
22.4359
 20
24.5644
 30
0.0000
 40
0.5644
 50
270.0000
 51
0.0000
  0
ARC
  8
20
 10
22.4359
 20
25.1924
 30
0.0000
 40
1.1924
 50
224.7606
 51
269.9999
  0
ARC
  8
20
 10
22.2242
 20
25.9756
 30
0.0000
 40
0.5644
 50
89.9997
 51
180.0000
  0
ARC
  8
20
 10
22.2242
 20
25.4817
 30
0.0000
 40
1.0583
 50
53.1301
 51
89.9997
  0
ARC
  8
20
 10
22.2330
 20
25.9756
 30
0.0000
 40
0.5733
 50
179.9999
 51
239.4899
  0
ARC
  8
20
 10
22.4270
 20
24.5644
 30
0.0000
 40
0.5733
 50
0.0000
 51
59.4898
  0
LINE
  8
20
 10
22.7181
 20
25.0583
 30
0.0000
 11
21.9420
 21
25.4817
 31
0.0000
  0
LINE
  8
20
 10
13.8247
 20
5.0000
 30
0.0000
 11
13.8247
 21
7.5400
 31
0.0000
  0
LINE
  8
20
 10
13.8247
 20
7.5400
 30
0.0000
 11
14.5302
 21
7.5400
 31
0.0000
  0
ARC
  8
20
 10
14.5302
 20
6.8344
 30
0.0000
 40
0.7056
 50
270.0000
 51
90.0000
  0
LINE
  8
20
 10
14.5302
 20
6.1289
 30
0.0000
 11
13.8247
 21
6.1289
 31
0.0000
  0
ARC
  8
20
 10
16.6230
 20
5.5644
 30
0.0000
 40
0.5644
 50
270.0000
 51
0.0000
  0
ARC
  8
20
 10
16.6230
 20
6.1924
 30
0.0000
 40
1.1924
 50
224.7606
 51
269.9999
  0
ARC
  8
20
 10
16.4114
 20
6.9756
 30
0.0000
 40
0.5644
 50
89.9997
 51
180.0000
  0
ARC
  8
20
 10
16.4114
 20
6.4817
 30
0.0000
 40
1.0583
 50
53.1301
 51
89.9997
  0
ARC
  8
20
 10
16.4202
 20
6.9756
 30
0.0000
 40
0.5733
 50
179.9999
 51
239.4899
  0
ARC
  8
20
 10
16.6142
 20
5.5644
 30
0.0000
 40
0.5733
 50
0.0000
 51
59.4898
  0
LINE
  8
20
 10
16.9052
 20
6.0583
 30
0.0000
 11
16.1291
 21
6.4817
 31
0.0000
  0
LINE
  8
20
 10
17.8642
 20
7.5400
 30
0.0000
 11
17.8642
 21
5.7056
 31
0.0000
  0
ARC
  8
20
 10
18.5698
 20
5.7056
 30
0.0000
 40
0.7056
 50
180.0000
 51
0.0000
  0
LINE
  8
20
 10
19.2753
 20
5.7056
 30
0.0000
 11
19.2753
 21
7.5400
 31
0.0000
  0
LINE
  8
20
 10
24.5361
 20
3.0056
 30
0.0000
 11
24.5361
 21
4.1344
 31
0.0000
  0
ARC
  8
20
 10
25.2417
 20
4.1344
 30
0.0000
 40
0.7056
 50
0.0000
 51
180.0000
  0
LINE
  8
20
 10
25.9472
 20
4.1344
 30
0.0000
 11
25.9472
 21
3.0056
 31
0.0000
  0
ARC
  8
20
 10
25.2417
 20
3.0056
 30
0.0000
 40
0.7056
 50
180.0000
 51
0.0000
  0
LINE
  8
20
 10
26.6945
 20
1.4533
 30
0.0000
 11
26.6945
 21
3.9933
 31
0.0000
  0
LINE
  8
20
 10
26.6945
 20
3.9933
 30
0.0000
 11
27.4000
 21
3.9933
 31
0.0000
  0
ARC
  8
20
 10
27.4000
 20
3.5700
 30
0.0000
 40
0.4233
 50
0.0004
 51
90.0000
  0
LINE
  8
20
 10
27.8234
 20
3.5700
 30
0.0000
 11
27.8234
 21
2.7233
 31
0.0000
  0
ARC
  8
20
 10
27.4000
 20
2.7233
 30
0.0000
 40
0.4233
 50
270.0000
 51
0.0000
  0
LINE
  8
20
 10
27.4000
 20
2.3000
 30
0.0000
 11
26.6945
 21
2.3000
 31
0.0000
  0
LINE
  8
20
 10
29.6339
 20
2.3000
 30
0.0000
 11
28.9283
 21
2.3000
 31
0.0000
  0
ARC
  8
20
 10
28.9283
 20
2.7233
 30
0.0000
 40
0.4233
 50
180.0000
 51
270.0000
  0
LINE
  8
20
 10
28.5050
 20
2.7233
 30
0.0000
 11
28.5050
 21
3.4289
 31
0.0000
  0
ARC
  8
20
 10
29.0694
 20
3.4289
 30
0.0000
 40
0.5644
 50
0.0000
 51
180.0000
  0
LINE
  8
20
 10
29.6339
 20
3.4289
 30
0.0000
 11
29.6339
 21
3.1467
 31
0.0000
  0
LINE
  8
20
 10
29.6339
 20
3.1467
 30
0.0000
 11
28.5050
 21
3.1467
 31
0.0000
  0
LINE
  8
20
 10
30.3841
 20
2.3000
 30
0.0000
 11
30.3841
 21
3.9933
 31
0.0000
  0
LINE
  8
20
 10
30.3841
 20
3.9933
 30
0.0000
 11
31.0896
 21
3.9933
 31
0.0000
  0
ARC
  8
20
 10
31.0896
 20
3.5700
 30
0.0000
 40
0.4233
 50
0.0004
 51
90.0000
  0
LINE
  8
20
 10
31.5130
 20
3.5700
 30
0.0000
 11
31.5130
 21
2.3000
 31
0.0000
  0
LINE
  8
20
 10
33.4592
 20
2.3000
 30
0.0000
 11
32.3304
 21
2.3000
 31
0.0000
  0
LINE
  8
20
 10
32.3304
 20
2.3000
 30
0.0000
 11
32.3304
 21
4.8400
 31
0.0000
  0
LINE
  8
20
 10
32.3304
 20
4.8400
 30
0.0000
 11
33.4592
 21
4.8400
 31
0.0000
  0
LINE
  8
20
 10
32.3304
 20
3.7111
 30
0.0000
 11
33.1770
 21
3.7111
 31
0.0000
  0
LINE
  8
20
 10
34.1423
 20
2.3000
 30
0.0000
 11
34.1423
 21
3.9933
 31
0.0000
  0
LINE
  8
20
 10
34.1423
 20
3.9933
 30
0.0000
 11
34.8478
 21
3.9933
 31
0.0000
  0
ARC
  8
20
 10
34.8478
 20
3.5700
 30
0.0000
 40
0.4233
 50
0.0004
 51
90.0000
  0
LINE
  8
20
 10
35.2712
 20
3.5700
 30
0.0000
 11
35.2712
 21
2.3000
 31
0.0000
  0
LINE
  8
20
 10
37.1502
 20
2.3000
 30
0.0000
 11
36.4447
 21
2.3000
 31
0.0000
  0
ARC
  8
20
 10
36.4447
 20
2.7233
 30
0.0000
 40
0.4233
 50
180.0000
 51
270.0000
  0
LINE
  8
20
 10
36.0214
 20
2.7233
 30
0.0000
 11
36.0214
 21
3.4289
 31
0.0000
  0
ARC
  8
20
 10
36.5858
 20
3.4289
 30
0.0000
 40
0.5644
 50
0.0000
 51
180.0000
  0
LINE
  8
20
 10
37.1502
 20
3.4289
 30
0.0000
 11
37.1502
 21
3.1467
 31
0.0000
  0
LINE
  8
20
 10
37.1502
 20
3.1467
 30
0.0000
 11
36.0214
 21
3.1467
 31
0.0000
  0
LINE
  8
20
 10
37.8991
 20
2.3000
 30
0.0000
 11
37.8991
 21
3.9933
 31
0.0000
  0
LINE
  8
20
 10
37.8991
 20
3.9933
 30
0.0000
 11
38.7458
 21
3.9933
 31
0.0000
  0
LINE
  8
20
 10
38.7458
 20
3.9933
 30
0.0000
 11
38.7458
 21
3.7111
 31
0.0000
  0
LINE
  8
20
 10
40.4223
 20
2.3000
 30
0.0000
 11
39.7167
 21
2.3000
 31
0.0000
  0
ARC
  8
20
 10
39.7167
 20
2.7233
 30
0.0000
 40
0.4233
 50
180.0000
 51
270.0000
  0
LINE
  8
20
 10
39.2934
 20
2.7233
 30
0.0000
 11
39.2934
 21
3.5700
 31
0.0000
  0
ARC
  8
20
 10
39.7167
 20
3.5700
 30
0.0000
 40
0.4233
 50
90.0000
 51
180.0000
  0
LINE
  8
20
 10
39.7167
 20
3.9933
 30
0.0000
 11
40.4223
 21
3.9933
 31
0.0000
  0
LINE
  8
20
 10
40.4223
 20
3.9933
 30
0.0000
 11
40.4223
 21
1.8767
 31
0.0000
  0
ARC
  8
20
 10
39.9990
 20
1.8767
 30
0.0000
 40
0.4233
 50
270.0004
 51
360.0000
  0
LINE
  8
20
 10
39.9990
 20
1.4533
 30
0.0000
 11
39.4345
 21
1.4533
 31
0.0000
  0
LINE
  8
20
 10
41.1019
 20
1.4533
 30
0.0000
 11
41.3841
 21
1.4533
 31
0.0000
  0
LINE
  8
20
 10
41.3841
 20
1.4533
 30
0.0000
 11
42.2308
 21
3.9933
 31
0.0000
  0
LINE
  8
20
 10
41.1019
 20
3.9933
 30
0.0000
 11
41.6663
 21
2.3000
 31
0.0000
  0
LINE
  8
20
 10
42.9075
 20
2.3000
 30
0.0000
 11
42.9075
 21
4.8400
 31
0.0000
  0
LINE
  8
20
 10
42.9075
 20
4.8400
 30
0.0000
 11
43.7542
 21
3.4289
 31
0.0000
  0
LINE
  8
20
 10
43.7542
 20
3.4289
 30
0.0000
 11
44.6009
 21
4.8400
 31
0.0000
  0
LINE
  8
20
 10
44.6009
 20
4.8400
 30
0.0000
 11
44.6009
 21
2.3000
 31
0.0000
  0
LINE
  8
20
 10
45.3472
 20
2.8644
 30
0.0000
 11
45.3472
 21
3.4289
 31
0.0000
  0
ARC
  8
20
 10
45.9117
 20
3.4289
 30
0.0000
 40
0.5644
 50
0.0000
 51
180.0000
  0
LINE
  8
20
 10
46.4761
 20
3.4289
 30
0.0000
 11
46.4761
 21
2.8644
 31
0.0000
  0
ARC
  8
20
 10
45.9117
 20
2.8644
 30
0.0000
 40
0.5644
 50
180.0000
 51
0.0000
  0
LINE
  8
20
 10
47.2263
 20
2.3000
 30
0.0000
 11
47.2263
 21
3.9933
 31
0.0000
  0
LINE
  8
20
 10
47.2263
 20
3.9933
 30
0.0000
 11
47.9319
 21
3.9933
 31
0.0000
  0
ARC
  8
20
 10
47.9319
 20
3.5700
 30
0.0000
 40
0.4233
 50
0.0004
 51
90.0000
  0
LINE
  8
20
 10
48.3552
 20
3.5700
 30
0.0000
 11
48.3552
 21
2.3000
 31
0.0000
  0
LINE
  8
20
 10
49.1827
 20
2.3000
 30
0.0000
 11
49.1827
 21
3.9933
 31
0.0000
  0
LINE
  8
20
 10
49.1121
 20
4.6989
 30
0.0000
 11
49.1121
 21
4.8400
 31
0.0000
  0
LINE
  8
20
 10
49.1121
 20
4.8400
 30
0.0000
 11
49.2532
 21
4.8400
 31
0.0000
  0
LINE
  8
20
 10
49.2532
 20
4.8400
 30
0.0000
 11
49.2532
 21
4.6989
 31
0.0000
  0
LINE
  8
20
 10
49.2532
 20
4.6989
 30
0.0000
 11
49.1121
 21
4.6989
 31
0.0000
  0
LINE
  8
20
 10
49.8050
 20
3.9933
 30
0.0000
 11
50.6517
 21
3.9933
 31
0.0000
  0
LINE
  8
20
 10
50.0872
 20
4.8400
 30
0.0000
 11
50.0872
 21
2.7233
 31
0.0000
  0
ARC
  8
20
 10
50.5105
 20
2.7233
 30
0.0000
 40
0.4233
 50
180.0000
 51
270.0000
  0
LINE
  8
20
 10
50.5105
 20
2.3000
 30
0.0000
 11
50.6517
 21
2.3000
 31
0.0000
  0
LINE
  8
20
 10
51.2629
 20
2.8644
 30
0.0000
 11
51.2629
 21
3.4289
 31
0.0000
  0
ARC
  8
20
 10
51.8273
 20
3.4289
 30
0.0000
 40
0.5644
 50
0.0000
 51
180.0000
  0
LINE
  8
20
 10
52.3918
 20
3.4289
 30
0.0000
 11
52.3918
 21
2.8644
 31
0.0000
  0
ARC
  8
20
 10
51.8273
 20
2.8644
 30
0.0000
 40
0.5644
 50
180.0000
 51
0.0000
  0
LINE
  8
20
 10
53.1407
 20
2.3000
 30
0.0000
 11
53.1407
 21
3.9933
 31
0.0000
  0
LINE
  8
20
 10
53.1407
 20
3.9933
 30
0.0000
 11
53.9873
 21
3.9933
 31
0.0000
  0
LINE
  8
20
 10
53.9873
 20
3.9933
 30
0.0000
 11
53.9873
 21
3.7111
 31
0.0000
  0
LINE
  8
20
 10
54.5406
 20
2.3000
 30
0.0000
 11
54.5406
 21
2.4411
 31
0.0000
  0
LINE
  8
20
 10
54.5406
 20
2.4411
 30
0.0000
 11
54.6817
 21
2.4411
 31
0.0000
  0
LINE
  8
20
 10
54.6817
 20
2.4411
 30
0.0000
 11
54.6817
 21
2.3000
 31
0.0000
  0
LINE
  8
20
 10
54.6817
 20
2.3000
 30
0.0000
 11
54.5406
 21
2.3000
 31
0.0000
  0
LINE
  8
20
 10
55.3690
 20
2.8644
 30
0.0000
 11
55.3690
 21
3.4289
 31
0.0000
  0
ARC
  8
20
 10
55.9335
 20
3.4289
 30
0.0000
 40
0.5644
 50
0.0000
 51
180.0000
  0
LINE
  8
20
 10
56.4979
 20
3.4289
 30
0.0000
 11
56.4979
 21
2.8644
 31
0.0000
  0
ARC
  8
20
 10
55.9335
 20
2.8644
 30
0.0000
 40
0.5644
 50
180.0000
 51
0.0000
  0
LINE
  8
20
 10
57.2468
 20
2.3000
 30
0.0000
 11
57.2468
 21
3.9933
 31
0.0000
  0
LINE
  8
20
 10
57.2468
 20
3.9933
 30
0.0000
 11
58.0935
 21
3.9933
 31
0.0000
  0
LINE
  8
20
 10
58.0935
 20
3.9933
 30
0.0000
 11
58.0935
 21
3.7111
 31
0.0000
  0
LINE
  8
20
 10
59.7700
 20
2.3000
 30
0.0000
 11
59.0644
 21
2.3000
 31
0.0000
  0
ARC
  8
20
 10
59.0644
 20
2.7233
 30
0.0000
 40
0.4233
 50
180.0000
 51
270.0000
  0
LINE
  8
20
 10
58.6411
 20
2.7233
 30
0.0000
 11
58.6411
 21
3.5700
 31
0.0000
  0
ARC
  8
20
 10
59.0644
 20
3.5700
 30
0.0000
 40
0.4233
 50
90.0000
 51
180.0000
  0
LINE
  8
20
 10
59.0644
 20
3.9933
 30
0.0000
 11
59.7700
 21
3.9933
 31
0.0000
  0
LINE
  8
20
 10
59.7700
 20
3.9933
 30
0.0000
 11
59.7700
 21
1.8767
 31
0.0000
  0
ARC
  8
20
 10
59.3466
 20
1.8767
 30
0.0000
 40
0.4233
 50
270.0004
 51
360.0000
  0
LINE
  8
20
 10
59.3466
 20
1.4533
 30
0.0000
 11
58.7822
 21
1.4533
 31
0.0000
  0
LINE
  8
20
 10
68.3292
 20
2.3000
 30
0.0000
 11
67.6237
 21
2.3000
 31
0.0000
  0
ARC
  8
20
 10
67.6237
 20
2.7233
 30
0.0000
 40
0.4233
 50
180.0000
 51
270.0000
  0
LINE
  8
20
 10
67.2004
 20
2.7233
 30
0.0000
 11
67.2004
 21
3.4289
 31
0.0000
  0
ARC
  8
20
 10
67.7648
 20
3.4289
 30
0.0000
 40
0.5644
 50
0.0000
 51
180.0000
  0
LINE
  8
20
 10
68.3292
 20
3.4289
 30
0.0000
 11
68.3292
 21
3.1467
 31
0.0000
  0
LINE
  8
20
 10
68.3292
 20
3.1467
 30
0.0000
 11
67.2004
 21
3.1467
 31
0.0000
  0
LINE
  8
20
 10
69.0756
 20
2.3000
 30
0.0000
 11
69.0756
 21
3.9933
 31
0.0000
  0
LINE
  8
20
 10
69.0756
 20
3.9933
 30
0.0000
 11
70.3456
 21
3.9933
 31
0.0000
  0
ARC
  8
20
 10
70.3456
 20
3.5700
 30
0.0000
 40
0.4233
 50
0.0000
 51
90.0000
  0
LINE
  8
20
 10
70.7689
 20
3.5700
 30
0.0000
 11
70.7689
 21
2.3000
 31
0.0000
  0
LINE
  8
20
 10
69.9223
 20
2.3000
 30
0.0000
 11
69.9223
 21
3.9933
 31
0.0000
  0
LINE
  8
20
 10
71.5153
 20
2.8644
 30
0.0000
 11
71.5153
 21
3.4289
 31
0.0000
  0
ARC
  8
20
 10
72.0797
 20
3.4289
 30
0.0000
 40
0.5644
 50
0.0000
 51
180.0000
  0
LINE
  8
20
 10
72.6442
 20
3.4289
 30
0.0000
 11
72.6442
 21
2.8644
 31
0.0000
  0
ARC
  8
20
 10
72.0797
 20
2.8644
 30
0.0000
 40
0.5644
 50
180.0000
 51
0.0000
  0
LINE
  8
20
 10
73.3944
 20
2.3000
 30
0.0000
 11
73.3944
 21
3.9933
 31
0.0000
  0
LINE
  8
20
 10
73.3944
 20
3.9933
 30
0.0000
 11
74.0999
 21
3.9933
 31
0.0000
  0
ARC
  8
20
 10
74.0999
 20
3.5700
 30
0.0000
 40
0.4233
 50
0.0004
 51
90.0000
  0
LINE
  8
20
 10
74.5233
 20
3.5700
 30
0.0000
 11
74.5233
 21
2.3000
 31
0.0000
  0
LINE
  8
20
 10
75.8379
 20
2.3000
 30
0.0000
 11
75.8379
 21
4.8400
 31
0.0000
  0
LINE
  8
20
 10
75.1324
 20
4.8400
 30
0.0000
 11
76.5435
 21
4.8400
 31
0.0000
  0
LINE
  8
20
 10
77.0134
 20
2.3000
 30
0.0000
 11
78.1423
 21
3.9933
 31
0.0000
  0
LINE
  8
20
 10
77.0134
 20
3.9933
 30
0.0000
 11
78.1423
 21
2.3000
 31
0.0000
  0
LINE
  8
20
 10
79.7238
 20
4.8400
 30
0.0000
 11
80.5705
 21
2.3000
 31
0.0000
  0
LINE
  8
20
 10
80.5705
 20
2.3000
 30
0.0000
 11
81.4171
 21
4.8400
 31
0.0000
  0
LINE
  8
20
 10
82.5172
 20
4.8400
 30
0.0000
 11
81.9528
 21
2.8644
 31
0.0000
  0
LINE
  8
20
 10
81.9528
 20
2.8644
 30
0.0000
 11
83.3639
 21
2.8644
 31
0.0000
  0
LINE
  8
20
 10
82.9406
 20
3.4289
 30
0.0000
 11
82.9406
 21
2.3000
 31
0.0000
  0
LINE
  8
20
 10
69.7081
 20
72.0400
 30
0.0000
 11
69.7081
 21
70.2056
 31
0.0000
  0
ARC
  8
20
 10
70.4136
 20
70.2056
 30
0.0000
 40
0.7056
 50
180.0000
 51
0.0000
  0
LINE
  8
20
 10
71.1192
 20
70.2056
 30
0.0000
 11
71.1192
 21
72.0400
 31
0.0000
  0
ARC
  8
20
 10
72.6426
 20
70.0644
 30
0.0000
 40
0.5644
 50
270.0000
 51
0.0000
  0
ARC
  8
20
 10
72.6426
 20
70.6924
 30
0.0000
 40
1.1924
 50
224.7606
 51
269.9999
  0
ARC
  8
20
 10
72.4310
 20
71.4756
 30
0.0000
 40
0.5644
 50
89.9997
 51
180.0000
  0
ARC
  8
20
 10
72.4310
 20
70.9817
 30
0.0000
 40
1.0583
 50
53.1301
 51
89.9997
  0
ARC
  8
20
 10
72.4398
 20
71.4756
 30
0.0000
 40
0.5733
 50
179.9999
 51
239.4899
  0
ARC
  8
20
 10
72.6338
 20
70.0644
 30
0.0000
 40
0.5733
 50
0.0000
 51
59.4898
  0
LINE
  8
20
 10
72.9248
 20
70.5583
 30
0.0000
 11
72.1487
 21
70.9817
 31
0.0000
  0
LINE
  8
20
 10
73.8808
 20
70.9111
 30
0.0000
 11
74.5864
 21
70.9111
 31
0.0000
  0
ARC
  8
20
 10
74.5864
 20
70.2056
 30
0.0000
 40
0.7056
 50
270.0000
 51
90.0000
  0
LINE
  8
20
 10
74.5864
 20
69.5000
 30
0.0000
 11
73.8808
 21
69.5000
 31
0.0000
  0
LINE
  8
20
 10
73.8808
 20
69.5000
 30
0.0000
 11
73.8808
 21
72.0400
 31
0.0000
  0
LINE
  8
20
 10
73.8808
 20
72.0400
 30
0.0000
 11
74.5864
 21
72.0400
 31
0.0000
  0
ARC
  8
20
 10
74.5864
 20
71.4756
 30
0.0000
 40
0.5644
 50
270.0000
 51
90.0000
  0
LINE
  8
20
 10
31.7441
 20
81.0756
 30
0.0000
 11
32.4497
 21
81.6400
 31
0.0000
  0
LINE
  8
20
 10
32.4497
 20
81.6400
 30
0.0000
 11
32.4497
 21
79.1000
 31
0.0000
  0
LINE
  8
20
 10
31.7441
 20
79.1000
 30
0.0000
 11
33.1553
 21
79.1000
 31
0.0000
  0
LINE
  8
20
 10
33.7605
 20
80.7933
 30
0.0000
 11
34.1838
 21
79.1000
 31
0.0000
  0
LINE
  8
20
 10
34.1838
 20
79.1000
 30
0.0000
 11
34.6072
 21
80.2289
 31
0.0000
  0
LINE
  8
20
 10
34.6072
 20
80.2289
 30
0.0000
 11
35.0305
 21
79.1000
 31
0.0000
  0
LINE
  8
20
 10
35.0305
 20
79.1000
 30
0.0000
 11
35.4538
 21
80.7933
 31
0.0000
  0
LINE
  8
20
 10
36.1383
 20
79.1000
 30
0.0000
 11
36.1383
 21
80.7933
 31
0.0000
  0
LINE
  8
20
 10
36.0677
 20
81.4989
 30
0.0000
 11
36.0677
 21
81.6400
 31
0.0000
  0
LINE
  8
20
 10
36.0677
 20
81.6400
 30
0.0000
 11
36.2088
 21
81.6400
 31
0.0000
  0
LINE
  8
20
 10
36.2088
 20
81.6400
 30
0.0000
 11
36.2088
 21
81.4989
 31
0.0000
  0
LINE
  8
20
 10
36.2088
 20
81.4989
 30
0.0000
 11
36.0677
 21
81.4989
 31
0.0000
  0
LINE
  8
20
 10
36.9645
 20
79.1000
 30
0.0000
 11
36.9645
 21
80.7933
 31
0.0000
  0
LINE
  8
20
 10
36.9645
 20
80.7933
 30
0.0000
 11
37.8111
 21
80.7933
 31
0.0000
  0
LINE
  8
20
 10
37.8111
 20
80.7933
 30
0.0000
 11
37.8111
 21
80.5111
 31
0.0000
  0
LINE
  8
20
 10
39.4866
 20
79.1000
 30
0.0000
 11
38.7810
 21
79.1000
 31
0.0000
  0
ARC
  8
20
 10
38.7810
 20
79.5233
 30
0.0000
 40
0.4233
 50
180.0000
 51
270.0000
  0
LINE
  8
20
 10
38.3577
 20
79.5233
 30
0.0000
 11
38.3577
 21
80.2289
 31
0.0000
  0
ARC
  8
20
 10
38.9221
 20
80.2289
 30
0.0000
 40
0.5644
 50
0.0000
 51
180.0000
  0
LINE
  8
20
 10
39.4866
 20
80.2289
 30
0.0000
 11
39.4866
 21
79.9467
 31
0.0000
  0
LINE
  8
20
 10
39.4866
 20
79.9467
 30
0.0000
 11
38.3577
 21
79.9467
 31
0.0000
  0
LINE
  8
20
 10
41.1452
 20
80.7933
 30
0.0000
 11
41.9918
 21
80.7933
 31
0.0000
  0
LINE
  8
20
 10
41.4274
 20
81.6400
 30
0.0000
 11
41.4274
 21
79.5233
 31
0.0000
  0
ARC
  8
20
 10
41.8507
 20
79.5233
 30
0.0000
 40
0.4233
 50
180.0000
 51
270.0000
  0
LINE
  8
20
 10
41.8507
 20
79.1000
 30
0.0000
 11
41.9918
 21
79.1000
 31
0.0000
  0
LINE
  8
20
 10
43.7319
 20
79.1000
 30
0.0000
 11
43.0264
 21
79.1000
 31
0.0000
  0
ARC
  8
20
 10
43.0264
 20
79.5233
 30
0.0000
 40
0.4233
 50
180.0000
 51
270.0000
  0
LINE
  8
20
 10
42.6030
 20
79.5233
 30
0.0000
 11
42.6030
 21
80.2289
 31
0.0000
  0
ARC
  8
20
 10
43.1675
 20
80.2289
 30
0.0000
 40
0.5644
 50
0.0000
 51
180.0000
  0
LINE
  8
20
 10
43.7319
 20
80.2289
 30
0.0000
 11
43.7319
 21
79.9467
 31
0.0000
  0
LINE
  8
20
 10
43.7319
 20
79.9467
 30
0.0000
 11
42.6030
 21
79.9467
 31
0.0000
  0
LINE
  8
20
 10
44.4783
 20
79.1000
 30
0.0000
 11
44.4783
 21
80.7933
 31
0.0000
  0
LINE
  8
20
 10
44.4783
 20
80.7933
 30
0.0000
 11
45.7483
 21
80.7933
 31
0.0000
  0
ARC
  8
20
 10
45.7483
 20
80.3700
 30
0.0000
 40
0.4233
 50
0.0000
 51
90.0000
  0
LINE
  8
20
 10
46.1716
 20
80.3700
 30
0.0000
 11
46.1716
 21
79.1000
 31
0.0000
  0
LINE
  8
20
 10
45.3250
 20
79.1000
 30
0.0000
 11
45.3250
 21
80.7933
 31
0.0000
  0
LINE
  8
20
 10
46.9865
 20
78.2533
 30
0.0000
 11
46.9865
 21
80.7933
 31
0.0000
  0
LINE
  8
20
 10
46.9865
 20
80.7933
 30
0.0000
 11
47.6921
 21
80.7933
 31
0.0000
  0
ARC
  8
20
 10
47.6921
 20
80.3700
 30
0.0000
 40
0.4233
 50
0.0004
 51
90.0000
  0
LINE
  8
20
 10
48.1154
 20
80.3700
 30
0.0000
 11
48.1154
 21
79.5233
 31
0.0000
  0
ARC
  8
20
 10
47.6921
 20
79.5233
 30
0.0000
 40
0.4233
 50
270.0000
 51
0.0000
  0
LINE
  8
20
 10
47.6921
 20
79.1000
 30
0.0000
 11
46.9865
 21
79.1000
 31
0.0000
  0
ARC
  8
20
 10
50.3918
 20
81.2245
 30
0.0000
 40
0.4155
 50
90.0000
 51
211.8908
  0
LINE
  8
20
 10
50.0390
 20
81.0050
 30
0.0000
 11
51.2385
 21
79.1000
 31
0.0000
  0
ARC
  8
20
 10
50.3918
 20
81.2245
 30
0.0000
 40
0.4155
 50
328.1092
 51
90.0000
  0
ARC
  8
20
 10
50.2507
 20
79.5233
 30
0.0000
 40
0.4233
 50
180.0000
 51
270.0000
  0
ARC
  8
20
 10
50.1802
 20
79.5233
 30
0.0000
 40
0.3528
 50
143.1316
 51
180.0000
  0
LINE
  8
20
 10
49.8979
 20
79.7350
 30
0.0000
 11
50.7446
 21
81.0050
 31
0.0000
  0
ARC
  8
20
 10
50.2507
 20
79.4528
 30
0.0000
 40
0.3528
 50
270.0000
 51
306.8684
  0
LINE
  8
20
 10
50.4624
 20
79.1706
 30
0.0000
 11
51.5207
 21
79.9467
 31
0.0000
  0
LINE
  8
20
 10
54.2420
 20
80.0878
 30
0.0000
 11
53.6070
 21
80.0878
 31
0.0000
  0
ARC
  8
20
 10
53.6070
 20
79.5939
 30
0.0000
 40
0.4939
 50
90.0000
 51
270.0000
  0
LINE
  8
20
 10
53.6070
 20
79.1000
 30
0.0000
 11
54.2420
 21
79.1000
 31
0.0000
  0
LINE
  8
20
 10
54.2420
 20
79.1000
 30
0.0000
 11
54.2420
 21
80.3700
 31
0.0000
  0
ARC
  8
20
 10
53.8186
 20
80.3700
 30
0.0000
 40
0.4233
 50
0.0000
 51
90.0000
  0
LINE
  8
20
 10
53.8186
 20
80.7933
 30
0.0000
 11
53.2542
 21
80.7933
 31
0.0000
  0
LINE
  8
20
 10
55.0607
 20
80.7933
 30
0.0000
 11
55.0607
 21
79.5233
 31
0.0000
  0
ARC
  8
20
 10
55.4840
 20
79.5233
 30
0.0000
 40
0.4233
 50
180.0000
 51
270.0000
  0
LINE
  8
20
 10
55.4840
 20
79.1000
 30
0.0000
 11
56.1896
 21
79.1000
 31
0.0000
  0
LINE
  8
20
 10
56.1896
 20
79.1000
 30
0.0000
 11
56.1896
 21
80.7933
 31
0.0000
  0
LINE
  8
20
 10
56.8702
 20
79.1000
 30
0.0000
 11
57.9991
 21
80.7933
 31
0.0000
  0
LINE
  8
20
 10
56.8702
 20
80.7933
 30
0.0000
 11
57.9991
 21
79.1000
 31
0.0000
  0
LINE
  8
20
 10
60.0097
 20
81.6400
 30
0.0000
 11
60.0097
 21
79.1000
 31
0.0000
  0
LINE
  8
20
 10
59.7275
 20
79.1000
 30
0.0000
 11
60.2919
 21
79.1000
 31
0.0000
  0
LINE
  8
20
 10
59.7275
 20
81.6400
 30
0.0000
 11
60.2919
 21
81.6400
 31
0.0000
  0
LINE
  8
20
 10
60.9068
 20
78.8178
 30
0.0000
 11
62.0357
 21
81.9222
 31
0.0000
  0
LINE
  8
20
 10
62.6447
 20
79.8056
 30
0.0000
 11
62.6447
 21
80.9344
 31
0.0000
  0
ARC
  8
20
 10
63.3503
 20
80.9344
 30
0.0000
 40
0.7056
 50
0.0000
 51
180.0000
  0
LINE
  8
20
 10
64.0559
 20
80.9344
 30
0.0000
 11
64.0559
 21
79.8056
 31
0.0000
  0
ARC
  8
20
 10
63.3503
 20
79.8056
 30
0.0000
 40
0.7056
 50
180.0000
 51
0.0000
  0
LINE
  8
20
 10
24.6361
 20
57.7056
 30
0.0000
 11
24.6361
 21
58.8344
 31
0.0000
  0
ARC
  8
20
 10
25.3417
 20
58.8344
 30
0.0000
 40
0.7056
 50
0.0000
 51
180.0000
  0
LINE
  8
20
 10
26.0472
 20
58.8344
 30
0.0000
 11
26.0472
 21
57.7056
 31
0.0000
  0
ARC
  8
20
 10
25.3417
 20
57.7056
 30
0.0000
 40
0.7056
 50
180.0000
 51
0.0000
  0
LINE
  8
20
 10
26.7945
 20
56.1533
 30
0.0000
 11
26.7945
 21
58.6933
 31
0.0000
  0
LINE
  8
20
 10
26.7945
 20
58.6933
 30
0.0000
 11
27.5000
 21
58.6933
 31
0.0000
  0
ARC
  8
20
 10
27.5000
 20
58.2700
 30
0.0000
 40
0.4233
 50
0.0004
 51
90.0000
  0
LINE
  8
20
 10
27.9234
 20
58.2700
 30
0.0000
 11
27.9234
 21
57.4233
 31
0.0000
  0
ARC
  8
20
 10
27.5000
 20
57.4233
 30
0.0000
 40
0.4233
 50
270.0000
 51
0.0000
  0
LINE
  8
20
 10
27.5000
 20
57.0000
 30
0.0000
 11
26.7945
 21
57.0000
 31
0.0000
  0
LINE
  8
20
 10
29.7339
 20
57.0000
 30
0.0000
 11
29.0283
 21
57.0000
 31
0.0000
  0
ARC
  8
20
 10
29.0283
 20
57.4233
 30
0.0000
 40
0.4233
 50
180.0000
 51
270.0000
  0
LINE
  8
20
 10
28.6050
 20
57.4233
 30
0.0000
 11
28.6050
 21
58.1289
 31
0.0000
  0
ARC
  8
20
 10
29.1694
 20
58.1289
 30
0.0000
 40
0.5644
 50
0.0000
 51
180.0000
  0
LINE
  8
20
 10
29.7339
 20
58.1289
 30
0.0000
 11
29.7339
 21
57.8467
 31
0.0000
  0
LINE
  8
20
 10
29.7339
 20
57.8467
 30
0.0000
 11
28.6050
 21
57.8467
 31
0.0000
  0
LINE
  8
20
 10
30.4841
 20
57.0000
 30
0.0000
 11
30.4841
 21
58.6933
 31
0.0000
  0
LINE
  8
20
 10
30.4841
 20
58.6933
 30
0.0000
 11
31.1896
 21
58.6933
 31
0.0000
  0
ARC
  8
20
 10
31.1896
 20
58.2700
 30
0.0000
 40
0.4233
 50
0.0004
 51
90.0000
  0
LINE
  8
20
 10
31.6130
 20
58.2700
 30
0.0000
 11
31.6130
 21
57.0000
 31
0.0000
  0
LINE
  8
20
 10
33.5592
 20
57.0000
 30
0.0000
 11
32.4304
 21
57.0000
 31
0.0000
  0
LINE
  8
20
 10
32.4304
 20
57.0000
 30
0.0000
 11
32.4304
 21
59.5400
 31
0.0000
  0
LINE
  8
20
 10
32.4304
 20
59.5400
 30
0.0000
 11
33.5592
 21
59.5400
 31
0.0000
  0
LINE
  8
20
 10
32.4304
 20
58.4111
 30
0.0000
 11
33.2770
 21
58.4111
 31
0.0000
  0
LINE
  8
20
 10
34.2423
 20
57.0000
 30
0.0000
 11
34.2423
 21
58.6933
 31
0.0000
  0
LINE
  8
20
 10
34.2423
 20
58.6933
 30
0.0000
 11
34.9478
 21
58.6933
 31
0.0000
  0
ARC
  8
20
 10
34.9478
 20
58.2700
 30
0.0000
 40
0.4233
 50
0.0004
 51
90.0000
  0
LINE
  8
20
 10
35.3712
 20
58.2700
 30
0.0000
 11
35.3712
 21
57.0000
 31
0.0000
  0
LINE
  8
20
 10
37.2503
 20
57.0000
 30
0.0000
 11
36.5447
 21
57.0000
 31
0.0000
  0
ARC
  8
20
 10
36.5447
 20
57.4233
 30
0.0000
 40
0.4233
 50
180.0000
 51
270.0000
  0
LINE
  8
20
 10
36.1214
 20
57.4233
 30
0.0000
 11
36.1214
 21
58.1289
 31
0.0000
  0
ARC
  8
20
 10
36.6858
 20
58.1289
 30
0.0000
 40
0.5644
 50
0.0000
 51
180.0000
  0
LINE
  8
20
 10
37.2503
 20
58.1289
 30
0.0000
 11
37.2503
 21
57.8467
 31
0.0000
  0
LINE
  8
20
 10
37.2503
 20
57.8467
 30
0.0000
 11
36.1214
 21
57.8467
 31
0.0000
  0
LINE
  8
20
 10
37.9991
 20
57.0000
 30
0.0000
 11
37.9991
 21
58.6933
 31
0.0000
  0
LINE
  8
20
 10
37.9991
 20
58.6933
 30
0.0000
 11
38.8458
 21
58.6933
 31
0.0000
  0
LINE
  8
20
 10
38.8458
 20
58.6933
 30
0.0000
 11
38.8458
 21
58.4111
 31
0.0000
  0
LINE
  8
20
 10
40.5223
 20
57.0000
 30
0.0000
 11
39.8167
 21
57.0000
 31
0.0000
  0
ARC
  8
20
 10
39.8167
 20
57.4233
 30
0.0000
 40
0.4233
 50
180.0000
 51
270.0000
  0
LINE
  8
20
 10
39.3934
 20
57.4233
 30
0.0000
 11
39.3934
 21
58.2700
 31
0.0000
  0
ARC
  8
20
 10
39.8167
 20
58.2700
 30
0.0000
 40
0.4233
 50
90.0000
 51
180.0000
  0
LINE
  8
20
 10
39.8167
 20
58.6933
 30
0.0000
 11
40.5223
 21
58.6933
 31
0.0000
  0
LINE
  8
20
 10
40.5223
 20
58.6933
 30
0.0000
 11
40.5223
 21
56.5767
 31
0.0000
  0
ARC
  8
20
 10
40.0990
 20
56.5767
 30
0.0000
 40
0.4233
 50
270.0004
 51
360.0000
  0
LINE
  8
20
 10
40.0990
 20
56.1533
 30
0.0000
 11
39.5345
 21
56.1533
 31
0.0000
  0
LINE
  8
20
 10
41.2019
 20
56.1533
 30
0.0000
 11
41.4841
 21
56.1533
 31
0.0000
  0
LINE
  8
20
 10
41.4841
 20
56.1533
 30
0.0000
 11
42.3308
 21
58.6933
 31
0.0000
  0
LINE
  8
20
 10
41.2019
 20
58.6933
 30
0.0000
 11
41.7663
 21
57.0000
 31
0.0000
  0
LINE
  8
20
 10
43.0075
 20
57.0000
 30
0.0000
 11
43.0075
 21
59.5400
 31
0.0000
  0
LINE
  8
20
 10
43.0075
 20
59.5400
 30
0.0000
 11
43.8542
 21
58.1289
 31
0.0000
  0
LINE
  8
20
 10
43.8542
 20
58.1289
 30
0.0000
 11
44.7009
 21
59.5400
 31
0.0000
  0
LINE
  8
20
 10
44.7009
 20
59.5400
 30
0.0000
 11
44.7009
 21
57.0000
 31
0.0000
  0
LINE
  8
20
 10
45.4472
 20
57.5644
 30
0.0000
 11
45.4472
 21
58.1289
 31
0.0000
  0
ARC
  8
20
 10
46.0117
 20
58.1289
 30
0.0000
 40
0.5644
 50
0.0000
 51
180.0000
  0
LINE
  8
20
 10
46.5761
 20
58.1289
 30
0.0000
 11
46.5761
 21
57.5644
 31
0.0000
  0
ARC
  8
20
 10
46.0117
 20
57.5644
 30
0.0000
 40
0.5644
 50
180.0000
 51
0.0000
  0
LINE
  8
20
 10
47.3263
 20
57.0000
 30
0.0000
 11
47.3263
 21
58.6933
 31
0.0000
  0
LINE
  8
20
 10
47.3263
 20
58.6933
 30
0.0000
 11
48.0319
 21
58.6933
 31
0.0000
  0
ARC
  8
20
 10
48.0319
 20
58.2700
 30
0.0000
 40
0.4233
 50
0.0004
 51
90.0000
  0
LINE
  8
20
 10
48.4552
 20
58.2700
 30
0.0000
 11
48.4552
 21
57.0000
 31
0.0000
  0
LINE
  8
20
 10
49.2827
 20
57.0000
 30
0.0000
 11
49.2827
 21
58.6933
 31
0.0000
  0
LINE
  8
20
 10
49.2121
 20
59.3989
 30
0.0000
 11
49.2121
 21
59.5400
 31
0.0000
  0
LINE
  8
20
 10
49.2121
 20
59.5400
 30
0.0000
 11
49.3532
 21
59.5400
 31
0.0000
  0
LINE
  8
20
 10
49.3532
 20
59.5400
 30
0.0000
 11
49.3532
 21
59.3989
 31
0.0000
  0
LINE
  8
20
 10
49.3532
 20
59.3989
 30
0.0000
 11
49.2121
 21
59.3989
 31
0.0000
  0
LINE
  8
20
 10
49.9050
 20
58.6933
 30
0.0000
 11
50.7517
 21
58.6933
 31
0.0000
  0
LINE
  8
20
 10
50.1872
 20
59.5400
 30
0.0000
 11
50.1872
 21
57.4233
 31
0.0000
  0
ARC
  8
20
 10
50.6105
 20
57.4233
 30
0.0000
 40
0.4233
 50
180.0000
 51
270.0000
  0
LINE
  8
20
 10
50.6105
 20
57.0000
 30
0.0000
 11
50.7517
 21
57.0000
 31
0.0000
  0
LINE
  8
20
 10
51.3629
 20
57.5644
 30
0.0000
 11
51.3629
 21
58.1289
 31
0.0000
  0
ARC
  8
20
 10
51.9273
 20
58.1289
 30
0.0000
 40
0.5644
 50
0.0000
 51
180.0000
  0
LINE
  8
20
 10
52.4918
 20
58.1289
 30
0.0000
 11
52.4918
 21
57.5644
 31
0.0000
  0
ARC
  8
20
 10
51.9273
 20
57.5644
 30
0.0000
 40
0.5644
 50
180.0000
 51
0.0000
  0
LINE
  8
20
 10
53.2407
 20
57.0000
 30
0.0000
 11
53.2407
 21
58.6933
 31
0.0000
  0
LINE
  8
20
 10
53.2407
 20
58.6933
 30
0.0000
 11
54.0873
 21
58.6933
 31
0.0000
  0
LINE
  8
20
 10
54.0873
 20
58.6933
 30
0.0000
 11
54.0873
 21
58.4111
 31
0.0000
  0
LINE
  8
20
 10
54.6406
 20
57.0000
 30
0.0000
 11
54.6406
 21
57.1411
 31
0.0000
  0
LINE
  8
20
 10
54.6406
 20
57.1411
 30
0.0000
 11
54.7817
 21
57.1411
 31
0.0000
  0
LINE
  8
20
 10
54.7817
 20
57.1411
 30
0.0000
 11
54.7817
 21
57.0000
 31
0.0000
  0
LINE
  8
20
 10
54.7817
 20
57.0000
 30
0.0000
 11
54.6406
 21
57.0000
 31
0.0000
  0
LINE
  8
20
 10
55.4690
 20
57.5644
 30
0.0000
 11
55.4690
 21
58.1289
 31
0.0000
  0
ARC
  8
20
 10
56.0335
 20
58.1289
 30
0.0000
 40
0.5644
 50
0.0000
 51
180.0000
  0
LINE
  8
20
 10
56.5979
 20
58.1289
 30
0.0000
 11
56.5979
 21
57.5644
 31
0.0000
  0
ARC
  8
20
 10
56.0335
 20
57.5644
 30
0.0000
 40
0.5644
 50
180.0000
 51
0.0000
  0
LINE
  8
20
 10
57.3468
 20
57.0000
 30
0.0000
 11
57.3468
 21
58.6933
 31
0.0000
  0
LINE
  8
20
 10
57.3468
 20
58.6933
 30
0.0000
 11
58.1935
 21
58.6933
 31
0.0000
  0
LINE
  8
20
 10
58.1935
 20
58.6933
 30
0.0000
 11
58.1935
 21
58.4111
 31
0.0000
  0
LINE
  8
20
 10
59.8700
 20
57.0000
 30
0.0000
 11
59.1644
 21
57.0000
 31
0.0000
  0
ARC
  8
20
 10
59.1644
 20
57.4233
 30
0.0000
 40
0.4233
 50
180.0000
 51
270.0000
  0
LINE
  8
20
 10
58.7411
 20
57.4233
 30
0.0000
 11
58.7411
 21
58.2700
 31
0.0000
  0
ARC
  8
20
 10
59.1644
 20
58.2700
 30
0.0000
 40
0.4233
 50
90.0000
 51
180.0000
  0
LINE
  8
20
 10
59.1644
 20
58.6933
 30
0.0000
 11
59.8700
 21
58.6933
 31
0.0000
  0
LINE
  8
20
 10
59.8700
 20
58.6933
 30
0.0000
 11
59.8700
 21
56.5767
 31
0.0000
  0
ARC
  8
20
 10
59.4466
 20
56.5767
 30
0.0000
 40
0.4233
 50
270.0004
 51
360.0000
  0
LINE
  8
20
 10
59.4466
 20
56.1533
 30
0.0000
 11
58.8822
 21
56.1533
 31
0.0000
  0
LINE
  8
20
 10
68.4292
 20
57.0000
 30
0.0000
 11
67.7237
 21
57.0000
 31
0.0000
  0
ARC
  8
20
 10
67.7237
 20
57.4233
 30
0.0000
 40
0.4233
 50
180.0000
 51
270.0000
  0
LINE
  8
20
 10
67.3004
 20
57.4233
 30
0.0000
 11
67.3004
 21
58.1289
 31
0.0000
  0
ARC
  8
20
 10
67.8648
 20
58.1289
 30
0.0000
 40
0.5644
 50
0.0000
 51
180.0000
  0
LINE
  8
20
 10
68.4292
 20
58.1289
 30
0.0000
 11
68.4292
 21
57.8467
 31
0.0000
  0
LINE
  8
20
 10
68.4292
 20
57.8467
 30
0.0000
 11
67.3004
 21
57.8467
 31
0.0000
  0
LINE
  8
20
 10
69.1756
 20
57.0000
 30
0.0000
 11
69.1756
 21
58.6933
 31
0.0000
  0
LINE
  8
20
 10
69.1756
 20
58.6933
 30
0.0000
 11
70.4456
 21
58.6933
 31
0.0000
  0
ARC
  8
20
 10
70.4456
 20
58.2700
 30
0.0000
 40
0.4233
 50
0.0000
 51
90.0000
  0
LINE
  8
20
 10
70.8689
 20
58.2700
 30
0.0000
 11
70.8689
 21
57.0000
 31
0.0000
  0
LINE
  8
20
 10
70.0223
 20
57.0000
 30
0.0000
 11
70.0223
 21
58.6933
 31
0.0000
  0
LINE
  8
20
 10
71.6153
 20
57.5644
 30
0.0000
 11
71.6153
 21
58.1289
 31
0.0000
  0
ARC
  8
20
 10
72.1797
 20
58.1289
 30
0.0000
 40
0.5644
 50
0.0000
 51
180.0000
  0
LINE
  8
20
 10
72.7442
 20
58.1289
 30
0.0000
 11
72.7442
 21
57.5644
 31
0.0000
  0
ARC
  8
20
 10
72.1797
 20
57.5644
 30
0.0000
 40
0.5644
 50
180.0000
 51
0.0000
  0
LINE
  8
20
 10
73.4944
 20
57.0000
 30
0.0000
 11
73.4944
 21
58.6933
 31
0.0000
  0
LINE
  8
20
 10
73.4944
 20
58.6933
 30
0.0000
 11
74.1999
 21
58.6933
 31
0.0000
  0
ARC
  8
20
 10
74.1999
 20
58.2700
 30
0.0000
 40
0.4233
 50
0.0004
 51
90.0000
  0
LINE
  8
20
 10
74.6233
 20
58.2700
 30
0.0000
 11
74.6233
 21
57.0000
 31
0.0000
  0
LINE
  8
20
 10
75.9379
 20
57.0000
 30
0.0000
 11
75.9379
 21
59.5400
 31
0.0000
  0
LINE
  8
20
 10
75.2324
 20
59.5400
 30
0.0000
 11
76.6435
 21
59.5400
 31
0.0000
  0
LINE
  8
20
 10
77.1134
 20
57.0000
 30
0.0000
 11
78.2423
 21
58.6933
 31
0.0000
  0
LINE
  8
20
 10
77.1134
 20
58.6933
 30
0.0000
 11
78.2423
 21
57.0000
 31
0.0000
  0
LINE
  8
20
 10
79.8238
 20
59.5400
 30
0.0000
 11
80.6705
 21
57.0000
 31
0.0000
  0
LINE
  8
20
 10
80.6705
 20
57.0000
 30
0.0000
 11
81.5171
 21
59.5400
 31
0.0000
  0
LINE
  8
20
 10
82.6172
 20
59.5400
 30
0.0000
 11
82.0528
 21
57.5644
 31
0.0000
  0
LINE
  8
20
 10
82.0528
 20
57.5644
 30
0.0000
 11
83.4639
 21
57.5644
 31
0.0000
  0
LINE
  8
20
 10
83.0406
 20
58.1289
 30
0.0000
 11
83.0406
 21
57.0000
 31
0.0000
  0
LINE
  8
20
 10
30.8864
 20
72.7653
 30
0.0000
 11
30.8864
 21
73.1294
 31
0.0000
  0
LINE
  8
20
 10
30.8864
 20
73.1294
 30
0.0000
 11
32.1000
 21
73.1294
 31
0.0000
  0
LINE
  8
20
 10
32.1000
 20
73.1294
 30
0.0000
 11
32.1000
 21
72.4012
 31
0.0000
  0
ARC
  8
20
 10
31.6146
 20
72.4012
 30
0.0000
 40
0.4854
 50
270.0004
 51
360.0000
  0
LINE
  8
20
 10
31.6146
 20
71.9158
 30
0.0000
 11
30.4010
 21
71.9158
 31
0.0000
  0
ARC
  8
20
 10
30.4010
 20
72.4012
 30
0.0000
 40
0.4854
 50
180.0004
 51
270.0000
  0
LINE
  8
20
 10
29.9156
 20
72.4012
 30
0.0000
 11
29.9156
 21
73.1294
 31
0.0000
  0
LINE
  8
20
 10
32.1000
 20
73.8932
 30
0.0000
 11
29.9156
 21
73.8932
 31
0.0000
  0
LINE
  8
20
 10
29.9156
 20
73.8932
 30
0.0000
 11
32.1000
 21
75.1068
 31
0.0000
  0
LINE
  8
20
 10
32.1000
 20
75.1068
 30
0.0000
 11
29.9156
 21
75.1068
 31
0.0000
  0
LINE
  8
20
 10
32.1000
 20
75.8706
 30
0.0000
 11
29.9156
 21
75.8706
 31
0.0000
  0
LINE
  8
20
 10
29.9156
 20
75.8706
 30
0.0000
 11
29.9156
 21
76.4774
 31
0.0000
  0
ARC
  8
20
 10
30.5224
 20
76.4774
 30
0.0000
 40
0.6068
 50
89.9997
 51
180.0000
  0
LINE
  8
20
 10
30.5224
 20
77.0842
 30
0.0000
 11
31.4932
 21
77.0842
 31
0.0000
  0
ARC
  8
20
 10
31.4932
 20
76.4774
 30
0.0000
 40
0.6068
 50
0.0000
 51
90.0000
  0
LINE
  8
20
 10
32.1000
 20
76.4774
 30
0.0000
 11
32.1000
 21
75.8706
 31
0.0000
  0
LINE
  8
20
 10
36.0000
 20
71.6703
 30
0.0000
 11
33.8156
 21
71.6703
 31
0.0000
  0
LINE
  8
20
 10
33.8156
 20
71.6703
 30
0.0000
 11
33.8156
 21
72.2771
 31
0.0000
  0
ARC
  8
20
 10
34.4224
 20
72.2771
 30
0.0000
 40
0.6068
 50
89.9997
 51
180.0000
  0
LINE
  8
20
 10
34.4224
 20
72.8838
 30
0.0000
 11
35.3932
 21
72.8838
 31
0.0000
  0
ARC
  8
20
 10
35.3932
 20
72.2771
 30
0.0000
 40
0.6068
 50
0.0000
 51
90.0000
  0
LINE
  8
20
 10
36.0000
 20
72.2771
 30
0.0000
 11
36.0000
 21
71.6703
 31
0.0000
  0
LINE
  8
20
 10
36.0000
 20
73.4646
 30
0.0000
 11
33.8156
 21
74.1927
 31
0.0000
  0
LINE
  8
20
 10
33.8156
 20
74.1927
 30
0.0000
 11
36.0000
 21
74.9208
 31
0.0000
  0
LINE
  8
20
 10
35.4539
 20
74.7388
 30
0.0000
 11
35.4539
 21
73.6466
 31
0.0000
  0
LINE
  8
20
 10
36.0000
 20
75.9229
 30
0.0000
 11
33.8156
 21
75.9229
 31
0.0000
  0
LINE
  8
20
 10
33.8156
 20
75.3162
 30
0.0000
 11
33.8156
 21
76.5297
 31
0.0000
  0
LINE
  8
20
 10
64.0000
 20
71.4394
 30
0.0000
 11
64.0000
 21
72.0462
 31
0.0000
  0
ARC
  8
20
 10
63.3932
 20
72.0462
 30
0.0000
 40
0.6068
 50
0.0000
 51
180.0000
  0
LINE
  8
20
 10
61.8156
 20
71.4394
 30
0.0000
 11
61.8156
 21
72.1675
 31
0.0000
  0
ARC
  8
20
 10
62.3010
 20
72.1675
 30
0.0000
 40
0.4854
 50
0.0000
 51
180.0000
  0
LINE
  8
20
 10
62.7864
 20
72.1675
 30
0.0000
 11
62.7864
 21
71.6821
 31
0.0000
  0
LINE
  8
20
 10
61.8156
 20
73.1719
 30
0.0000
 11
64.0000
 21
73.9000
 31
0.0000
  0
LINE
  8
20
 10
64.0000
 20
73.9000
 30
0.0000
 11
61.8156
 21
74.6281
 31
0.0000
  0
LINE
  8
20
 10
64.0000
 20
75.1471
 30
0.0000
 11
64.0000
 21
75.7538
 31
0.0000
  0
ARC
  8
20
 10
63.3932
 20
75.7538
 30
0.0000
 40
0.6068
 50
0.0000
 51
180.0000
  0
LINE
  8
20
 10
61.8156
 20
75.1471
 30
0.0000
 11
61.8156
 21
75.8752
 31
0.0000
  0
ARC
  8
20
 10
62.3010
 20
75.8752
 30
0.0000
 40
0.4854
 50
0.0000
 51
180.0000
  0
LINE
  8
20
 10
62.7864
 20
75.8752
 30
0.0000
 11
62.7864
 21
75.3898
 31
0.0000
  0
LINE
  8
20
 10
60.0000
 20
71.6703
 30
0.0000
 11
57.8156
 21
71.6703
 31
0.0000
  0
LINE
  8
20
 10
57.8156
 20
71.6703
 30
0.0000
 11
57.8156
 21
72.2771
 31
0.0000
  0
ARC
  8
20
 10
58.4224
 20
72.2771
 30
0.0000
 40
0.6068
 50
89.9997
 51
180.0000
  0
LINE
  8
20
 10
58.4224
 20
72.8838
 30
0.0000
 11
59.3932
 21
72.8838
 31
0.0000
  0
ARC
  8
20
 10
59.3932
 20
72.2771
 30
0.0000
 40
0.6068
 50
0.0000
 51
90.0000
  0
LINE
  8
20
 10
60.0000
 20
72.2771
 30
0.0000
 11
60.0000
 21
71.6703
 31
0.0000
  0
LINE
  8
20
 10
60.0000
 20
73.4646
 30
0.0000
 11
57.8156
 21
74.1927
 31
0.0000
  0
LINE
  8
20
 10
57.8156
 20
74.1927
 30
0.0000
 11
60.0000
 21
74.9208
 31
0.0000
  0
LINE
  8
20
 10
59.4539
 20
74.7388
 30
0.0000
 11
59.4539
 21
73.6466
 31
0.0000
  0
LINE
  8
20
 10
60.0000
 20
75.9229
 30
0.0000
 11
57.8156
 21
75.9229
 31
0.0000
  0
LINE
  8
20
 10
57.8156
 20
75.3162
 30
0.0000
 11
57.8156
 21
76.5297
 31
0.0000
  0
LINE
  8
20
 10
54.8864
 20
72.7653
 30
0.0000
 11
54.8864
 21
73.1294
 31
0.0000
  0
LINE
  8
20
 10
54.8864
 20
73.1294
 30
0.0000
 11
56.1000
 21
73.1294
 31
0.0000
  0
LINE
  8
20
 10
56.1000
 20
73.1294
 30
0.0000
 11
56.1000
 21
72.4012
 31
0.0000
  0
ARC
  8
20
 10
55.6146
 20
72.4012
 30
0.0000
 40
0.4854
 50
270.0004
 51
360.0000
  0
LINE
  8
20
 10
55.6146
 20
71.9158
 30
0.0000
 11
54.4010
 21
71.9158
 31
0.0000
  0
ARC
  8
20
 10
54.4010
 20
72.4012
 30
0.0000
 40
0.4854
 50
180.0004
 51
270.0000
  0
LINE
  8
20
 10
53.9156
 20
72.4012
 30
0.0000
 11
53.9156
 21
73.1294
 31
0.0000
  0
LINE
  8
20
 10
56.1000
 20
73.8932
 30
0.0000
 11
53.9156
 21
73.8932
 31
0.0000
  0
LINE
  8
20
 10
53.9156
 20
73.8932
 30
0.0000
 11
56.1000
 21
75.1068
 31
0.0000
  0
LINE
  8
20
 10
56.1000
 20
75.1068
 30
0.0000
 11
53.9156
 21
75.1068
 31
0.0000
  0
LINE
  8
20
 10
56.1000
 20
75.8706
 30
0.0000
 11
53.9156
 21
75.8706
 31
0.0000
  0
LINE
  8
20
 10
53.9156
 20
75.8706
 30
0.0000
 11
53.9156
 21
76.4774
 31
0.0000
  0
ARC
  8
20
 10
54.5224
 20
76.4774
 30
0.0000
 40
0.6068
 50
89.9997
 51
180.0000
  0
LINE
  8
20
 10
54.5224
 20
77.0842
 30
0.0000
 11
55.4932
 21
77.0842
 31
0.0000
  0
ARC
  8
20
 10
55.4932
 20
76.4774
 30
0.0000
 40
0.6068
 50
0.0000
 51
90.0000
  0
LINE
  8
20
 10
56.1000
 20
76.4774
 30
0.0000
 11
56.1000
 21
75.8706
 31
0.0000
  0
LINE
  8
20
 10
52.0000
 20
71.4394
 30
0.0000
 11
52.0000
 21
72.0462
 31
0.0000
  0
ARC
  8
20
 10
51.3932
 20
72.0462
 30
0.0000
 40
0.6068
 50
0.0000
 51
180.0000
  0
LINE
  8
20
 10
49.8156
 20
71.4394
 30
0.0000
 11
49.8156
 21
72.1675
 31
0.0000
  0
ARC
  8
20
 10
50.3010
 20
72.1675
 30
0.0000
 40
0.4854
 50
0.0000
 51
180.0000
  0
LINE
  8
20
 10
50.7864
 20
72.1675
 30
0.0000
 11
50.7864
 21
71.6821
 31
0.0000
  0
LINE
  8
20
 10
49.8156
 20
73.1719
 30
0.0000
 11
52.0000
 21
73.9000
 31
0.0000
  0
LINE
  8
20
 10
52.0000
 20
73.9000
 30
0.0000
 11
49.8156
 21
74.6281
 31
0.0000
  0
LINE
  8
20
 10
52.0000
 20
75.1471
 30
0.0000
 11
52.0000
 21
75.7538
 31
0.0000
  0
ARC
  8
20
 10
51.3932
 20
75.7538
 30
0.0000
 40
0.6068
 50
0.0000
 51
180.0000
  0
LINE
  8
20
 10
49.8156
 20
75.1471
 30
0.0000
 11
49.8156
 21
75.8752
 31
0.0000
  0
ARC
  8
20
 10
50.3010
 20
75.8752
 30
0.0000
 40
0.4854
 50
0.0000
 51
180.0000
  0
LINE
  8
20
 10
50.7864
 20
75.8752
 30
0.0000
 11
50.7864
 21
75.3898
 31
0.0000
  0
LINE
  8
20
 10
48.0000
 20
71.6703
 30
0.0000
 11
45.8156
 21
71.6703
 31
0.0000
  0
LINE
  8
20
 10
45.8156
 20
71.6703
 30
0.0000
 11
45.8156
 21
72.2771
 31
0.0000
  0
ARC
  8
20
 10
46.4224
 20
72.2771
 30
0.0000
 40
0.6068
 50
89.9997
 51
180.0000
  0
LINE
  8
20
 10
46.4224
 20
72.8838
 30
0.0000
 11
47.3932
 21
72.8838
 31
0.0000
  0
ARC
  8
20
 10
47.3932
 20
72.2771
 30
0.0000
 40
0.6068
 50
0.0000
 51
90.0000
  0
LINE
  8
20
 10
48.0000
 20
72.2771
 30
0.0000
 11
48.0000
 21
71.6703
 31
0.0000
  0
LINE
  8
20
 10
48.0000
 20
73.4646
 30
0.0000
 11
45.8156
 21
74.1927
 31
0.0000
  0
LINE
  8
20
 10
45.8156
 20
74.1927
 30
0.0000
 11
48.0000
 21
74.9208
 31
0.0000
  0
LINE
  8
20
 10
47.4539
 20
74.7388
 30
0.0000
 11
47.4539
 21
73.6466
 31
0.0000
  0
LINE
  8
20
 10
48.0000
 20
75.9229
 30
0.0000
 11
45.8156
 21
75.9229
 31
0.0000
  0
LINE
  8
20
 10
45.8156
 20
75.3162
 30
0.0000
 11
45.8156
 21
76.5297
 31
0.0000
  0
LINE
  8
20
 10
40.1000
 20
71.6394
 30
0.0000
 11
40.1000
 21
72.2462
 31
0.0000
  0
ARC
  8
20
 10
39.4932
 20
72.2462
 30
0.0000
 40
0.6068
 50
0.0000
 51
180.0000
  0
LINE
  8
20
 10
37.9156
 20
71.6394
 30
0.0000
 11
37.9156
 21
72.3675
 31
0.0000
  0
ARC
  8
20
 10
38.4010
 20
72.3675
 30
0.0000
 40
0.4854
 50
0.0000
 51
180.0000
  0
LINE
  8
20
 10
38.8864
 20
72.3675
 30
0.0000
 11
38.8864
 21
71.8821
 31
0.0000
  0
LINE
  8
20
 10
37.9156
 20
73.3719
 30
0.0000
 11
40.1000
 21
74.1000
 31
0.0000
  0
LINE
  8
20
 10
40.1000
 20
74.1000
 30
0.0000
 11
37.9156
 21
74.8281
 31
0.0000
  0
LINE
  8
20
 10
40.1000
 20
75.3471
 30
0.0000
 11
40.1000
 21
75.9538
 31
0.0000
  0
ARC
  8
20
 10
39.4932
 20
75.9538
 30
0.0000
 40
0.6068
 50
0.0000
 51
180.0000
  0
LINE
  8
20
 10
37.9156
 20
75.3471
 30
0.0000
 11
37.9156
 21
76.0752
 31
0.0000
  0
ARC
  8
20
 10
38.4010
 20
76.0752
 30
0.0000
 40
0.4854
 50
0.0000
 51
180.0000
  0
LINE
  8
20
 10
38.8864
 20
76.0752
 30
0.0000
 11
38.8864
 21
75.5898
 31
0.0000
  0
LINE
  8
20
 10
42.8864
 20
72.7653
 30
0.0000
 11
42.8864
 21
73.1294
 31
0.0000
  0
LINE
  8
20
 10
42.8864
 20
73.1294
 30
0.0000
 11
44.1000
 21
73.1294
 31
0.0000
  0
LINE
  8
20
 10
44.1000
 20
73.1294
 30
0.0000
 11
44.1000
 21
72.4012
 31
0.0000
  0
ARC
  8
20
 10
43.6146
 20
72.4012
 30
0.0000
 40
0.4854
 50
270.0004
 51
360.0000
  0
LINE
  8
20
 10
43.6146
 20
71.9158
 30
0.0000
 11
42.4010
 21
71.9158
 31
0.0000
  0
ARC
  8
20
 10
42.4010
 20
72.4012
 30
0.0000
 40
0.4854
 50
180.0004
 51
270.0000
  0
LINE
  8
20
 10
41.9156
 20
72.4012
 30
0.0000
 11
41.9156
 21
73.1294
 31
0.0000
  0
LINE
  8
20
 10
44.1000
 20
73.8932
 30
0.0000
 11
41.9156
 21
73.8932
 31
0.0000
  0
LINE
  8
20
 10
41.9156
 20
73.8932
 30
0.0000
 11
44.1000
 21
75.1068
 31
0.0000
  0
LINE
  8
20
 10
44.1000
 20
75.1068
 30
0.0000
 11
41.9156
 21
75.1068
 31
0.0000
  0
LINE
  8
20
 10
44.1000
 20
75.8706
 30
0.0000
 11
41.9156
 21
75.8706
 31
0.0000
  0
LINE
  8
20
 10
41.9156
 20
75.8706
 30
0.0000
 11
41.9156
 21
76.4774
 31
0.0000
  0
ARC
  8
20
 10
42.5224
 20
76.4774
 30
0.0000
 40
0.6068
 50
89.9997
 51
180.0000
  0
LINE
  8
20
 10
42.5224
 20
77.0842
 30
0.0000
 11
43.4932
 21
77.0842
 31
0.0000
  0
ARC
  8
20
 10
43.4932
 20
76.4774
 30
0.0000
 40
0.6068
 50
0.0000
 51
90.0000
  0
LINE
  8
20
 10
44.1000
 20
76.4774
 30
0.0000
 11
44.1000
 21
75.8706
 31
0.0000
  0
LINE
  8
20
 10
86.1750
 20
79.0000
 30
0.0000
 11
85.6105
 21
77.0244
 31
0.0000
  0
LINE
  8
20
 10
85.6105
 20
77.0244
 30
0.0000
 11
87.0216
 21
77.0244
 31
0.0000
  0
LINE
  8
20
 10
86.5983
 20
77.5889
 30
0.0000
 11
86.5983
 21
76.4600
 31
0.0000
  0
LINE
  8
20
 10
87.6984
 20
76.4600
 30
0.0000
 11
88.4039
 21
76.4600
 31
0.0000
  0
ARC
  8
20
 10
88.4039
 20
77.1656
 30
0.0000
 40
0.7056
 50
270.0000
 51
90.0000
  0
LINE
  8
20
 10
87.6984
 20
79.0000
 30
0.0000
 11
88.5451
 21
79.0000
 31
0.0000
  0
ARC
  8
20
 10
88.5451
 20
78.4356
 30
0.0000
 40
0.5644
 50
270.0000
 51
90.0000
  0
LINE
  8
20
 10
88.5451
 20
77.8711
 30
0.0000
 11
87.9806
 21
77.8711
 31
0.0000
  0
LINE
  8
20
 10
89.7863
 20
76.4600
 30
0.0000
 11
90.4918
 21
76.4600
 31
0.0000
  0
ARC
  8
20
 10
90.4918
 20
77.1656
 30
0.0000
 40
0.7056
 50
270.0000
 51
90.0000
  0
LINE
  8
20
 10
89.7863
 20
79.0000
 30
0.0000
 11
90.6329
 21
79.0000
 31
0.0000
  0
ARC
  8
20
 10
90.6329
 20
78.4356
 30
0.0000
 40
0.5644
 50
270.0000
 51
90.0000
  0
LINE
  8
20
 10
90.6329
 20
77.8711
 30
0.0000
 11
90.0685
 21
77.8711
 31
0.0000
  0
LINE
  8
20
 10
91.9418
 20
76.4600
 30
0.0000
 11
91.9418
 21
79.0000
 31
0.0000
  0
LINE
  8
20
 10
91.9418
 20
79.0000
 30
0.0000
 11
92.7885
 21
77.5889
 31
0.0000
  0
LINE
  8
20
 10
92.7885
 20
77.5889
 30
0.0000
 11
93.6352
 21
79.0000
 31
0.0000
  0
LINE
  8
20
 10
93.6352
 20
79.0000
 30
0.0000
 11
93.6352
 21
76.4600
 31
0.0000
  0
LINE
  8
20
 10
94.4511
 20
76.4600
 30
0.0000
 11
94.4511
 21
79.0000
 31
0.0000
  0
LINE
  8
20
 10
94.4511
 20
78.1533
 30
0.0000
 11
95.1567
 21
78.1533
 31
0.0000
  0
ARC
  8
20
 10
95.1567
 20
77.7300
 30
0.0000
 40
0.4233
 50
0.0004
 51
90.0000
  0
LINE
  8
20
 10
95.5800
 20
77.7300
 30
0.0000
 11
95.5800
 21
76.4600
 31
0.0000
  0
LINE
  8
20
 10
96.2606
 20
78.1533
 30
0.0000
 11
97.3895
 21
78.1533
 31
0.0000
  0
LINE
  8
20
 10
97.3895
 20
78.1533
 30
0.0000
 11
96.2606
 21
76.4600
 31
0.0000
  0
LINE
  8
20
 10
96.2606
 20
76.4600
 30
0.0000
 11
97.3895
 21
76.4600
 31
0.0000
  0
POLYLINE
  8
20
 66
1
 10
0.0000
 20
0.0000
 30
0.0000
 40
0.0010
 41
0.0010
 70
0
  0
VERTEX
  8
20
 10
6.0000
 20
24.3500
 30
0.0000
 42
1.0000
  0
VERTEX
  8
20
 10
6.0000
 20
28.0500
 30
0.0000
 42
1.0000
  0
VERTEX
  8
20
 10
6.0000
 20
24.3500
 30
0.0000
  0
SEQEND
  8
0
  0
POLYLINE
  8
20
 66
1
 10
0.0000
 20
0.0000
 30
0.0000
 40
0.0010
 41
0.0010
 70
0
  0
VERTEX
  8
20
 10
102.5000
 20
24.3500
 30
0.0000
 42
1.0000
  0
VERTEX
  8
20
 10
102.5000
 20
28.0500
 30
0.0000
 42
1.0000
  0
VERTEX
  8
20
 10
102.5000
 20
24.3500
 30
0.0000
  0
SEQEND
  8
0
  0
POLYLINE
  8
20
 66
1
 10
0.0000
 20
0.0000
 30
0.0000
 40
0.0010
 41
0.0010
 70
0
  0
VERTEX
  8
20
 10
6.0000
 20
2.8500
 30
0.0000
 42
1.0000
  0
VERTEX
  8
20
 10
6.0000
 20
6.5500
 30
0.0000
 42
1.0000
  0
VERTEX
  8
20
 10
6.0000
 20
2.8500
 30
0.0000
  0
SEQEND
  8
0
  0
POLYLINE
  8
20
 66
1
 10
0.0000
 20
0.0000
 30
0.0000
 40
0.0010
 41
0.0010
 70
0
  0
VERTEX
  8
20
 10
102.5000
 20
2.8500
 30
0.0000
 42
1.0000
  0
VERTEX
  8
20
 10
102.5000
 20
6.5500
 30
0.0000
 42
1.0000
  0
VERTEX
  8
20
 10
102.5000
 20
2.8500
 30
0.0000
  0
SEQEND
  8
0
  0
POLYLINE
  8
20
 66
1
 10
0.0000
 20
0.0000
 30
0.0000
 40
0.0010
 41
0.0010
 70
0
  0
VERTEX
  8
20
 10
6.0000
 20
78.7500
 30
0.0000
 42
1.0000
  0
VERTEX
  8
20
 10
6.0000
 20
82.4500
 30
0.0000
 42
1.0000
  0
VERTEX
  8
20
 10
6.0000
 20
78.7500
 30
0.0000
  0
SEQEND
  8
0
  0
POLYLINE
  8
20
 66
1
 10
0.0000
 20
0.0000
 30
0.0000
 40
0.0010
 41
0.0010
 70
0
  0
VERTEX
  8
20
 10
102.5000
 20
78.7500
 30
0.0000
 42
1.0000
  0
VERTEX
  8
20
 10
102.5000
 20
82.4500
 30
0.0000
 42
1.0000
  0
VERTEX
  8
20
 10
102.5000
 20
78.7500
 30
0.0000
  0
SEQEND
  8
0
  0
POLYLINE
  8
20
 66
1
 10
0.0000
 20
0.0000
 30
0.0000
 40
0.0010
 41
0.0010
 70
0
  0
VERTEX
  8
20
 10
6.0000
 20
57.2500
 30
0.0000
 42
1.0000
  0
VERTEX
  8
20
 10
6.0000
 20
60.9500
 30
0.0000
 42
1.0000
  0
VERTEX
  8
20
 10
6.0000
 20
57.2500
 30
0.0000
  0
SEQEND
  8
0
  0
POLYLINE
  8
20
 66
1
 10
0.0000
 20
0.0000
 30
0.0000
 40
0.0010
 41
0.0010
 70
0
  0
VERTEX
  8
20
 10
102.5000
 20
57.3500
 30
0.0000
 42
1.0000
  0
VERTEX
  8
20
 10
102.5000
 20
61.0500
 30
0.0000
 42
1.0000
  0
VERTEX
  8
20
 10
102.5000
 20
57.3500
 30
0.0000
  0
SEQEND
  8
0
  0
POLYLINE
  8
20
 66
1
 10
0.0000
 20
0.0000
 30
0.0000
 40
0.0010
 41
0.0010
 70
0
  0
VERTEX
  8
20
 10
43.2500
 20
8.7000
 30
0.0000
 42
1.0000
  0
VERTEX
  8
20
 10
43.2500
 20
14.7000
 30
0.0000
 42
1.0000
  0
VERTEX
  8
20
 10
43.2500
 20
8.7000
 30
0.0000
  0
SEQEND
  8
0
  0
POLYLINE
  8
20
 66
1
 10
0.0000
 20
0.0000
 30
0.0000
 40
0.0010
 41
0.0010
 70
0
  0
VERTEX
  8
20
 10
56.2500
 20
8.7000
 30
0.0000
 42
1.0000
  0
VERTEX
  8
20
 10
56.2500
 20
14.7000
 30
0.0000
 42
1.0000
  0
VERTEX
  8
20
 10
56.2500
 20
8.7000
 30
0.0000
  0
SEQEND
  8
0
  0
POLYLINE
  8
20
 66
1
 10
0.0000
 20
0.0000
 30
0.0000
 40
0.0010
 41
0.0010
 70
0
  0
VERTEX
  8
20
 10
69.2500
 20
8.7000
 30
0.0000
 42
1.0000
  0
VERTEX
  8
20
 10
69.2500
 20
14.7000
 30
0.0000
 42
1.0000
  0
VERTEX
  8
20
 10
69.2500
 20
8.7000
 30
0.0000
  0
SEQEND
  8
0
  0
POLYLINE
  8
20
 66
1
 10
0.0000
 20
0.0000
 30
0.0000
 40
0.0010
 41
0.0010
 70
0
  0
VERTEX
  8
20
 10
82.2500
 20
8.7000
 30
0.0000
 42
1.0000
  0
VERTEX
  8
20
 10
82.2500
 20
14.7000
 30
0.0000
 42
1.0000
  0
VERTEX
  8
20
 10
82.2500
 20
8.7000
 30
0.0000
  0
SEQEND
  8
0
  0
POLYLINE
  8
20
 66
1
 10
0.0000
 20
0.0000
 30
0.0000
 40
0.0010
 41
0.0010
 70
0
  0
VERTEX
  8
20
 10
95.2500
 20
8.7000
 30
0.0000
 42
1.0000
  0
VERTEX
  8
20
 10
95.2500
 20
14.7000
 30
0.0000
 42
1.0000
  0
VERTEX
  8
20
 10
95.2500
 20
8.7000
 30
0.0000
  0
SEQEND
  8
0
  0
POLYLINE
  8
20
 66
1
 10
0.0000
 20
0.0000
 30
0.0000
 40
0.0010
 41
0.0010
 70
0
  0
VERTEX
  8
20
 10
30.2500
 20
8.7000
 30
0.0000
 42
1.0000
  0
VERTEX
  8
20
 10
30.2500
 20
14.7000
 30
0.0000
 42
1.0000
  0
VERTEX
  8
20
 10
30.2500
 20
8.7000
 30
0.0000
  0
SEQEND
  8
0
  0
POLYLINE
  8
20
 66
1
 10
0.0000
 20
0.0000
 30
0.0000
 40
0.0010
 41
0.0010
 70
0
  0
VERTEX
  8
20
 10
91.2500
 20
66.8500
 30
0.0000
 42
1.0000
  0
VERTEX
  8
20
 10
91.2500
 20
73.9500
 30
0.0000
 42
1.0000
  0
VERTEX
  8
20
 10
91.2500
 20
66.8500
 30
0.0000
  0
SEQEND
  8
0
  0
ENDSEC
  0
EOF
