  0
SECTION
  2
HEADER
  9
$ACADVER
  1
AC1009
  9
$FILLMODE
 70
1
  9
$EXTMIN
 10
-0.0005
 20
-0.0005
 30
0.0000
  9
$EXTMAX
 10
108.5005
 20
84.8864
 30
0.0000
  0
ENDSEC
  0
SECTION
  2
TABLES
  0
TABLE
  2
LTYPE
 70
1
  0
LTYPE
  2
CONTINUOUS
 70
64
  3
Solid line
 72
65
 73
0
 40
0
  0
ENDTAB
  0
TABLE
  2
LAYER
 70
255
  0
LAYER
  2
1
 70
64
 62
12
  6
CONTINUOUS
  0
LAYER
  2
16
 70
64
 62
132
  6
CONTINUOUS
  0
LAYER
  2
17
 70
64
 62
110
  6
CONTINUOUS
  0
LAYER
  2
18
 70
64
 62
110
  6
CONTINUOUS
  0
LAYER
  2
19
 70
64
 62
53
  6
CONTINUOUS
  0
LAYER
  2
20
 70
64
 62
31
  6
CONTINUOUS
  0
LAYER
  2
21
 70
64
 62
253
  6
CONTINUOUS
  0
LAYER
  2
22
 70
64
 62
253
  6
CONTINUOUS
  0
LAYER
  2
23
 70
64
 62
53
  6
CONTINUOUS
  0
LAYER
  2
24
 70
64
 62
53
  6
CONTINUOUS
  0
LAYER
  2
25
 70
64
 62
253
  6
CONTINUOUS
  0
LAYER
  2
26
 70
64
 62
253
  6
CONTINUOUS
  0
LAYER
  2
27
 70
64
 62
253
  6
CONTINUOUS
  0
LAYER
  2
28
 70
64
 62
253
  6
CONTINUOUS
  0
LAYER
  2
39
 70
64
 62
12
  6
CONTINUOUS
  0
LAYER
  2
40
 70
64
 62
132
  6
CONTINUOUS
  0
LAYER
  2
41
 70
64
 62
12
  6
CONTINUOUS
  0
LAYER
  2
42
 70
64
 62
132
  6
CONTINUOUS
  0
LAYER
  2
43
 70
64
 62
110
  6
CONTINUOUS
  0
LAYER
  2
48
 70
64
 62
253
  6
CONTINUOUS
  0
LAYER
  2
49
 70
64
 62
253
  6
CONTINUOUS
  0
LAYER
  2
50
 70
64
 62
1
  6
CONTINUOUS
  0
LAYER
  2
51
 70
64
 62
253
  6
CONTINUOUS
  0
LAYER
  2
52
 70
64
 62
253
  6
CONTINUOUS
  0
LAYER
  2
108
 70
64
 62
253
  6
CONTINUOUS
  0
LAYER
  2
109
 70
64
 62
253
  6
CONTINUOUS
  0
LAYER
  2
110
 70
64
 62
253
  6
CONTINUOUS
  0
LAYER
  2
111
 70
64
 62
253
  6
CONTINUOUS
  0
LAYER
  2
112
 70
64
 62
253
  6
CONTINUOUS
  0
LAYER
  2
113
 70
64
 62
12
  6
CONTINUOUS
  0
LAYER
  2
118
 70
64
 62
12
  6
CONTINUOUS
  0
LAYER
  2
120
 70
64
 62
253
  6
CONTINUOUS
  0
LAYER
  2
123
 70
64
 62
253
  6
CONTINUOUS
  0
LAYER
  2
124
 70
64
 62
253
  6
CONTINUOUS
  0
LAYER
  2
125
 70
64
 62
253
  6
CONTINUOUS
  0
LAYER
  2
126
 70
64
 62
253
  6
CONTINUOUS
  0
LAYER
  2
127
 70
64
 62
253
  6
CONTINUOUS
  0
LAYER
  2
128
 70
64
 62
253
  6
CONTINUOUS
  0
LAYER
  2
129
 70
64
 62
253
  6
CONTINUOUS
  0
LAYER
  2
130
 70
64
 62
253
  6
CONTINUOUS
  0
LAYER
  2
131
 70
64
 62
253
  6
CONTINUOUS
  0
LAYER
  2
132
 70
64
 62
253
  6
CONTINUOUS
  0
LAYER
  2
150
 70
64
 62
253
  6
CONTINUOUS
  0
LAYER
  2
152
 70
64
 62
253
  6
CONTINUOUS
  0
LAYER
  2
156
 70
64
 62
190
  6
CONTINUOUS
  0
LAYER
  2
157
 70
64
 62
155
  6
CONTINUOUS
  0
LAYER
  2
199
 70
64
 62
253
  6
CONTINUOUS
  0
LAYER
  2
225
 70
64
 62
253
  6
CONTINUOUS
  0
LAYER
  2
226
 70
64
 62
253
  6
CONTINUOUS
  0
LAYER
  2
227
 70
64
 62
253
  6
CONTINUOUS
  0
LAYER
  2
228
 70
64
 62
253
  6
CONTINUOUS
  0
LAYER
  2
229
 70
64
 62
253
  6
CONTINUOUS
  0
LAYER
  2
230
 70
64
 62
253
  6
CONTINUOUS
  0
LAYER
  2
231
 70
64
 62
40
  6
CONTINUOUS
  0
LAYER
  2
232
 70
64
 62
40
  6
CONTINUOUS
  0
LAYER
  2
233
 70
64
 62
40
  6
CONTINUOUS
  0
LAYER
  2
248
 70
64
 62
253
  6
CONTINUOUS
  0
LAYER
  2
249
 70
64
 62
253
  6
CONTINUOUS
  0
LAYER
  2
255
 70
64
 62
253
  6
CONTINUOUS
  0
ENDTAB
  0
ENDSEC
  0
SECTION
  2
BLOCKS
  0
BLOCK
  8
0
  2
RECT
 70
64
 10
0.0000
 20
0.0000
 30
0.0000
  3
RECT
  0
SOLID
  8
0
 10
-0.5000
 20
-0.5000
 30
0.0000
 11
0.5000
 21
-0.5000
 31
0.0000
 12
-0.5000
 22
0.5000
 32
0.0000
 13
0.5000
 23
0.5000
 33
0.0000
  0
ENDBLK
  8
0
  0
BLOCK
  8
0
  2
PIE
 70
64
 10
0.0000
 20
0.0000
 30
0.0000
  3
PIE
  0
POLYLINE
  8
0
 66
1
 10
0.0000
 20
0.0000
 30
0.0000
 40
0.5000
 41
0.5000
 70
0
  0
VERTEX
  8
0
 10
0.0000
 20
-0.2500
 30
0.0000
 42
1.0000
  0
VERTEX
  8
0
 10
0.0000
 20
0.2500
 30
0.0000
 42
1.0000
  0
VERTEX
  8
0
 10
0.0000
 20
-0.2500
 30
0.0000
  0
SEQEND
  8
0
  0
ENDBLK
  8
0
  0
BLOCK
  8
0
  2
OCTAGONP
 70
64
 10
0.0000
 20
0.0000
 30
0.0000
  3
OCTAGONP
  0
POLYLINE
  8
0
 66
1
 10
0.0000
 20
0.0000
 30
0.0000
 40
0.5000
 41
0.5000
 70
0
  0
VERTEX
  8
0
 10
-0.2500
 20
-0.1036
 30
0.0000
  0
VERTEX
  8
0
 10
-0.2500
 20
0.1036
 30
0.0000
  0
VERTEX
  8
0
 10
-0.1036
 20
0.2500
 30
0.0000
  0
VERTEX
  8
0
 10
0.1036
 20
0.2500
 30
0.0000
  0
VERTEX
  8
0
 10
0.2500
 20
0.1036
 30
0.0000
  0
VERTEX
  8
0
 10
0.2500
 20
-0.1036
 30
0.0000
  0
VERTEX
  8
0
 10
0.1036
 20
-0.2500
 30
0.0000
  0
VERTEX
  8
0
 10
-0.1036
 20
-0.2500
 30
0.0000
  0
VERTEX
  8
0
 10
-0.2500
 20
-0.1036
 30
0.0000
  0
VERTEX
  8
0
 10
-0.2500
 20
0.1036
 30
0.0000
  0
SEQEND
  8
0
  0
ENDBLK
  8
0
  0
BLOCK
  8
0
  2
SQUAREP
 70
64
 10
0.0000
 20
0.0000
 30
0.0000
  3
SQUAREP
  0
SOLID
  8
0
 10
-0.5000
 20
-0.5000
 30
0.0000
 11
0.5000
 21
-0.5000
 31
0.0000
 12
-0.5000
 22
0.5000
 32
0.0000
 13
0.5000
 23
0.5000
 33
0.0000
  0
ENDBLK
  8
0
  0
BLOCK
  8
0
  2
ROUNDP
 70
64
 10
0.0000
 20
0.0000
 30
0.0000
  3
ROUNDP
  0
POLYLINE
  8
0
 66
1
 10
0.0000
 20
0.0000
 30
0.0000
 40
0.5000
 41
0.5000
 70
0
  0
VERTEX
  8
0
 10
0.0000
 20
-0.2500
 30
0.0000
 42
1.0000
  0
VERTEX
  8
0
 10
0.0000
 20
0.2500
 30
0.0000
 42
1.0000
  0
VERTEX
  8
0
 10
0.0000
 20
-0.2500
 30
0.0000
  0
SEQEND
  8
0
  0
ENDBLK
  8
0
  0
BLOCK
  8
0
  2
ANNULUSP
 70
64
 10
0.0000
 20
0.0000
 30
0.0000
  3
ANNULUSP
  0
POLYLINE
  8
0
 66
1
 10
0.0000
 20
0.0000
 30
0.0000
 40
0.5000
 41
0.5000
 70
0
  0
VERTEX
  8
0
 10
0.0000
 20
-0.2500
 30
0.0000
 42
1.0000
  0
VERTEX
  8
0
 10
0.0000
 20
0.2500
 30
0.0000
 42
1.0000
  0
VERTEX
  8
0
 10
0.0000
 20
-0.2500
 30
0.0000
  0
SEQEND
  8
0
  0
ENDBLK
  8
0
  0
BLOCK
  8
0
  2
THERMALP
 70
64
 10
0.0000
 20
0.0000
 30
0.0000
  3
THERMALP
  0
POLYLINE
  8
0
 66
1
 10
0.0000
 20
0.0000
 30
0.0000
 40
0.1000
 41
0.1000
 70
0
  0
VERTEX
  8
0
 10
-0.2379
 20
0.4500
 30
0.0000
  0
VERTEX
  8
0
 10
0.2379
 20
0.4500
 30
0.0000
  0
SEQEND
  8
0
  0
POLYLINE
  8
0
 66
1
 10
0.0000
 20
0.0000
 30
0.0000
 40
0.0500
 41
0.0500
 70
0
  0
VERTEX
  8
0
 10
0.2379
 20
0.4250
 30
0.0000
 42
1.0000
  0
VERTEX
  8
0
 10
0.2379
 20
0.4750
 30
0.0000
  0
SEQEND
  8
0
  0
POLYLINE
  8
0
 66
1
 10
0.0000
 20
0.0000
 30
0.0000
 40
0.0500
 41
0.0500
 70
0
  0
VERTEX
  8
0
 10
-0.2379
 20
0.4750
 30
0.0000
 42
1.0000
  0
VERTEX
  8
0
 10
-0.2379
 20
0.4250
 30
0.0000
  0
SEQEND
  8
0
  0
POLYLINE
  8
0
 66
1
 10
0.0000
 20
0.0000
 30
0.0000
 40
0.1000
 41
0.1000
 70
0
  0
VERTEX
  8
0
 10
0.4500
 20
0.2379
 30
0.0000
  0
VERTEX
  8
0
 10
0.4500
 20
-0.2379
 30
0.0000
  0
SEQEND
  8
0
  0
POLYLINE
  8
0
 66
1
 10
0.0000
 20
0.0000
 30
0.0000
 40
0.0500
 41
0.0500
 70
0
  0
VERTEX
  8
0
 10
0.4250
 20
-0.2379
 30
0.0000
 42
1.0000
  0
VERTEX
  8
0
 10
0.4750
 20
-0.2379
 30
0.0000
  0
SEQEND
  8
0
  0
POLYLINE
  8
0
 66
1
 10
0.0000
 20
0.0000
 30
0.0000
 40
0.0500
 41
0.0500
 70
0
  0
VERTEX
  8
0
 10
0.4750
 20
0.2379
 30
0.0000
 42
1.0000
  0
VERTEX
  8
0
 10
0.4250
 20
0.2379
 30
0.0000
  0
SEQEND
  8
0
  0
POLYLINE
  8
0
 66
1
 10
0.0000
 20
0.0000
 30
0.0000
 40
0.1000
 41
0.1000
 70
0
  0
VERTEX
  8
0
 10
0.2379
 20
-0.4500
 30
0.0000
  0
VERTEX
  8
0
 10
-0.2379
 20
-0.4500
 30
0.0000
  0
SEQEND
  8
0
  0
POLYLINE
  8
0
 66
1
 10
0.0000
 20
0.0000
 30
0.0000
 40
0.0500
 41
0.0500
 70
0
  0
VERTEX
  8
0
 10
-0.2379
 20
-0.4250
 30
0.0000
 42
1.0000
  0
VERTEX
  8
0
 10
-0.2379
 20
-0.4750
 30
0.0000
  0
SEQEND
  8
0
  0
POLYLINE
  8
0
 66
1
 10
0.0000
 20
0.0000
 30
0.0000
 40
0.0500
 41
0.0500
 70
0
  0
VERTEX
  8
0
 10
0.2379
 20
-0.4750
 30
0.0000
 42
1.0000
  0
VERTEX
  8
0
 10
0.2379
 20
-0.4250
 30
0.0000
  0
SEQEND
  8
0
  0
POLYLINE
  8
0
 66
1
 10
0.0000
 20
0.0000
 30
0.0000
 40
0.1000
 41
0.1000
 70
0
  0
VERTEX
  8
0
 10
-0.4500
 20
-0.2379
 30
0.0000
  0
VERTEX
  8
0
 10
-0.4500
 20
0.2379
 30
0.0000
  0
SEQEND
  8
0
  0
POLYLINE
  8
0
 66
1
 10
0.0000
 20
0.0000
 30
0.0000
 40
0.0500
 41
0.0500
 70
0
  0
VERTEX
  8
0
 10
-0.4250
 20
0.2379
 30
0.0000
 42
1.0000
  0
VERTEX
  8
0
 10
-0.4750
 20
0.2379
 30
0.0000
  0
SEQEND
  8
0
  0
POLYLINE
  8
0
 66
1
 10
0.0000
 20
0.0000
 30
0.0000
 40
0.0500
 41
0.0500
 70
0
  0
VERTEX
  8
0
 10
-0.4750
 20
-0.2379
 30
0.0000
 42
1.0000
  0
VERTEX
  8
0
 10
-0.4250
 20
-0.2379
 30
0.0000
  0
SEQEND
  8
0
  0
ENDBLK
  8
0
  0
BLOCK
  8
0
  2
OCTAGONV
 70
64
 10
0.0000
 20
0.0000
 30
0.0000
  3
OCTAGONV
  0
POLYLINE
  8
0
 66
1
 10
0.0000
 20
0.0000
 30
0.0000
 40
0.5000
 41
0.5000
 70
0
  0
VERTEX
  8
0
 10
-0.2500
 20
-0.1036
 30
0.0000
  0
VERTEX
  8
0
 10
-0.2500
 20
0.1036
 30
0.0000
  0
VERTEX
  8
0
 10
-0.1036
 20
0.2500
 30
0.0000
  0
VERTEX
  8
0
 10
0.1036
 20
0.2500
 30
0.0000
  0
VERTEX
  8
0
 10
0.2500
 20
0.1036
 30
0.0000
  0
VERTEX
  8
0
 10
0.2500
 20
-0.1036
 30
0.0000
  0
VERTEX
  8
0
 10
0.1036
 20
-0.2500
 30
0.0000
  0
VERTEX
  8
0
 10
-0.1036
 20
-0.2500
 30
0.0000
  0
VERTEX
  8
0
 10
-0.2500
 20
-0.1036
 30
0.0000
  0
VERTEX
  8
0
 10
-0.2500
 20
0.1036
 30
0.0000
  0
SEQEND
  8
0
  0
ENDBLK
  8
0
  0
BLOCK
  8
0
  2
SQUAREV
 70
64
 10
0.0000
 20
0.0000
 30
0.0000
  3
SQUAREV
  0
SOLID
  8
0
 10
-0.5000
 20
-0.5000
 30
0.0000
 11
0.5000
 21
-0.5000
 31
0.0000
 12
-0.5000
 22
0.5000
 32
0.0000
 13
0.5000
 23
0.5000
 33
0.0000
  0
ENDBLK
  8
0
  0
BLOCK
  8
0
  2
ROUNDV
 70
64
 10
0.0000
 20
0.0000
 30
0.0000
  3
ROUNDV
  0
POLYLINE
  8
0
 66
1
 10
0.0000
 20
0.0000
 30
0.0000
 40
0.5000
 41
0.5000
 70
0
  0
VERTEX
  8
0
 10
0.0000
 20
-0.2500
 30
0.0000
 42
1.0000
  0
VERTEX
  8
0
 10
0.0000
 20
0.2500
 30
0.0000
 42
1.0000
  0
VERTEX
  8
0
 10
0.0000
 20
-0.2500
 30
0.0000
  0
SEQEND
  8
0
  0
ENDBLK
  8
0
  0
BLOCK
  8
0
  2
ANNULUSV
 70
64
 10
0.0000
 20
0.0000
 30
0.0000
  3
ANNULUSV
  0
POLYLINE
  8
0
 66
1
 10
0.0000
 20
0.0000
 30
0.0000
 40
0.5000
 41
0.5000
 70
0
  0
VERTEX
  8
0
 10
0.0000
 20
-0.2500
 30
0.0000
 42
1.0000
  0
VERTEX
  8
0
 10
0.0000
 20
0.2500
 30
0.0000
 42
1.0000
  0
VERTEX
  8
0
 10
0.0000
 20
-0.2500
 30
0.0000
  0
SEQEND
  8
0
  0
ENDBLK
  8
0
  0
BLOCK
  8
0
  2
THERMALV
 70
64
 10
0.0000
 20
0.0000
 30
0.0000
  3
THERMALV
  0
POLYLINE
  8
0
 66
1
 10
0.0000
 20
0.0000
 30
0.0000
 40
0.1000
 41
0.1000
 70
0
  0
VERTEX
  8
0
 10
-0.2379
 20
0.4500
 30
0.0000
  0
VERTEX
  8
0
 10
0.2379
 20
0.4500
 30
0.0000
  0
SEQEND
  8
0
  0
POLYLINE
  8
0
 66
1
 10
0.0000
 20
0.0000
 30
0.0000
 40
0.0500
 41
0.0500
 70
0
  0
VERTEX
  8
0
 10
0.2379
 20
0.4250
 30
0.0000
 42
1.0000
  0
VERTEX
  8
0
 10
0.2379
 20
0.4750
 30
0.0000
  0
SEQEND
  8
0
  0
POLYLINE
  8
0
 66
1
 10
0.0000
 20
0.0000
 30
0.0000
 40
0.0500
 41
0.0500
 70
0
  0
VERTEX
  8
0
 10
-0.2379
 20
0.4750
 30
0.0000
 42
1.0000
  0
VERTEX
  8
0
 10
-0.2379
 20
0.4250
 30
0.0000
  0
SEQEND
  8
0
  0
POLYLINE
  8
0
 66
1
 10
0.0000
 20
0.0000
 30
0.0000
 40
0.1000
 41
0.1000
 70
0
  0
VERTEX
  8
0
 10
0.4500
 20
0.2379
 30
0.0000
  0
VERTEX
  8
0
 10
0.4500
 20
-0.2379
 30
0.0000
  0
SEQEND
  8
0
  0
POLYLINE
  8
0
 66
1
 10
0.0000
 20
0.0000
 30
0.0000
 40
0.0500
 41
0.0500
 70
0
  0
VERTEX
  8
0
 10
0.4250
 20
-0.2379
 30
0.0000
 42
1.0000
  0
VERTEX
  8
0
 10
0.4750
 20
-0.2379
 30
0.0000
  0
SEQEND
  8
0
  0
POLYLINE
  8
0
 66
1
 10
0.0000
 20
0.0000
 30
0.0000
 40
0.0500
 41
0.0500
 70
0
  0
VERTEX
  8
0
 10
0.4750
 20
0.2379
 30
0.0000
 42
1.0000
  0
VERTEX
  8
0
 10
0.4250
 20
0.2379
 30
0.0000
  0
SEQEND
  8
0
  0
POLYLINE
  8
0
 66
1
 10
0.0000
 20
0.0000
 30
0.0000
 40
0.1000
 41
0.1000
 70
0
  0
VERTEX
  8
0
 10
0.2379
 20
-0.4500
 30
0.0000
  0
VERTEX
  8
0
 10
-0.2379
 20
-0.4500
 30
0.0000
  0
SEQEND
  8
0
  0
POLYLINE
  8
0
 66
1
 10
0.0000
 20
0.0000
 30
0.0000
 40
0.0500
 41
0.0500
 70
0
  0
VERTEX
  8
0
 10
-0.2379
 20
-0.4250
 30
0.0000
 42
1.0000
  0
VERTEX
  8
0
 10
-0.2379
 20
-0.4750
 30
0.0000
  0
SEQEND
  8
0
  0
POLYLINE
  8
0
 66
1
 10
0.0000
 20
0.0000
 30
0.0000
 40
0.0500
 41
0.0500
 70
0
  0
VERTEX
  8
0
 10
0.2379
 20
-0.4750
 30
0.0000
 42
1.0000
  0
VERTEX
  8
0
 10
0.2379
 20
-0.4250
 30
0.0000
  0
SEQEND
  8
0
  0
POLYLINE
  8
0
 66
1
 10
0.0000
 20
0.0000
 30
0.0000
 40
0.1000
 41
0.1000
 70
0
  0
VERTEX
  8
0
 10
-0.4500
 20
-0.2379
 30
0.0000
  0
VERTEX
  8
0
 10
-0.4500
 20
0.2379
 30
0.0000
  0
SEQEND
  8
0
  0
POLYLINE
  8
0
 66
1
 10
0.0000
 20
0.0000
 30
0.0000
 40
0.0500
 41
0.0500
 70
0
  0
VERTEX
  8
0
 10
-0.4250
 20
0.2379
 30
0.0000
 42
1.0000
  0
VERTEX
  8
0
 10
-0.4750
 20
0.2379
 30
0.0000
  0
SEQEND
  8
0
  0
POLYLINE
  8
0
 66
1
 10
0.0000
 20
0.0000
 30
0.0000
 40
0.0500
 41
0.0500
 70
0
  0
VERTEX
  8
0
 10
-0.4750
 20
-0.2379
 30
0.0000
 42
1.0000
  0
VERTEX
  8
0
 10
-0.4250
 20
-0.2379
 30
0.0000
  0
SEQEND
  8
0
  0
ENDBLK
  8
0
  0
ENDSEC
  0
SECTION
  2
ENTITIES
  0
POLYLINE
  8
20
 66
1
 10
0.0000
 20
0.0000
 30
0.0000
 40
0.0010
 41
0.0010
 70
0
  0
VERTEX
  8
20
 10
0.0000
 20
3.0000
 30
0.0000
 42
0.4142
  0
VERTEX
  8
20
 10
3.0000
 20
0.0000
 30
0.0000
  0
SEQEND
  8
0
  0
POLYLINE
  8
20
 66
1
 10
0.0000
 20
0.0000
 30
0.0000
 40
0.0005
 41
0.0005
 70
0
  0
VERTEX
  8
20
 10
0.0003
 20
3.0000
 30
0.0000
 42
1.0000
  0
VERTEX
  8
20
 10
-0.0003
 20
3.0000
 30
0.0000
  0
SEQEND
  8
0
  0
POLYLINE
  8
20
 66
1
 10
0.0000
 20
0.0000
 30
0.0000
 40
0.0005
 41
0.0005
 70
0
  0
VERTEX
  8
20
 10
3.0000
 20
-0.0003
 30
0.0000
 42
1.0000
  0
VERTEX
  8
20
 10
3.0000
 20
0.0003
 30
0.0000
  0
SEQEND
  8
0
  0
POLYLINE
  8
20
 66
1
 10
0.0000
 20
0.0000
 30
0.0000
 40
0.0010
 41
0.0010
 70
0
  0
VERTEX
  8
20
 10
3.0000
 20
0.0000
 30
0.0000
  0
VERTEX
  8
20
 10
105.5000
 20
0.0000
 30
0.0000
  0
SEQEND
  8
0
  0
POLYLINE
  8
20
 66
1
 10
0.0000
 20
0.0000
 30
0.0000
 40
0.0005
 41
0.0005
 70
0
  0
VERTEX
  8
20
 10
105.5000
 20
-0.0003
 30
0.0000
 42
1.0000
  0
VERTEX
  8
20
 10
105.5000
 20
0.0003
 30
0.0000
  0
SEQEND
  8
0
  0
POLYLINE
  8
20
 66
1
 10
0.0000
 20
0.0000
 30
0.0000
 40
0.0005
 41
0.0005
 70
0
  0
VERTEX
  8
20
 10
3.0000
 20
0.0003
 30
0.0000
 42
1.0000
  0
VERTEX
  8
20
 10
3.0000
 20
-0.0003
 30
0.0000
  0
SEQEND
  8
0
  0
POLYLINE
  8
20
 66
1
 10
0.0000
 20
0.0000
 30
0.0000
 40
0.0010
 41
0.0010
 70
0
  0
VERTEX
  8
20
 10
105.5000
 20
0.0000
 30
0.0000
 42
0.4142
  0
VERTEX
  8
20
 10
108.5000
 20
3.0000
 30
0.0000
  0
SEQEND
  8
0
  0
POLYLINE
  8
20
 66
1
 10
0.0000
 20
0.0000
 30
0.0000
 40
0.0005
 41
0.0005
 70
0
  0
VERTEX
  8
20
 10
105.5000
 20
0.0003
 30
0.0000
 42
1.0000
  0
VERTEX
  8
20
 10
105.5000
 20
-0.0003
 30
0.0000
  0
SEQEND
  8
0
  0
POLYLINE
  8
20
 66
1
 10
0.0000
 20
0.0000
 30
0.0000
 40
0.0005
 41
0.0005
 70
0
  0
VERTEX
  8
20
 10
108.5002
 20
3.0000
 30
0.0000
 42
1.0000
  0
VERTEX
  8
20
 10
108.4998
 20
3.0000
 30
0.0000
  0
SEQEND
  8
0
  0
POLYLINE
  8
20
 66
1
 10
0.0000
 20
0.0000
 30
0.0000
 40
0.0010
 41
0.0010
 70
0
  0
VERTEX
  8
20
 10
108.5000
 20
3.0000
 30
0.0000
  0
VERTEX
  8
20
 10
108.5000
 20
26.5000
 30
0.0000
  0
SEQEND
  8
0
  0
POLYLINE
  8
20
 66
1
 10
0.0000
 20
0.0000
 30
0.0000
 40
0.0005
 41
0.0005
 70
0
  0
VERTEX
  8
20
 10
108.5002
 20
26.5000
 30
0.0000
 42
1.0000
  0
VERTEX
  8
20
 10
108.4998
 20
26.5000
 30
0.0000
  0
SEQEND
  8
0
  0
POLYLINE
  8
20
 66
1
 10
0.0000
 20
0.0000
 30
0.0000
 40
0.0005
 41
0.0005
 70
0
  0
VERTEX
  8
20
 10
108.4998
 20
3.0000
 30
0.0000
 42
1.0000
  0
VERTEX
  8
20
 10
108.5002
 20
3.0000
 30
0.0000
  0
SEQEND
  8
0
  0
POLYLINE
  8
20
 66
1
 10
0.0000
 20
0.0000
 30
0.0000
 40
0.0010
 41
0.0010
 70
0
  0
VERTEX
  8
20
 10
108.5000
 20
26.5000
 30
0.0000
 42
0.4142
  0
VERTEX
  8
20
 10
105.5000
 20
29.5000
 30
0.0000
  0
SEQEND
  8
0
  0
POLYLINE
  8
20
 66
1
 10
0.0000
 20
0.0000
 30
0.0000
 40
0.0005
 41
0.0005
 70
0
  0
VERTEX
  8
20
 10
108.4998
 20
26.5000
 30
0.0000
 42
1.0000
  0
VERTEX
  8
20
 10
108.5002
 20
26.5000
 30
0.0000
  0
SEQEND
  8
0
  0
POLYLINE
  8
20
 66
1
 10
0.0000
 20
0.0000
 30
0.0000
 40
0.0005
 41
0.0005
 70
0
  0
VERTEX
  8
20
 10
105.5000
 20
29.5003
 30
0.0000
 42
1.0000
  0
VERTEX
  8
20
 10
105.5000
 20
29.4997
 30
0.0000
  0
SEQEND
  8
0
  0
POLYLINE
  8
20
 66
1
 10
0.0000
 20
0.0000
 30
0.0000
 40
0.0010
 41
0.0010
 70
0
  0
VERTEX
  8
20
 10
105.5000
 20
29.5000
 30
0.0000
  0
VERTEX
  8
20
 10
3.0000
 20
29.5000
 30
0.0000
  0
SEQEND
  8
0
  0
POLYLINE
  8
20
 66
1
 10
0.0000
 20
0.0000
 30
0.0000
 40
0.0005
 41
0.0005
 70
0
  0
VERTEX
  8
20
 10
3.0000
 20
29.5003
 30
0.0000
 42
1.0000
  0
VERTEX
  8
20
 10
3.0000
 20
29.4997
 30
0.0000
  0
SEQEND
  8
0
  0
POLYLINE
  8
20
 66
1
 10
0.0000
 20
0.0000
 30
0.0000
 40
0.0005
 41
0.0005
 70
0
  0
VERTEX
  8
20
 10
105.5000
 20
29.4997
 30
0.0000
 42
1.0000
  0
VERTEX
  8
20
 10
105.5000
 20
29.5003
 30
0.0000
  0
SEQEND
  8
0
  0
POLYLINE
  8
20
 66
1
 10
0.0000
 20
0.0000
 30
0.0000
 40
0.0010
 41
0.0010
 70
0
  0
VERTEX
  8
20
 10
3.0000
 20
29.5000
 30
0.0000
 42
0.4142
  0
VERTEX
  8
20
 10
0.0000
 20
26.5000
 30
0.0000
  0
SEQEND
  8
0
  0
POLYLINE
  8
20
 66
1
 10
0.0000
 20
0.0000
 30
0.0000
 40
0.0005
 41
0.0005
 70
0
  0
VERTEX
  8
20
 10
3.0000
 20
29.4997
 30
0.0000
 42
1.0000
  0
VERTEX
  8
20
 10
3.0000
 20
29.5003
 30
0.0000
  0
SEQEND
  8
0
  0
POLYLINE
  8
20
 66
1
 10
0.0000
 20
0.0000
 30
0.0000
 40
0.0005
 41
0.0005
 70
0
  0
VERTEX
  8
20
 10
-0.0003
 20
26.5000
 30
0.0000
 42
1.0000
  0
VERTEX
  8
20
 10
0.0003
 20
26.5000
 30
0.0000
  0
SEQEND
  8
0
  0
POLYLINE
  8
20
 66
1
 10
0.0000
 20
0.0000
 30
0.0000
 40
0.0010
 41
0.0010
 70
0
  0
VERTEX
  8
20
 10
0.0000
 20
26.5000
 30
0.0000
  0
VERTEX
  8
20
 10
0.0000
 20
3.0000
 30
0.0000
  0
SEQEND
  8
0
  0
POLYLINE
  8
20
 66
1
 10
0.0000
 20
0.0000
 30
0.0000
 40
0.0005
 41
0.0005
 70
0
  0
VERTEX
  8
20
 10
-0.0003
 20
3.0000
 30
0.0000
 42
1.0000
  0
VERTEX
  8
20
 10
0.0003
 20
3.0000
 30
0.0000
  0
SEQEND
  8
0
  0
POLYLINE
  8
20
 66
1
 10
0.0000
 20
0.0000
 30
0.0000
 40
0.0005
 41
0.0005
 70
0
  0
VERTEX
  8
20
 10
0.0003
 20
26.5000
 30
0.0000
 42
1.0000
  0
VERTEX
  8
20
 10
-0.0003
 20
26.5000
 30
0.0000
  0
SEQEND
  8
0
  0
POLYLINE
  8
20
 66
1
 10
0.0000
 20
0.0000
 30
0.0000
 40
0.0010
 41
0.0010
 70
0
  0
VERTEX
  8
20
 10
0.0000
 20
80.9000
 30
0.0000
  0
VERTEX
  8
20
 10
0.0000
 20
57.4000
 30
0.0000
  0
SEQEND
  8
0
  0
POLYLINE
  8
20
 66
1
 10
0.0000
 20
0.0000
 30
0.0000
 40
0.0005
 41
0.0005
 70
0
  0
VERTEX
  8
20
 10
-0.0003
 20
57.4000
 30
0.0000
 42
1.0000
  0
VERTEX
  8
20
 10
0.0003
 20
57.4000
 30
0.0000
  0
SEQEND
  8
0
  0
POLYLINE
  8
20
 66
1
 10
0.0000
 20
0.0000
 30
0.0000
 40
0.0005
 41
0.0005
 70
0
  0
VERTEX
  8
20
 10
0.0003
 20
80.9000
 30
0.0000
 42
1.0000
  0
VERTEX
  8
20
 10
-0.0003
 20
80.9000
 30
0.0000
  0
SEQEND
  8
0
  0
POLYLINE
  8
20
 66
1
 10
0.0000
 20
0.0000
 30
0.0000
 40
0.0010
 41
0.0010
 70
0
  0
VERTEX
  8
20
 10
0.0000
 20
57.4000
 30
0.0000
 42
0.4142
  0
VERTEX
  8
20
 10
3.0000
 20
54.4000
 30
0.0000
  0
SEQEND
  8
0
  0
POLYLINE
  8
20
 66
1
 10
0.0000
 20
0.0000
 30
0.0000
 40
0.0005
 41
0.0005
 70
0
  0
VERTEX
  8
20
 10
0.0003
 20
57.4000
 30
0.0000
 42
1.0000
  0
VERTEX
  8
20
 10
-0.0003
 20
57.4000
 30
0.0000
  0
SEQEND
  8
0
  0
POLYLINE
  8
20
 66
1
 10
0.0000
 20
0.0000
 30
0.0000
 40
0.0005
 41
0.0005
 70
0
  0
VERTEX
  8
20
 10
3.0000
 20
54.3998
 30
0.0000
 42
1.0000
  0
VERTEX
  8
20
 10
3.0000
 20
54.4003
 30
0.0000
  0
SEQEND
  8
0
  0
POLYLINE
  8
20
 66
1
 10
0.0000
 20
0.0000
 30
0.0000
 40
0.0010
 41
0.0010
 70
0
  0
VERTEX
  8
20
 10
3.0000
 20
54.4000
 30
0.0000
  0
VERTEX
  8
20
 10
105.5000
 20
54.4000
 30
0.0000
  0
SEQEND
  8
0
  0
POLYLINE
  8
20
 66
1
 10
0.0000
 20
0.0000
 30
0.0000
 40
0.0005
 41
0.0005
 70
0
  0
VERTEX
  8
20
 10
105.5000
 20
54.3998
 30
0.0000
 42
1.0000
  0
VERTEX
  8
20
 10
105.5000
 20
54.4003
 30
0.0000
  0
SEQEND
  8
0
  0
POLYLINE
  8
20
 66
1
 10
0.0000
 20
0.0000
 30
0.0000
 40
0.0005
 41
0.0005
 70
0
  0
VERTEX
  8
20
 10
3.0000
 20
54.4003
 30
0.0000
 42
1.0000
  0
VERTEX
  8
20
 10
3.0000
 20
54.3998
 30
0.0000
  0
SEQEND
  8
0
  0
POLYLINE
  8
20
 66
1
 10
0.0000
 20
0.0000
 30
0.0000
 40
0.0010
 41
0.0010
 70
0
  0
VERTEX
  8
20
 10
105.5000
 20
54.4000
 30
0.0000
 42
0.4142
  0
VERTEX
  8
20
 10
108.5000
 20
57.4000
 30
0.0000
  0
SEQEND
  8
0
  0
POLYLINE
  8
20
 66
1
 10
0.0000
 20
0.0000
 30
0.0000
 40
0.0005
 41
0.0005
 70
0
  0
VERTEX
  8
20
 10
105.5000
 20
54.4003
 30
0.0000
 42
1.0000
  0
VERTEX
  8
20
 10
105.5000
 20
54.3998
 30
0.0000
  0
SEQEND
  8
0
  0
POLYLINE
  8
20
 66
1
 10
0.0000
 20
0.0000
 30
0.0000
 40
0.0005
 41
0.0005
 70
0
  0
VERTEX
  8
20
 10
108.5002
 20
57.4000
 30
0.0000
 42
1.0000
  0
VERTEX
  8
20
 10
108.4998
 20
57.4000
 30
0.0000
  0
SEQEND
  8
0
  0
POLYLINE
  8
20
 66
1
 10
0.0000
 20
0.0000
 30
0.0000
 40
0.0010
 41
0.0010
 70
0
  0
VERTEX
  8
20
 10
108.5000
 20
57.4000
 30
0.0000
  0
VERTEX
  8
20
 10
108.5000
 20
80.9000
 30
0.0000
  0
SEQEND
  8
0
  0
POLYLINE
  8
20
 66
1
 10
0.0000
 20
0.0000
 30
0.0000
 40
0.0005
 41
0.0005
 70
0
  0
VERTEX
  8
20
 10
108.5002
 20
80.9000
 30
0.0000
 42
1.0000
  0
VERTEX
  8
20
 10
108.4998
 20
80.9000
 30
0.0000
  0
SEQEND
  8
0
  0
POLYLINE
  8
20
 66
1
 10
0.0000
 20
0.0000
 30
0.0000
 40
0.0005
 41
0.0005
 70
0
  0
VERTEX
  8
20
 10
108.4998
 20
57.4000
 30
0.0000
 42
1.0000
  0
VERTEX
  8
20
 10
108.5002
 20
57.4000
 30
0.0000
  0
SEQEND
  8
0
  0
POLYLINE
  8
20
 66
1
 10
0.0000
 20
0.0000
 30
0.0000
 40
0.0010
 41
0.0010
 70
0
  0
VERTEX
  8
20
 10
108.5000
 20
80.9000
 30
0.0000
 42
0.4142
  0
VERTEX
  8
20
 10
105.5000
 20
83.9000
 30
0.0000
  0
SEQEND
  8
0
  0
POLYLINE
  8
20
 66
1
 10
0.0000
 20
0.0000
 30
0.0000
 40
0.0005
 41
0.0005
 70
0
  0
VERTEX
  8
20
 10
108.4998
 20
80.9000
 30
0.0000
 42
1.0000
  0
VERTEX
  8
20
 10
108.5002
 20
80.9000
 30
0.0000
  0
SEQEND
  8
0
  0
POLYLINE
  8
20
 66
1
 10
0.0000
 20
0.0000
 30
0.0000
 40
0.0005
 41
0.0005
 70
0
  0
VERTEX
  8
20
 10
105.5000
 20
83.9002
 30
0.0000
 42
1.0000
  0
VERTEX
  8
20
 10
105.5000
 20
83.8998
 30
0.0000
  0
SEQEND
  8
0
  0
POLYLINE
  8
20
 66
1
 10
0.0000
 20
0.0000
 30
0.0000
 40
0.0010
 41
0.0010
 70
0
  0
VERTEX
  8
20
 10
105.5000
 20
83.9000
 30
0.0000
  0
VERTEX
  8
20
 10
3.0000
 20
83.9000
 30
0.0000
  0
SEQEND
  8
0
  0
POLYLINE
  8
20
 66
1
 10
0.0000
 20
0.0000
 30
0.0000
 40
0.0005
 41
0.0005
 70
0
  0
VERTEX
  8
20
 10
3.0000
 20
83.9002
 30
0.0000
 42
1.0000
  0
VERTEX
  8
20
 10
3.0000
 20
83.8998
 30
0.0000
  0
SEQEND
  8
0
  0
POLYLINE
  8
20
 66
1
 10
0.0000
 20
0.0000
 30
0.0000
 40
0.0005
 41
0.0005
 70
0
  0
VERTEX
  8
20
 10
105.5000
 20
83.8998
 30
0.0000
 42
1.0000
  0
VERTEX
  8
20
 10
105.5000
 20
83.9002
 30
0.0000
  0
SEQEND
  8
0
  0
POLYLINE
  8
20
 66
1
 10
0.0000
 20
0.0000
 30
0.0000
 40
0.0010
 41
0.0010
 70
0
  0
VERTEX
  8
20
 10
3.0000
 20
83.9000
 30
0.0000
 42
0.4142
  0
VERTEX
  8
20
 10
0.0000
 20
80.9000
 30
0.0000
  0
SEQEND
  8
0
  0
POLYLINE
  8
20
 66
1
 10
0.0000
 20
0.0000
 30
0.0000
 40
0.0005
 41
0.0005
 70
0
  0
VERTEX
  8
20
 10
3.0000
 20
83.8998
 30
0.0000
 42
1.0000
  0
VERTEX
  8
20
 10
3.0000
 20
83.9002
 30
0.0000
  0
SEQEND
  8
0
  0
POLYLINE
  8
20
 66
1
 10
0.0000
 20
0.0000
 30
0.0000
 40
0.0005
 41
0.0005
 70
0
  0
VERTEX
  8
20
 10
-0.0003
 20
80.9000
 30
0.0000
 42
1.0000
  0
VERTEX
  8
20
 10
0.0003
 20
80.9000
 30
0.0000
  0
SEQEND
  8
0
  0
POLYLINE
  8
20
 66
1
 10
0.0000
 20
0.0000
 30
0.0000
 40
0.0010
 41
0.0010
 70
0
  0
VERTEX
  8
20
 10
9.2500
 20
8.7000
 30
0.0000
  0
VERTEX
  8
20
 10
23.2500
 20
8.7000
 30
0.0000
  0
SEQEND
  8
0
  0
POLYLINE
  8
20
 66
1
 10
0.0000
 20
0.0000
 30
0.0000
 40
0.0005
 41
0.0005
 70
0
  0
VERTEX
  8
20
 10
23.2500
 20
8.6998
 30
0.0000
 42
1.0000
  0
VERTEX
  8
20
 10
23.2500
 20
8.7003
 30
0.0000
  0
SEQEND
  8
0
  0
POLYLINE
  8
20
 66
1
 10
0.0000
 20
0.0000
 30
0.0000
 40
0.0005
 41
0.0005
 70
0
  0
VERTEX
  8
20
 10
9.2500
 20
8.7003
 30
0.0000
 42
1.0000
  0
VERTEX
  8
20
 10
9.2500
 20
8.6998
 30
0.0000
  0
SEQEND
  8
0
  0
POLYLINE
  8
20
 66
1
 10
0.0000
 20
0.0000
 30
0.0000
 40
0.0010
 41
0.0010
 70
0
  0
VERTEX
  8
20
 10
23.2500
 20
8.7000
 30
0.0000
  0
VERTEX
  8
20
 10
23.2500
 20
22.7000
 30
0.0000
  0
SEQEND
  8
0
  0
POLYLINE
  8
20
 66
1
 10
0.0000
 20
0.0000
 30
0.0000
 40
0.0005
 41
0.0005
 70
0
  0
VERTEX
  8
20
 10
23.2503
 20
22.7000
 30
0.0000
 42
1.0000
  0
VERTEX
  8
20
 10
23.2497
 20
22.7000
 30
0.0000
  0
SEQEND
  8
0
  0
POLYLINE
  8
20
 66
1
 10
0.0000
 20
0.0000
 30
0.0000
 40
0.0005
 41
0.0005
 70
0
  0
VERTEX
  8
20
 10
23.2497
 20
8.7000
 30
0.0000
 42
1.0000
  0
VERTEX
  8
20
 10
23.2503
 20
8.7000
 30
0.0000
  0
SEQEND
  8
0
  0
POLYLINE
  8
20
 66
1
 10
0.0000
 20
0.0000
 30
0.0000
 40
0.0010
 41
0.0010
 70
0
  0
VERTEX
  8
20
 10
23.2500
 20
22.7000
 30
0.0000
  0
VERTEX
  8
20
 10
9.2500
 20
22.7000
 30
0.0000
  0
SEQEND
  8
0
  0
POLYLINE
  8
20
 66
1
 10
0.0000
 20
0.0000
 30
0.0000
 40
0.0005
 41
0.0005
 70
0
  0
VERTEX
  8
20
 10
9.2500
 20
22.7003
 30
0.0000
 42
1.0000
  0
VERTEX
  8
20
 10
9.2500
 20
22.6998
 30
0.0000
  0
SEQEND
  8
0
  0
POLYLINE
  8
20
 66
1
 10
0.0000
 20
0.0000
 30
0.0000
 40
0.0005
 41
0.0005
 70
0
  0
VERTEX
  8
20
 10
23.2500
 20
22.6998
 30
0.0000
 42
1.0000
  0
VERTEX
  8
20
 10
23.2500
 20
22.7003
 30
0.0000
  0
SEQEND
  8
0
  0
POLYLINE
  8
20
 66
1
 10
0.0000
 20
0.0000
 30
0.0000
 40
0.0010
 41
0.0010
 70
0
  0
VERTEX
  8
20
 10
9.2500
 20
22.7000
 30
0.0000
  0
VERTEX
  8
20
 10
9.2500
 20
8.7000
 30
0.0000
  0
SEQEND
  8
0
  0
POLYLINE
  8
20
 66
1
 10
0.0000
 20
0.0000
 30
0.0000
 40
0.0005
 41
0.0005
 70
0
  0
VERTEX
  8
20
 10
9.2498
 20
8.7000
 30
0.0000
 42
1.0000
  0
VERTEX
  8
20
 10
9.2502
 20
8.7000
 30
0.0000
  0
SEQEND
  8
0
  0
POLYLINE
  8
20
 66
1
 10
0.0000
 20
0.0000
 30
0.0000
 40
0.0005
 41
0.0005
 70
0
  0
VERTEX
  8
20
 10
9.2502
 20
22.7000
 30
0.0000
 42
1.0000
  0
VERTEX
  8
20
 10
9.2498
 20
22.7000
 30
0.0000
  0
SEQEND
  8
0
  0
POLYLINE
  8
20
 66
1
 10
0.0000
 20
0.0000
 30
0.0000
 40
0.0010
 41
0.0010
 70
0
  0
VERTEX
  8
20
 10
48.1000
 20
25.5000
 30
0.0000
  0
VERTEX
  8
20
 10
27.1000
 20
25.5000
 30
0.0000
  0
SEQEND
  8
0
  0
POLYLINE
  8
20
 66
1
 10
0.0000
 20
0.0000
 30
0.0000
 40
0.0005
 41
0.0005
 70
0
  0
VERTEX
  8
20
 10
27.1000
 20
25.5003
 30
0.0000
 42
1.0000
  0
VERTEX
  8
20
 10
27.1000
 20
25.4997
 30
0.0000
  0
SEQEND
  8
0
  0
POLYLINE
  8
20
 66
1
 10
0.0000
 20
0.0000
 30
0.0000
 40
0.0005
 41
0.0005
 70
0
  0
VERTEX
  8
20
 10
48.1000
 20
25.4997
 30
0.0000
 42
1.0000
  0
VERTEX
  8
20
 10
48.1000
 20
25.5003
 30
0.0000
  0
SEQEND
  8
0
  0
POLYLINE
  8
20
 66
1
 10
0.0000
 20
0.0000
 30
0.0000
 40
0.0010
 41
0.0010
 70
0
  0
VERTEX
  8
20
 10
98.5000
 20
25.5000
 30
0.0000
  0
VERTEX
  8
20
 10
77.5000
 20
25.5000
 30
0.0000
  0
SEQEND
  8
0
  0
POLYLINE
  8
20
 66
1
 10
0.0000
 20
0.0000
 30
0.0000
 40
0.0005
 41
0.0005
 70
0
  0
VERTEX
  8
20
 10
77.5000
 20
25.5003
 30
0.0000
 42
1.0000
  0
VERTEX
  8
20
 10
77.5000
 20
25.4997
 30
0.0000
  0
SEQEND
  8
0
  0
POLYLINE
  8
20
 66
1
 10
0.0000
 20
0.0000
 30
0.0000
 40
0.0005
 41
0.0005
 70
0
  0
VERTEX
  8
20
 10
98.5000
 20
25.4997
 30
0.0000
 42
1.0000
  0
VERTEX
  8
20
 10
98.5000
 20
25.5003
 30
0.0000
  0
SEQEND
  8
0
  0
POLYLINE
  8
20
 66
1
 10
0.0000
 20
0.0000
 30
0.0000
 40
0.0010
 41
0.0010
 70
0
  0
VERTEX
  8
20
 10
29.1500
 20
71.0000
 30
0.0000
  0
VERTEX
  8
20
 10
29.1500
 20
79.9000
 30
0.0000
  0
SEQEND
  8
0
  0
POLYLINE
  8
20
 66
1
 10
0.0000
 20
0.0000
 30
0.0000
 40
0.0005
 41
0.0005
 70
0
  0
VERTEX
  8
20
 10
29.1503
 20
79.9000
 30
0.0000
 42
1.0000
  0
VERTEX
  8
20
 10
29.1498
 20
79.9000
 30
0.0000
  0
SEQEND
  8
0
  0
POLYLINE
  8
20
 66
1
 10
0.0000
 20
0.0000
 30
0.0000
 40
0.0005
 41
0.0005
 70
0
  0
VERTEX
  8
20
 10
29.1498
 20
71.0000
 30
0.0000
 42
1.0000
  0
VERTEX
  8
20
 10
29.1503
 20
71.0000
 30
0.0000
  0
SEQEND
  8
0
  0
POLYLINE
  8
20
 66
1
 10
0.0000
 20
0.0000
 30
0.0000
 40
0.0010
 41
0.0010
 70
0
  0
VERTEX
  8
20
 10
64.8500
 20
71.0000
 30
0.0000
  0
VERTEX
  8
20
 10
64.8500
 20
63.0000
 30
0.0000
  0
SEQEND
  8
0
  0
POLYLINE
  8
20
 66
1
 10
0.0000
 20
0.0000
 30
0.0000
 40
0.0005
 41
0.0005
 70
0
  0
VERTEX
  8
20
 10
64.8498
 20
63.0000
 30
0.0000
 42
1.0000
  0
VERTEX
  8
20
 10
64.8503
 20
63.0000
 30
0.0000
  0
SEQEND
  8
0
  0
POLYLINE
  8
20
 66
1
 10
0.0000
 20
0.0000
 30
0.0000
 40
0.0005
 41
0.0005
 70
0
  0
VERTEX
  8
20
 10
64.8503
 20
71.0000
 30
0.0000
 42
1.0000
  0
VERTEX
  8
20
 10
64.8498
 20
71.0000
 30
0.0000
  0
SEQEND
  8
0
  0
POLYLINE
  8
20
 66
1
 10
0.0000
 20
0.0000
 30
0.0000
 40
0.0010
 41
0.0010
 70
0
  0
VERTEX
  8
20
 10
11.2500
 20
63.0000
 30
0.0000
  0
VERTEX
  8
20
 10
11.2500
 20
79.9000
 30
0.0000
  0
SEQEND
  8
0
  0
POLYLINE
  8
20
 66
1
 10
0.0000
 20
0.0000
 30
0.0000
 40
0.0005
 41
0.0005
 70
0
  0
VERTEX
  8
20
 10
11.2502
 20
79.9000
 30
0.0000
 42
1.0000
  0
VERTEX
  8
20
 10
11.2498
 20
79.9000
 30
0.0000
  0
SEQEND
  8
0
  0
POLYLINE
  8
20
 66
1
 10
0.0000
 20
0.0000
 30
0.0000
 40
0.0005
 41
0.0005
 70
0
  0
VERTEX
  8
20
 10
11.2498
 20
63.0000
 30
0.0000
 42
1.0000
  0
VERTEX
  8
20
 10
11.2502
 20
63.0000
 30
0.0000
  0
SEQEND
  8
0
  0
POLYLINE
  8
20
 66
1
 10
0.0000
 20
0.0000
 30
0.0000
 40
0.0010
 41
0.0010
 70
0
  0
VERTEX
  8
20
 10
11.2500
 20
79.9000
 30
0.0000
  0
VERTEX
  8
20
 10
29.1500
 20
79.9000
 30
0.0000
  0
SEQEND
  8
0
  0
POLYLINE
  8
20
 66
1
 10
0.0000
 20
0.0000
 30
0.0000
 40
0.0005
 41
0.0005
 70
0
  0
VERTEX
  8
20
 10
29.1500
 20
79.8998
 30
0.0000
 42
1.0000
  0
VERTEX
  8
20
 10
29.1500
 20
79.9002
 30
0.0000
  0
SEQEND
  8
0
  0
POLYLINE
  8
20
 66
1
 10
0.0000
 20
0.0000
 30
0.0000
 40
0.0005
 41
0.0005
 70
0
  0
VERTEX
  8
20
 10
11.2500
 20
79.9002
 30
0.0000
 42
1.0000
  0
VERTEX
  8
20
 10
11.2500
 20
79.8998
 30
0.0000
  0
SEQEND
  8
0
  0
POLYLINE
  8
20
 66
1
 10
0.0000
 20
0.0000
 30
0.0000
 40
0.0010
 41
0.0010
 70
0
  0
VERTEX
  8
20
 10
67.1500
 20
68.0000
 30
0.0000
  0
VERTEX
  8
20
 10
77.4500
 20
68.0000
 30
0.0000
  0
SEQEND
  8
0
  0
POLYLINE
  8
20
 66
1
 10
0.0000
 20
0.0000
 30
0.0000
 40
0.0005
 41
0.0005
 70
0
  0
VERTEX
  8
20
 10
77.4500
 20
67.9998
 30
0.0000
 42
1.0000
  0
VERTEX
  8
20
 10
77.4500
 20
68.0002
 30
0.0000
  0
SEQEND
  8
0
  0
POLYLINE
  8
20
 66
1
 10
0.0000
 20
0.0000
 30
0.0000
 40
0.0005
 41
0.0005
 70
0
  0
VERTEX
  8
20
 10
67.1500
 20
68.0002
 30
0.0000
 42
1.0000
  0
VERTEX
  8
20
 10
67.1500
 20
67.9998
 30
0.0000
  0
SEQEND
  8
0
  0
POLYLINE
  8
20
 66
1
 10
0.0000
 20
0.0000
 30
0.0000
 40
0.0010
 41
0.0010
 70
0
  0
VERTEX
  8
20
 10
67.1500
 20
63.4000
 30
0.0000
  0
VERTEX
  8
20
 10
77.4500
 20
63.4000
 30
0.0000
  0
SEQEND
  8
0
  0
POLYLINE
  8
20
 66
1
 10
0.0000
 20
0.0000
 30
0.0000
 40
0.0005
 41
0.0005
 70
0
  0
VERTEX
  8
20
 10
77.4500
 20
63.3998
 30
0.0000
 42
1.0000
  0
VERTEX
  8
20
 10
77.4500
 20
63.4003
 30
0.0000
  0
SEQEND
  8
0
  0
POLYLINE
  8
20
 66
1
 10
0.0000
 20
0.0000
 30
0.0000
 40
0.0005
 41
0.0005
 70
0
  0
VERTEX
  8
20
 10
67.1500
 20
63.4003
 30
0.0000
 42
1.0000
  0
VERTEX
  8
20
 10
67.1500
 20
63.3998
 30
0.0000
  0
SEQEND
  8
0
  0
POLYLINE
  8
20
 66
1
 10
0.0000
 20
0.0000
 30
0.0000
 40
0.0010
 41
0.0010
 70
0
  0
VERTEX
  8
20
 10
67.1500
 20
63.4000
 30
0.0000
  0
VERTEX
  8
20
 10
67.1500
 20
68.0000
 30
0.0000
  0
SEQEND
  8
0
  0
POLYLINE
  8
20
 66
1
 10
0.0000
 20
0.0000
 30
0.0000
 40
0.0005
 41
0.0005
 70
0
  0
VERTEX
  8
20
 10
67.1502
 20
68.0000
 30
0.0000
 42
1.0000
  0
VERTEX
  8
20
 10
67.1498
 20
68.0000
 30
0.0000
  0
SEQEND
  8
0
  0
POLYLINE
  8
20
 66
1
 10
0.0000
 20
0.0000
 30
0.0000
 40
0.0005
 41
0.0005
 70
0
  0
VERTEX
  8
20
 10
67.1498
 20
63.4000
 30
0.0000
 42
1.0000
  0
VERTEX
  8
20
 10
67.1502
 20
63.4000
 30
0.0000
  0
SEQEND
  8
0
  0
POLYLINE
  8
20
 66
1
 10
0.0000
 20
0.0000
 30
0.0000
 40
0.0010
 41
0.0010
 70
0
  0
VERTEX
  8
20
 10
77.4500
 20
68.0000
 30
0.0000
  0
VERTEX
  8
20
 10
77.4500
 20
63.4000
 30
0.0000
  0
SEQEND
  8
0
  0
POLYLINE
  8
20
 66
1
 10
0.0000
 20
0.0000
 30
0.0000
 40
0.0005
 41
0.0005
 70
0
  0
VERTEX
  8
20
 10
77.4498
 20
63.4000
 30
0.0000
 42
1.0000
  0
VERTEX
  8
20
 10
77.4502
 20
63.4000
 30
0.0000
  0
SEQEND
  8
0
  0
POLYLINE
  8
20
 66
1
 10
0.0000
 20
0.0000
 30
0.0000
 40
0.0005
 41
0.0005
 70
0
  0
VERTEX
  8
20
 10
77.4502
 20
68.0000
 30
0.0000
 42
1.0000
  0
VERTEX
  8
20
 10
77.4498
 20
68.0000
 30
0.0000
  0
SEQEND
  8
0
  0
POLYLINE
  8
20
 66
1
 10
0.0000
 20
0.0000
 30
0.0000
 40
0.0010
 41
0.0010
 70
0
  0
VERTEX
  8
20
 10
29.1500
 20
71.0000
 30
0.0000
  0
VERTEX
  8
20
 10
64.8500
 20
71.0000
 30
0.0000
  0
SEQEND
  8
0
  0
POLYLINE
  8
20
 66
1
 10
0.0000
 20
0.0000
 30
0.0000
 40
0.0005
 41
0.0005
 70
0
  0
VERTEX
  8
20
 10
64.8500
 20
70.9998
 30
0.0000
 42
1.0000
  0
VERTEX
  8
20
 10
64.8500
 20
71.0002
 30
0.0000
  0
SEQEND
  8
0
  0
POLYLINE
  8
20
 66
1
 10
0.0000
 20
0.0000
 30
0.0000
 40
0.0005
 41
0.0005
 70
0
  0
VERTEX
  8
20
 10
29.1500
 20
71.0002
 30
0.0000
 42
1.0000
  0
VERTEX
  8
20
 10
29.1500
 20
70.9998
 30
0.0000
  0
SEQEND
  8
0
  0
POLYLINE
  8
20
 66
1
 10
0.0000
 20
0.0000
 30
0.0000
 40
0.0010
 41
0.0010
 70
0
  0
VERTEX
  8
20
 10
11.2500
 20
63.0000
 30
0.0000
  0
VERTEX
  8
20
 10
64.8500
 20
63.0000
 30
0.0000
  0
SEQEND
  8
0
  0
POLYLINE
  8
20
 66
1
 10
0.0000
 20
0.0000
 30
0.0000
 40
0.0005
 41
0.0005
 70
0
  0
VERTEX
  8
20
 10
64.8500
 20
62.9997
 30
0.0000
 42
1.0000
  0
VERTEX
  8
20
 10
64.8500
 20
63.0003
 30
0.0000
  0
SEQEND
  8
0
  0
POLYLINE
  8
20
 66
1
 10
0.0000
 20
0.0000
 30
0.0000
 40
0.0005
 41
0.0005
 70
0
  0
VERTEX
  8
20
 10
11.2500
 20
63.0003
 30
0.0000
 42
1.0000
  0
VERTEX
  8
20
 10
11.2500
 20
62.9997
 30
0.0000
  0
SEQEND
  8
0
  0
LINE
  8
20
 10
28.8389
 20
20.9511
 30
0.0000
 11
30.2500
 21
22.0800
 31
0.0000
  0
LINE
  8
20
 10
30.2500
 20
22.0800
 30
0.0000
 11
30.2500
 21
17.0000
 31
0.0000
  0
LINE
  8
20
 10
28.8389
 20
17.0000
 30
0.0000
 11
31.6611
 21
17.0000
 31
0.0000
  0
ARC
  8
20
 10
43.3911
 20
20.8100
 30
0.0000
 40
1.2700
 50
0.0000
 51
90.0000
  0
ARC
  8
20
 10
43.3911
 20
20.4484
 30
0.0000
 40
1.6316
 50
90.0000
 51
162.0547
  0
ARC
  8
20
 10
43.2970
 20
20.8100
 30
0.0000
 40
1.3641
 50
313.6028
 51
359.9999
  0
LINE
  8
20
 10
44.2378
 20
19.8222
 30
0.0000
 11
41.8389
 21
17.0000
 31
0.0000
  0
LINE
  8
20
 10
41.8389
 20
17.0000
 30
0.0000
 11
44.6611
 21
17.0000
 31
0.0000
  0
LINE
  8
20
 10
54.8389
 20
17.0000
 30
0.0000
 11
56.2500
 21
17.0000
 31
0.0000
  0
ARC
  8
20
 10
56.2500
 20
18.4111
 30
0.0000
 40
1.4111
 50
270.0000
 51
90.0000
  0
LINE
  8
20
 10
54.8389
 20
22.0800
 30
0.0000
 11
56.5322
 21
22.0800
 31
0.0000
  0
ARC
  8
20
 10
56.5322
 20
20.9511
 30
0.0000
 40
1.1289
 50
270.0000
 51
90.0000
  0
LINE
  8
20
 10
56.5322
 20
19.8222
 30
0.0000
 11
55.4033
 21
19.8222
 31
0.0000
  0
LINE
  8
20
 10
68.9678
 20
22.0800
 30
0.0000
 11
67.8389
 21
18.1289
 31
0.0000
  0
LINE
  8
20
 10
67.8389
 20
18.1289
 30
0.0000
 11
70.6611
 21
18.1289
 31
0.0000
  0
LINE
  8
20
 10
69.8144
 20
19.2578
 30
0.0000
 11
69.8144
 21
17.0000
 31
0.0000
  0
LINE
  8
20
 10
80.8389
 20
17.0000
 30
0.0000
 11
82.5322
 21
17.0000
 31
0.0000
  0
ARC
  8
20
 10
82.5322
 20
18.1289
 30
0.0000
 40
1.1289
 50
270.0000
 51
359.9998
  0
LINE
  8
20
 10
83.6611
 20
18.1289
 30
0.0000
 11
83.6611
 21
18.6933
 31
0.0000
  0
ARC
  8
20
 10
82.5322
 20
18.6933
 30
0.0000
 40
1.1289
 50
0.0000
 51
90.0000
  0
LINE
  8
20
 10
82.5322
 20
19.8222
 30
0.0000
 11
80.8389
 21
19.8222
 31
0.0000
  0
LINE
  8
20
 10
80.8389
 20
19.8222
 30
0.0000
 11
80.8389
 21
22.0800
 31
0.0000
  0
LINE
  8
20
 10
80.8389
 20
22.0800
 30
0.0000
 11
83.6611
 21
22.0800
 31
0.0000
  0
LINE
  8
20
 10
93.8389
 20
19.8222
 30
0.0000
 11
95.5322
 21
19.8222
 31
0.0000
  0
ARC
  8
20
 10
95.5322
 20
18.6933
 30
0.0000
 40
1.1289
 50
0.0000
 51
90.0000
  0
LINE
  8
20
 10
96.6611
 20
18.6933
 30
0.0000
 11
96.6611
 21
18.4111
 31
0.0000
  0
ARC
  8
20
 10
95.2500
 20
18.4111
 30
0.0000
 40
1.4111
 50
180.0000
 51
0.0000
  0
LINE
  8
20
 10
93.8389
 20
18.4111
 30
0.0000
 11
93.8389
 21
19.8222
 31
0.0000
  0
ARC
  8
20
 10
96.0967
 20
19.8222
 30
0.0000
 40
2.2578
 50
90.0001
 51
180.0000
  0
LINE
  8
20
 10
49.5568
 20
24.6000
 30
0.0000
 11
50.2624
 21
24.6000
 31
0.0000
  0
ARC
  8
20
 10
50.2624
 20
25.3056
 30
0.0000
 40
0.7056
 50
270.0000
 51
90.0000
  0
LINE
  8
20
 10
49.5568
 20
27.1400
 30
0.0000
 11
50.4035
 21
27.1400
 31
0.0000
  0
ARC
  8
20
 10
50.4035
 20
26.5756
 30
0.0000
 40
0.5644
 50
270.0000
 51
90.0000
  0
LINE
  8
20
 10
50.4035
 20
26.0111
 30
0.0000
 11
49.8391
 21
26.0111
 31
0.0000
  0
LINE
  8
20
 10
51.6447
 20
24.6000
 30
0.0000
 11
52.3503
 21
24.6000
 31
0.0000
  0
ARC
  8
20
 10
52.3503
 20
25.3056
 30
0.0000
 40
0.7056
 50
270.0000
 51
90.0000
  0
LINE
  8
20
 10
51.6447
 20
27.1400
 30
0.0000
 11
52.4914
 21
27.1400
 31
0.0000
  0
ARC
  8
20
 10
52.4914
 20
26.5756
 30
0.0000
 40
0.5644
 50
270.0000
 51
90.0000
  0
LINE
  8
20
 10
52.4914
 20
26.0111
 30
0.0000
 11
51.9269
 21
26.0111
 31
0.0000
  0
LINE
  8
20
 10
53.7326
 20
24.6000
 30
0.0000
 11
54.4382
 21
24.6000
 31
0.0000
  0
ARC
  8
20
 10
54.4382
 20
25.3056
 30
0.0000
 40
0.7056
 50
270.0000
 51
90.0000
  0
LINE
  8
20
 10
53.7326
 20
27.1400
 30
0.0000
 11
54.5793
 21
27.1400
 31
0.0000
  0
ARC
  8
20
 10
54.5793
 20
26.5756
 30
0.0000
 40
0.5644
 50
270.0000
 51
90.0000
  0
LINE
  8
20
 10
54.5793
 20
26.0111
 30
0.0000
 11
54.0148
 21
26.0111
 31
0.0000
  0
LINE
  8
20
 10
55.8882
 20
24.6000
 30
0.0000
 11
55.8882
 21
26.2933
 31
0.0000
  0
LINE
  8
20
 10
55.8882
 20
26.2933
 30
0.0000
 11
57.1582
 21
26.2933
 31
0.0000
  0
ARC
  8
20
 10
57.1582
 20
25.8700
 30
0.0000
 40
0.4233
 50
0.0000
 51
90.0000
  0
LINE
  8
20
 10
57.5815
 20
25.8700
 30
0.0000
 11
57.5815
 21
24.6000
 31
0.0000
  0
LINE
  8
20
 10
56.7348
 20
24.6000
 30
0.0000
 11
56.7348
 21
26.2933
 31
0.0000
  0
LINE
  8
20
 10
58.1848
 20
27.1400
 30
0.0000
 11
59.0315
 21
24.6000
 31
0.0000
  0
LINE
  8
20
 10
59.0315
 20
24.6000
 30
0.0000
 11
59.8782
 21
27.1400
 31
0.0000
  0
LINE
  8
20
 10
62.6567
 20
24.6000
 30
0.0000
 11
62.0923
 21
24.6000
 31
0.0000
  0
ARC
  8
20
 10
62.0923
 20
25.1644
 30
0.0000
 40
0.5644
 50
180.0000
 51
270.0000
  0
LINE
  8
20
 10
61.5278
 20
25.1644
 30
0.0000
 11
61.5278
 21
26.5756
 31
0.0000
  0
ARC
  8
20
 10
62.0923
 20
26.5756
 30
0.0000
 40
0.5644
 50
90.0003
 51
180.0000
  0
LINE
  8
20
 10
62.0923
 20
27.1400
 30
0.0000
 11
62.6567
 21
27.1400
 31
0.0000
  0
LINE
  8
20
 10
63.8336
 20
24.6000
 30
0.0000
 11
63.8336
 21
27.1400
 31
0.0000
  0
LINE
  8
20
 10
63.1281
 20
27.1400
 30
0.0000
 11
64.5392
 21
27.1400
 31
0.0000
  0
LINE
  8
20
 10
66.4783
 20
27.1400
 30
0.0000
 11
66.4783
 21
24.6000
 31
0.0000
  0
LINE
  8
20
 10
66.1960
 20
24.6000
 30
0.0000
 11
66.7605
 21
24.6000
 31
0.0000
  0
LINE
  8
20
 10
66.1960
 20
27.1400
 30
0.0000
 11
66.7605
 21
27.1400
 31
0.0000
  0
LINE
  8
20
 10
67.5145
 20
24.6000
 30
0.0000
 11
67.5145
 21
26.2933
 31
0.0000
  0
LINE
  8
20
 10
67.5145
 20
26.2933
 30
0.0000
 11
68.2201
 21
26.2933
 31
0.0000
  0
ARC
  8
20
 10
68.2201
 20
25.8700
 30
0.0000
 40
0.4233
 50
0.0004
 51
90.0000
  0
LINE
  8
20
 10
68.6434
 20
25.8700
 30
0.0000
 11
68.6434
 21
24.6000
 31
0.0000
  0
LINE
  8
20
 10
69.4622
 20
23.7533
 30
0.0000
 11
69.4622
 21
26.2933
 31
0.0000
  0
LINE
  8
20
 10
69.4622
 20
26.2933
 30
0.0000
 11
70.1677
 21
26.2933
 31
0.0000
  0
ARC
  8
20
 10
70.1677
 20
25.8700
 30
0.0000
 40
0.4233
 50
0.0004
 51
90.0000
  0
LINE
  8
20
 10
70.5911
 20
25.8700
 30
0.0000
 11
70.5911
 21
25.0233
 31
0.0000
  0
ARC
  8
20
 10
70.1677
 20
25.0233
 30
0.0000
 40
0.4233
 50
270.0000
 51
0.0000
  0
LINE
  8
20
 10
70.1677
 20
24.6000
 30
0.0000
 11
69.4622
 21
24.6000
 31
0.0000
  0
LINE
  8
20
 10
71.3423
 20
26.2933
 30
0.0000
 11
71.3423
 21
25.0233
 31
0.0000
  0
ARC
  8
20
 10
71.7656
 20
25.0233
 30
0.0000
 40
0.4233
 50
180.0000
 51
270.0000
  0
LINE
  8
20
 10
71.7656
 20
24.6000
 30
0.0000
 11
72.4712
 21
24.6000
 31
0.0000
  0
LINE
  8
20
 10
72.4712
 20
24.6000
 30
0.0000
 11
72.4712
 21
26.2933
 31
0.0000
  0
LINE
  8
20
 10
73.0858
 20
26.2933
 30
0.0000
 11
73.9325
 21
26.2933
 31
0.0000
  0
LINE
  8
20
 10
73.3681
 20
27.1400
 30
0.0000
 11
73.3681
 21
25.0233
 31
0.0000
  0
ARC
  8
20
 10
73.7914
 20
25.0233
 30
0.0000
 40
0.4233
 50
180.0000
 51
270.0000
  0
LINE
  8
20
 10
73.7914
 20
24.6000
 30
0.0000
 11
73.9325
 21
24.6000
 31
0.0000
  0
LINE
  8
20
 10
75.4609
 20
25.3056
 30
0.0000
 11
74.7554
 21
25.5878
 31
0.0000
  0
ARC
  8
20
 10
74.8913
 20
25.9275
 30
0.0000
 40
0.3659
 50
89.1818
 51
248.1987
  0
ARC
  8
20
 10
74.8736
 20
24.6910
 30
0.0000
 40
1.6025
 50
65.7609
 51
89.1817
  0
ARC
  8
20
 10
75.3251
 20
24.9658
 30
0.0000
 40
0.3659
 50
269.1817
 51
68.1987
  0
ARC
  8
20
 10
75.3540
 20
26.9929
 30
0.0000
 40
2.3931
 50
250.2088
 51
269.1818
  0
LINE
  8
20
 10
12.6286
 20
24.0000
 30
0.0000
 11
11.9230
 21
24.0000
 31
0.0000
  0
ARC
  8
20
 10
11.9230
 20
24.4233
 30
0.0000
 40
0.4233
 50
180.0000
 51
270.0000
  0
LINE
  8
20
 10
11.4997
 20
24.4233
 30
0.0000
 11
11.4997
 21
25.1289
 31
0.0000
  0
ARC
  8
20
 10
12.0641
 20
25.1289
 30
0.0000
 40
0.5644
 50
0.0000
 51
180.0000
  0
LINE
  8
20
 10
12.6286
 20
25.1289
 30
0.0000
 11
12.6286
 21
24.8467
 31
0.0000
  0
LINE
  8
20
 10
12.6286
 20
24.8467
 30
0.0000
 11
11.4997
 21
24.8467
 31
0.0000
  0
LINE
  8
20
 10
13.3750
 20
24.0000
 30
0.0000
 11
13.3750
 21
25.6933
 31
0.0000
  0
LINE
  8
20
 10
13.3750
 20
25.6933
 30
0.0000
 11
14.6450
 21
25.6933
 31
0.0000
  0
ARC
  8
20
 10
14.6450
 20
25.2700
 30
0.0000
 40
0.4233
 50
0.0000
 51
90.0000
  0
LINE
  8
20
 10
15.0683
 20
25.2700
 30
0.0000
 11
15.0683
 21
24.0000
 31
0.0000
  0
LINE
  8
20
 10
14.2216
 20
24.0000
 30
0.0000
 11
14.2216
 21
25.6933
 31
0.0000
  0
LINE
  8
20
 10
15.8146
 20
24.5644
 30
0.0000
 11
15.8146
 21
25.1289
 31
0.0000
  0
ARC
  8
20
 10
16.3791
 20
25.1289
 30
0.0000
 40
0.5644
 50
0.0000
 51
180.0000
  0
LINE
  8
20
 10
16.9435
 20
25.1289
 30
0.0000
 11
16.9435
 21
24.5644
 31
0.0000
  0
ARC
  8
20
 10
16.3791
 20
24.5644
 30
0.0000
 40
0.5644
 50
180.0000
 51
0.0000
  0
LINE
  8
20
 10
17.6937
 20
24.0000
 30
0.0000
 11
17.6937
 21
25.6933
 31
0.0000
  0
LINE
  8
20
 10
17.6937
 20
25.6933
 30
0.0000
 11
18.3993
 21
25.6933
 31
0.0000
  0
ARC
  8
20
 10
18.3993
 20
25.2700
 30
0.0000
 40
0.4233
 50
0.0004
 51
90.0000
  0
LINE
  8
20
 10
18.8226
 20
25.2700
 30
0.0000
 11
18.8226
 21
24.0000
 31
0.0000
  0
LINE
  8
20
 10
19.4298
 20
26.5400
 30
0.0000
 11
20.2765
 21
24.0000
 31
0.0000
  0
LINE
  8
20
 10
20.2765
 20
24.0000
 30
0.0000
 11
21.1231
 21
26.5400
 31
0.0000
  0
ARC
  8
20
 10
22.4359
 20
24.5644
 30
0.0000
 40
0.5644
 50
270.0000
 51
0.0000
  0
ARC
  8
20
 10
22.4359
 20
25.1924
 30
0.0000
 40
1.1924
 50
224.7606
 51
269.9999
  0
ARC
  8
20
 10
22.2242
 20
25.9756
 30
0.0000
 40
0.5644
 50
89.9997
 51
180.0000
  0
ARC
  8
20
 10
22.2242
 20
25.4817
 30
0.0000
 40
1.0583
 50
53.1301
 51
89.9997
  0
ARC
  8
20
 10
22.2330
 20
25.9756
 30
0.0000
 40
0.5733
 50
179.9999
 51
239.4899
  0
ARC
  8
20
 10
22.4270
 20
24.5644
 30
0.0000
 40
0.5733
 50
0.0000
 51
59.4898
  0
LINE
  8
20
 10
22.7181
 20
25.0583
 30
0.0000
 11
21.9420
 21
25.4817
 31
0.0000
  0
LINE
  8
20
 10
16.6871
 20
2.9583
 30
0.0000
 11
16.6871
 21
4.6517
 31
0.0000
  0
ARC
  8
20
 10
17.7454
 20
4.6517
 30
0.0000
 40
1.0583
 50
0.0000
 51
180.0000
  0
LINE
  8
20
 10
18.8037
 20
4.6517
 30
0.0000
 11
18.8037
 21
2.9583
 31
0.0000
  0
ARC
  8
20
 10
17.7454
 20
2.9583
 30
0.0000
 40
1.0583
 50
180.0000
 51
0.0000
  0
LINE
  8
20
 10
19.6489
 20
0.6300
 30
0.0000
 11
19.6489
 21
4.4400
 31
0.0000
  0
LINE
  8
20
 10
19.6489
 20
4.4400
 30
0.0000
 11
20.7072
 21
4.4400
 31
0.0000
  0
ARC
  8
20
 10
20.7072
 20
3.8050
 30
0.0000
 40
0.6350
 50
0.0000
 51
90.0000
  0
LINE
  8
20
 10
21.3422
 20
3.8050
 30
0.0000
 11
21.3422
 21
2.5350
 31
0.0000
  0
ARC
  8
20
 10
20.7072
 20
2.5350
 30
0.0000
 40
0.6350
 50
270.0000
 51
0.0000
  0
LINE
  8
20
 10
20.7072
 20
1.9000
 30
0.0000
 11
19.6489
 21
1.9000
 31
0.0000
  0
LINE
  8
20
 10
23.8308
 20
1.9000
 30
0.0000
 11
22.7725
 21
1.9000
 31
0.0000
  0
ARC
  8
20
 10
22.7725
 20
2.5350
 30
0.0000
 40
0.6350
 50
180.0000
 51
270.0000
  0
LINE
  8
20
 10
22.1375
 20
2.5350
 30
0.0000
 11
22.1375
 21
3.5933
 31
0.0000
  0
ARC
  8
20
 10
22.9841
 20
3.5933
 30
0.0000
 40
0.8467
 50
0.0000
 51
180.0000
  0
LINE
  8
20
 10
23.8308
 20
3.5933
 30
0.0000
 11
23.8308
 21
3.1700
 31
0.0000
  0
LINE
  8
20
 10
23.8308
 20
3.1700
 30
0.0000
 11
22.1375
 21
3.1700
 31
0.0000
  0
LINE
  8
20
 10
24.7092
 20
1.9000
 30
0.0000
 11
24.7092
 21
4.4400
 31
0.0000
  0
LINE
  8
20
 10
24.7092
 20
4.4400
 30
0.0000
 11
25.7675
 21
4.4400
 31
0.0000
  0
ARC
  8
20
 10
25.7675
 20
3.8050
 30
0.0000
 40
0.6350
 50
0.0000
 51
90.0000
  0
LINE
  8
20
 10
26.4026
 20
3.8050
 30
0.0000
 11
26.4026
 21
1.9000
 31
0.0000
  0
LINE
  8
20
 10
29.0413
 20
1.9000
 30
0.0000
 11
27.3480
 21
1.9000
 31
0.0000
  0
LINE
  8
20
 10
27.3480
 20
1.9000
 30
0.0000
 11
27.3480
 21
5.7100
 31
0.0000
  0
LINE
  8
20
 10
27.3480
 20
5.7100
 30
0.0000
 11
29.0413
 21
5.7100
 31
0.0000
  0
LINE
  8
20
 10
27.3480
 20
4.0167
 30
0.0000
 11
28.6180
 21
4.0167
 31
0.0000
  0
LINE
  8
20
 10
29.8527
 20
1.9000
 30
0.0000
 11
29.8527
 21
4.4400
 31
0.0000
  0
LINE
  8
20
 10
29.8527
 20
4.4400
 30
0.0000
 11
30.9111
 21
4.4400
 31
0.0000
  0
ARC
  8
20
 10
30.9111
 20
3.8050
 30
0.0000
 40
0.6350
 50
0.0000
 51
90.0000
  0
LINE
  8
20
 10
31.5461
 20
3.8050
 30
0.0000
 11
31.5461
 21
1.9000
 31
0.0000
  0
LINE
  8
20
 10
34.1178
 20
1.9000
 30
0.0000
 11
33.0595
 21
1.9000
 31
0.0000
  0
ARC
  8
20
 10
33.0595
 20
2.5350
 30
0.0000
 40
0.6350
 50
180.0000
 51
270.0000
  0
LINE
  8
20
 10
32.4245
 20
2.5350
 30
0.0000
 11
32.4245
 21
3.5933
 31
0.0000
  0
ARC
  8
20
 10
33.2711
 20
3.5933
 30
0.0000
 40
0.8467
 50
0.0000
 51
180.0000
  0
LINE
  8
20
 10
34.1178
 20
3.5933
 30
0.0000
 11
34.1178
 21
3.1700
 31
0.0000
  0
LINE
  8
20
 10
34.1178
 20
3.1700
 30
0.0000
 11
32.4245
 21
3.1700
 31
0.0000
  0
LINE
  8
20
 10
34.9793
 20
1.9000
 30
0.0000
 11
34.9793
 21
4.4400
 31
0.0000
  0
LINE
  8
20
 10
34.9793
 20
4.4400
 30
0.0000
 11
36.2493
 21
4.4400
 31
0.0000
  0
LINE
  8
20
 10
36.2493
 20
4.4400
 30
0.0000
 11
36.2493
 21
4.0167
 31
0.0000
  0
LINE
  8
20
 10
38.6066
 20
1.9000
 30
0.0000
 11
37.5483
 21
1.9000
 31
0.0000
  0
ARC
  8
20
 10
37.5483
 20
2.5350
 30
0.0000
 40
0.6350
 50
180.0000
 51
270.0000
  0
LINE
  8
20
 10
36.9133
 20
2.5350
 30
0.0000
 11
36.9133
 21
3.8050
 31
0.0000
  0
ARC
  8
20
 10
37.5483
 20
3.8050
 30
0.0000
 40
0.6350
 50
90.0000
 51
180.0000
  0
LINE
  8
20
 10
37.5483
 20
4.4400
 30
0.0000
 11
38.6066
 21
4.4400
 31
0.0000
  0
LINE
  8
20
 10
38.6066
 20
4.4400
 30
0.0000
 11
38.6066
 21
1.2650
 31
0.0000
  0
ARC
  8
20
 10
37.9716
 20
1.2650
 30
0.0000
 40
0.6350
 50
270.0000
 51
0.0000
  0
LINE
  8
20
 10
37.9716
 20
0.6300
 30
0.0000
 11
37.1250
 21
0.6300
 31
0.0000
  0
LINE
  8
20
 10
39.3777
 20
0.6300
 30
0.0000
 11
39.8010
 21
0.6300
 31
0.0000
  0
LINE
  8
20
 10
39.8010
 20
0.6300
 30
0.0000
 11
41.0710
 21
4.4400
 31
0.0000
  0
LINE
  8
20
 10
39.3777
 20
4.4400
 30
0.0000
 11
40.2244
 21
1.9000
 31
0.0000
  0
LINE
  8
20
 10
41.8119
 20
1.9000
 30
0.0000
 11
41.8119
 21
5.7100
 31
0.0000
  0
LINE
  8
20
 10
41.8119
 20
5.7100
 30
0.0000
 11
43.0819
 21
3.5933
 31
0.0000
  0
LINE
  8
20
 10
43.0819
 20
3.5933
 30
0.0000
 11
44.3519
 21
5.7100
 31
0.0000
  0
LINE
  8
20
 10
44.3519
 20
5.7100
 30
0.0000
 11
44.3519
 21
1.9000
 31
0.0000
  0
LINE
  8
20
 10
45.1880
 20
2.7467
 30
0.0000
 11
45.1880
 21
3.5933
 31
0.0000
  0
ARC
  8
20
 10
46.0346
 20
3.5933
 30
0.0000
 40
0.8467
 50
0.0000
 51
180.0000
  0
LINE
  8
20
 10
46.8813
 20
3.5933
 30
0.0000
 11
46.8813
 21
2.7467
 31
0.0000
  0
ARC
  8
20
 10
46.0346
 20
2.7467
 30
0.0000
 40
0.8467
 50
180.0000
 51
0.0000
  0
LINE
  8
20
 10
47.7597
 20
1.9000
 30
0.0000
 11
47.7597
 21
4.4400
 31
0.0000
  0
LINE
  8
20
 10
47.7597
 20
4.4400
 30
0.0000
 11
48.8180
 21
4.4400
 31
0.0000
  0
ARC
  8
20
 10
48.8180
 20
3.8050
 30
0.0000
 40
0.6350
 50
0.0000
 51
90.0000
  0
LINE
  8
20
 10
49.4530
 20
3.8050
 30
0.0000
 11
49.4530
 21
1.9000
 31
0.0000
  0
LINE
  8
20
 10
50.5114
 20
1.9000
 30
0.0000
 11
50.5114
 21
4.4400
 31
0.0000
  0
LINE
  8
20
 10
50.4055
 20
5.4983
 30
0.0000
 11
50.4055
 21
5.7100
 31
0.0000
  0
LINE
  8
20
 10
50.4055
 20
5.7100
 30
0.0000
 11
50.6172
 21
5.7100
 31
0.0000
  0
LINE
  8
20
 10
50.6172
 20
5.7100
 30
0.0000
 11
50.6172
 21
5.4983
 31
0.0000
  0
LINE
  8
20
 10
50.6172
 20
5.4983
 30
0.0000
 11
50.4055
 21
5.4983
 31
0.0000
  0
LINE
  8
20
 10
51.3263
 20
4.4400
 30
0.0000
 11
52.5963
 21
4.4400
 31
0.0000
  0
LINE
  8
20
 10
51.7496
 20
5.7100
 30
0.0000
 11
51.7496
 21
2.5350
 31
0.0000
  0
ARC
  8
20
 10
52.3846
 20
2.5350
 30
0.0000
 40
0.6350
 50
180.0000
 51
270.0000
  0
LINE
  8
20
 10
52.3846
 20
1.9000
 30
0.0000
 11
52.5963
 21
1.9000
 31
0.0000
  0
LINE
  8
20
 10
53.2842
 20
2.7467
 30
0.0000
 11
53.2842
 21
3.5933
 31
0.0000
  0
ARC
  8
20
 10
54.1309
 20
3.5933
 30
0.0000
 40
0.8467
 50
0.0000
 51
180.0000
  0
LINE
  8
20
 10
54.9775
 20
3.5933
 30
0.0000
 11
54.9775
 21
2.7467
 31
0.0000
  0
ARC
  8
20
 10
54.1309
 20
2.7467
 30
0.0000
 40
0.8467
 50
180.0000
 51
0.0000
  0
LINE
  8
20
 10
55.8390
 20
1.9000
 30
0.0000
 11
55.8390
 21
4.4400
 31
0.0000
  0
LINE
  8
20
 10
55.8390
 20
4.4400
 30
0.0000
 11
57.1090
 21
4.4400
 31
0.0000
  0
LINE
  8
20
 10
57.1090
 20
4.4400
 30
0.0000
 11
57.1090
 21
4.0167
 31
0.0000
  0
LINE
  8
20
 10
57.8350
 20
1.9000
 30
0.0000
 11
57.8350
 21
2.1117
 31
0.0000
  0
LINE
  8
20
 10
57.8350
 20
2.1117
 30
0.0000
 11
58.0467
 21
2.1117
 31
0.0000
  0
LINE
  8
20
 10
58.0467
 20
2.1117
 30
0.0000
 11
58.0467
 21
1.9000
 31
0.0000
  0
LINE
  8
20
 10
58.0467
 20
1.9000
 30
0.0000
 11
57.8350
 21
1.9000
 31
0.0000
  0
LINE
  8
20
 10
58.9040
 20
2.7467
 30
0.0000
 11
58.9040
 21
3.5933
 31
0.0000
  0
ARC
  8
20
 10
59.7506
 20
3.5933
 30
0.0000
 40
0.8467
 50
0.0000
 51
180.0000
  0
LINE
  8
20
 10
60.5973
 20
3.5933
 30
0.0000
 11
60.5973
 21
2.7467
 31
0.0000
  0
ARC
  8
20
 10
59.7506
 20
2.7467
 30
0.0000
 40
0.8467
 50
180.0000
 51
0.0000
  0
LINE
  8
20
 10
61.4588
 20
1.9000
 30
0.0000
 11
61.4588
 21
4.4400
 31
0.0000
  0
LINE
  8
20
 10
61.4588
 20
4.4400
 30
0.0000
 11
62.7288
 21
4.4400
 31
0.0000
  0
LINE
  8
20
 10
62.7288
 20
4.4400
 30
0.0000
 11
62.7288
 21
4.0167
 31
0.0000
  0
LINE
  8
20
 10
65.0861
 20
1.9000
 30
0.0000
 11
64.0278
 21
1.9000
 31
0.0000
  0
ARC
  8
20
 10
64.0278
 20
2.5350
 30
0.0000
 40
0.6350
 50
180.0000
 51
270.0000
  0
LINE
  8
20
 10
63.3928
 20
2.5350
 30
0.0000
 11
63.3928
 21
3.8050
 31
0.0000
  0
ARC
  8
20
 10
64.0278
 20
3.8050
 30
0.0000
 40
0.6350
 50
90.0000
 51
180.0000
  0
LINE
  8
20
 10
64.0278
 20
4.4400
 30
0.0000
 11
65.0861
 21
4.4400
 31
0.0000
  0
LINE
  8
20
 10
65.0861
 20
4.4400
 30
0.0000
 11
65.0861
 21
1.2650
 31
0.0000
  0
ARC
  8
20
 10
64.4511
 20
1.2650
 30
0.0000
 40
0.6350
 50
270.0000
 51
0.0000
  0
LINE
  8
20
 10
64.4511
 20
0.6300
 30
0.0000
 11
63.6045
 21
0.6300
 31
0.0000
  0
LINE
  8
20
 10
72.2178
 20
1.9000
 30
0.0000
 11
71.1595
 21
1.9000
 31
0.0000
  0
ARC
  8
20
 10
71.1595
 20
2.5350
 30
0.0000
 40
0.6350
 50
180.0000
 51
270.0000
  0
LINE
  8
20
 10
70.5245
 20
2.5350
 30
0.0000
 11
70.5245
 21
3.5933
 31
0.0000
  0
ARC
  8
20
 10
71.3711
 20
3.5933
 30
0.0000
 40
0.8467
 50
0.0000
 51
180.0000
  0
LINE
  8
20
 10
72.2178
 20
3.5933
 30
0.0000
 11
72.2178
 21
3.1700
 31
0.0000
  0
LINE
  8
20
 10
72.2178
 20
3.1700
 30
0.0000
 11
70.5245
 21
3.1700
 31
0.0000
  0
LINE
  8
20
 10
73.0539
 20
1.9000
 30
0.0000
 11
73.0539
 21
4.4400
 31
0.0000
  0
LINE
  8
20
 10
73.0539
 20
4.4400
 30
0.0000
 11
74.9589
 21
4.4400
 31
0.0000
  0
ARC
  8
20
 10
74.9589
 20
3.8050
 30
0.0000
 40
0.6350
 50
0.0000
 51
90.0000
  0
LINE
  8
20
 10
75.5939
 20
3.8050
 30
0.0000
 11
75.5939
 21
1.9000
 31
0.0000
  0
LINE
  8
20
 10
74.3239
 20
1.9000
 30
0.0000
 11
74.3239
 21
4.4400
 31
0.0000
  0
LINE
  8
20
 10
76.4300
 20
2.7467
 30
0.0000
 11
76.4300
 21
3.5933
 31
0.0000
  0
ARC
  8
20
 10
77.2766
 20
3.5933
 30
0.0000
 40
0.8467
 50
0.0000
 51
180.0000
  0
LINE
  8
20
 10
78.1233
 20
3.5933
 30
0.0000
 11
78.1233
 21
2.7467
 31
0.0000
  0
ARC
  8
20
 10
77.2766
 20
2.7467
 30
0.0000
 40
0.8467
 50
180.0000
 51
0.0000
  0
LINE
  8
20
 10
79.0017
 20
1.9000
 30
0.0000
 11
79.0017
 21
4.4400
 31
0.0000
  0
LINE
  8
20
 10
79.0017
 20
4.4400
 30
0.0000
 11
80.0600
 21
4.4400
 31
0.0000
  0
ARC
  8
20
 10
80.0600
 20
3.8050
 30
0.0000
 40
0.6350
 50
0.0000
 51
90.0000
  0
LINE
  8
20
 10
80.6950
 20
3.8050
 30
0.0000
 11
80.6950
 21
1.9000
 31
0.0000
  0
LINE
  8
20
 10
82.4201
 20
1.9000
 30
0.0000
 11
82.4201
 21
5.7100
 31
0.0000
  0
LINE
  8
20
 10
81.3618
 20
5.7100
 30
0.0000
 11
83.4785
 21
5.7100
 31
0.0000
  0
LINE
  8
20
 10
83.9547
 20
1.9000
 30
0.0000
 11
85.6480
 21
4.4400
 31
0.0000
  0
LINE
  8
20
 10
83.9547
 20
4.4400
 30
0.0000
 11
85.6480
 21
1.9000
 31
0.0000
  0
LINE
  8
20
 10
87.6271
 20
5.7100
 30
0.0000
 11
88.8971
 21
1.9000
 31
0.0000
  0
LINE
  8
20
 10
88.8971
 20
1.9000
 30
0.0000
 11
90.1671
 21
5.7100
 31
0.0000
  0
LINE
  8
20
 10
91.5429
 20
5.7100
 30
0.0000
 11
90.6963
 21
2.7467
 31
0.0000
  0
LINE
  8
20
 10
90.6963
 20
2.7467
 30
0.0000
 11
92.8129
 21
2.7467
 31
0.0000
  0
LINE
  8
20
 10
92.1779
 20
3.5933
 30
0.0000
 11
92.1779
 21
1.9000
 31
0.0000
  0
LINE
  8
20
 10
68.6018
 20
73.3100
 30
0.0000
 11
68.6018
 21
70.5583
 31
0.0000
  0
ARC
  8
20
 10
69.6601
 20
70.5583
 30
0.0000
 40
1.0583
 50
180.0000
 51
0.0000
  0
LINE
  8
20
 10
70.7185
 20
70.5583
 30
0.0000
 11
70.7185
 21
73.3100
 31
0.0000
  0
ARC
  8
20
 10
72.7293
 20
70.3467
 30
0.0000
 40
0.8467
 50
270.0002
 51
0.0000
  0
ARC
  8
20
 10
72.7293
 20
71.2886
 30
0.0000
 40
1.7886
 50
224.7601
 51
270.0002
  0
ARC
  8
20
 10
72.4118
 20
72.4633
 30
0.0000
 40
0.8467
 50
90.0000
 51
180.0000
  0
ARC
  8
20
 10
72.4118
 20
71.7225
 30
0.0000
 40
1.5875
 50
53.1301
 51
90.0000
  0
ARC
  8
20
 10
72.4250
 20
72.4633
 30
0.0000
 40
0.8599
 50
180.0000
 51
239.4900
  0
ARC
  8
20
 10
72.7161
 20
70.3467
 30
0.0000
 40
0.8599
 50
0.0001
 51
59.4899
  0
LINE
  8
20
 10
73.1526
 20
71.0875
 30
0.0000
 11
71.9885
 21
71.7225
 31
0.0000
  0
LINE
  8
20
 10
74.2815
 20
71.6167
 30
0.0000
 11
75.3399
 21
71.6167
 31
0.0000
  0
ARC
  8
20
 10
75.3399
 20
70.5583
 30
0.0000
 40
1.0583
 50
270.0000
 51
90.0000
  0
LINE
  8
20
 10
75.3399
 20
69.5000
 30
0.0000
 11
74.2815
 21
69.5000
 31
0.0000
  0
LINE
  8
20
 10
74.2815
 20
69.5000
 30
0.0000
 11
74.2815
 21
73.3100
 31
0.0000
  0
LINE
  8
20
 10
74.2815
 20
73.3100
 30
0.0000
 11
75.3399
 21
73.3100
 31
0.0000
  0
ARC
  8
20
 10
75.3399
 20
72.4633
 30
0.0000
 40
0.8467
 50
270.0000
 51
90.0000
  0
LINE
  8
20
 10
32.4730
 20
81.9400
 30
0.0000
 11
33.7430
 21
81.9400
 31
0.0000
  0
LINE
  8
20
 10
32.8963
 20
83.2100
 30
0.0000
 11
32.8963
 21
80.0350
 31
0.0000
  0
ARC
  8
20
 10
33.5313
 20
80.0350
 30
0.0000
 40
0.6350
 50
180.0000
 51
270.0000
  0
LINE
  8
20
 10
33.5313
 20
79.4000
 30
0.0000
 11
33.7430
 21
79.4000
 31
0.0000
  0
LINE
  8
20
 10
36.1243
 20
79.4000
 30
0.0000
 11
35.0659
 21
79.4000
 31
0.0000
  0
ARC
  8
20
 10
35.0659
 20
80.0350
 30
0.0000
 40
0.6350
 50
180.0000
 51
270.0000
  0
LINE
  8
20
 10
34.4309
 20
80.0350
 30
0.0000
 11
34.4309
 21
81.0933
 31
0.0000
  0
ARC
  8
20
 10
35.2776
 20
81.0933
 30
0.0000
 40
0.8467
 50
0.0000
 51
180.0000
  0
LINE
  8
20
 10
36.1243
 20
81.0933
 30
0.0000
 11
36.1243
 21
80.6700
 31
0.0000
  0
LINE
  8
20
 10
36.1243
 20
80.6700
 30
0.0000
 11
34.4309
 21
80.6700
 31
0.0000
  0
LINE
  8
20
 10
36.9603
 20
79.4000
 30
0.0000
 11
36.9603
 21
81.9400
 31
0.0000
  0
LINE
  8
20
 10
36.9603
 20
81.9400
 30
0.0000
 11
38.8653
 21
81.9400
 31
0.0000
  0
ARC
  8
20
 10
38.8653
 20
81.3050
 30
0.0000
 40
0.6350
 50
0.0000
 51
90.0000
  0
LINE
  8
20
 10
39.5003
 20
81.3050
 30
0.0000
 11
39.5003
 21
79.4000
 31
0.0000
  0
LINE
  8
20
 10
38.2303
 20
79.4000
 30
0.0000
 11
38.2303
 21
81.9400
 31
0.0000
  0
LINE
  8
20
 10
40.4196
 20
78.1300
 30
0.0000
 11
40.4196
 21
81.9400
 31
0.0000
  0
LINE
  8
20
 10
40.4196
 20
81.9400
 30
0.0000
 11
41.4779
 21
81.9400
 31
0.0000
  0
ARC
  8
20
 10
41.4779
 20
81.3050
 30
0.0000
 40
0.6350
 50
0.0000
 51
90.0000
  0
LINE
  8
20
 10
42.1129
 20
81.3050
 30
0.0000
 11
42.1129
 21
80.0350
 31
0.0000
  0
ARC
  8
20
 10
41.4779
 20
80.0350
 30
0.0000
 40
0.6350
 50
270.0000
 51
0.0000
  0
LINE
  8
20
 10
41.4779
 20
79.4000
 30
0.0000
 11
40.4196
 21
79.4000
 31
0.0000
  0
LINE
  8
20
 10
44.6015
 20
79.4000
 30
0.0000
 11
43.5432
 21
79.4000
 31
0.0000
  0
ARC
  8
20
 10
43.5432
 20
80.0350
 30
0.0000
 40
0.6350
 50
180.0000
 51
270.0000
  0
LINE
  8
20
 10
42.9082
 20
80.0350
 30
0.0000
 11
42.9082
 21
81.0933
 31
0.0000
  0
ARC
  8
20
 10
43.7548
 20
81.0933
 30
0.0000
 40
0.8467
 50
0.0000
 51
180.0000
  0
LINE
  8
20
 10
44.6015
 20
81.0933
 30
0.0000
 11
44.6015
 21
80.6700
 31
0.0000
  0
LINE
  8
20
 10
44.6015
 20
80.6700
 30
0.0000
 11
42.9082
 21
80.6700
 31
0.0000
  0
LINE
  8
20
 10
45.4630
 20
79.4000
 30
0.0000
 11
45.4630
 21
81.9400
 31
0.0000
  0
LINE
  8
20
 10
45.4630
 20
81.9400
 30
0.0000
 11
46.7330
 21
81.9400
 31
0.0000
  0
LINE
  8
20
 10
46.7330
 20
81.9400
 30
0.0000
 11
46.7330
 21
81.5167
 31
0.0000
  0
LINE
  8
20
 10
49.0903
 20
80.8817
 30
0.0000
 11
48.1378
 21
80.8817
 31
0.0000
  0
ARC
  8
20
 10
48.1378
 20
80.1408
 30
0.0000
 40
0.7408
 50
90.0000
 51
270.0000
  0
LINE
  8
20
 10
48.1378
 20
79.4000
 30
0.0000
 11
49.0903
 21
79.4000
 31
0.0000
  0
LINE
  8
20
 10
49.0903
 20
79.4000
 30
0.0000
 11
49.0903
 21
81.3050
 31
0.0000
  0
ARC
  8
20
 10
48.4553
 20
81.3050
 30
0.0000
 40
0.6350
 50
0.0000
 51
90.0000
  0
LINE
  8
20
 10
48.4553
 20
81.9400
 30
0.0000
 11
47.6087
 21
81.9400
 31
0.0000
  0
LINE
  8
20
 10
49.8085
 20
81.9400
 30
0.0000
 11
51.0785
 21
81.9400
 31
0.0000
  0
LINE
  8
20
 10
50.2318
 20
83.2100
 30
0.0000
 11
50.2318
 21
80.0350
 31
0.0000
  0
ARC
  8
20
 10
50.8668
 20
80.0350
 30
0.0000
 40
0.6350
 50
180.0000
 51
270.0000
  0
LINE
  8
20
 10
50.8668
 20
79.4000
 30
0.0000
 11
51.0785
 21
79.4000
 31
0.0000
  0
LINE
  8
20
 10
51.8617
 20
81.9400
 30
0.0000
 11
51.8617
 21
80.0350
 31
0.0000
  0
ARC
  8
20
 10
52.4967
 20
80.0350
 30
0.0000
 40
0.6350
 50
180.0000
 51
270.0000
  0
LINE
  8
20
 10
52.4967
 20
79.4000
 30
0.0000
 11
53.5550
 21
79.4000
 31
0.0000
  0
LINE
  8
20
 10
53.5550
 20
79.4000
 30
0.0000
 11
53.5550
 21
81.9400
 31
0.0000
  0
LINE
  8
20
 10
54.5117
 20
79.4000
 30
0.0000
 11
54.5117
 21
81.9400
 31
0.0000
  0
LINE
  8
20
 10
54.5117
 20
81.9400
 30
0.0000
 11
55.7817
 21
81.9400
 31
0.0000
  0
LINE
  8
20
 10
55.7817
 20
81.9400
 30
0.0000
 11
55.7817
 21
81.5167
 31
0.0000
  0
LINE
  8
20
 10
58.1270
 20
79.4000
 30
0.0000
 11
57.0687
 21
79.4000
 31
0.0000
  0
ARC
  8
20
 10
57.0687
 20
80.0350
 30
0.0000
 40
0.6350
 50
180.0000
 51
270.0000
  0
LINE
  8
20
 10
56.4337
 20
80.0350
 30
0.0000
 11
56.4337
 21
81.0933
 31
0.0000
  0
ARC
  8
20
 10
57.2803
 20
81.0933
 30
0.0000
 40
0.8467
 50
0.0000
 51
180.0000
  0
LINE
  8
20
 10
58.1270
 20
81.0933
 30
0.0000
 11
58.1270
 21
80.6700
 31
0.0000
  0
LINE
  8
20
 10
58.1270
 20
80.6700
 30
0.0000
 11
56.4337
 21
80.6700
 31
0.0000
  0
LINE
  8
20
 10
17.3871
 20
58.1583
 30
0.0000
 11
17.3871
 21
59.8517
 31
0.0000
  0
ARC
  8
20
 10
18.4454
 20
59.8517
 30
0.0000
 40
1.0583
 50
0.0000
 51
180.0000
  0
LINE
  8
20
 10
19.5037
 20
59.8517
 30
0.0000
 11
19.5037
 21
58.1583
 31
0.0000
  0
ARC
  8
20
 10
18.4454
 20
58.1583
 30
0.0000
 40
1.0583
 50
180.0000
 51
0.0000
  0
LINE
  8
20
 10
20.3489
 20
55.8300
 30
0.0000
 11
20.3489
 21
59.6400
 31
0.0000
  0
LINE
  8
20
 10
20.3489
 20
59.6400
 30
0.0000
 11
21.4072
 21
59.6400
 31
0.0000
  0
ARC
  8
20
 10
21.4072
 20
59.0050
 30
0.0000
 40
0.6350
 50
0.0000
 51
90.0000
  0
LINE
  8
20
 10
22.0422
 20
59.0050
 30
0.0000
 11
22.0422
 21
57.7350
 31
0.0000
  0
ARC
  8
20
 10
21.4072
 20
57.7350
 30
0.0000
 40
0.6350
 50
270.0000
 51
0.0000
  0
LINE
  8
20
 10
21.4072
 20
57.1000
 30
0.0000
 11
20.3489
 21
57.1000
 31
0.0000
  0
LINE
  8
20
 10
24.5308
 20
57.1000
 30
0.0000
 11
23.4725
 21
57.1000
 31
0.0000
  0
ARC
  8
20
 10
23.4725
 20
57.7350
 30
0.0000
 40
0.6350
 50
180.0000
 51
270.0000
  0
LINE
  8
20
 10
22.8375
 20
57.7350
 30
0.0000
 11
22.8375
 21
58.7933
 31
0.0000
  0
ARC
  8
20
 10
23.6841
 20
58.7933
 30
0.0000
 40
0.8467
 50
0.0000
 51
180.0000
  0
LINE
  8
20
 10
24.5308
 20
58.7933
 30
0.0000
 11
24.5308
 21
58.3700
 31
0.0000
  0
LINE
  8
20
 10
24.5308
 20
58.3700
 30
0.0000
 11
22.8375
 21
58.3700
 31
0.0000
  0
LINE
  8
20
 10
25.4092
 20
57.1000
 30
0.0000
 11
25.4092
 21
59.6400
 31
0.0000
  0
LINE
  8
20
 10
25.4092
 20
59.6400
 30
0.0000
 11
26.4676
 21
59.6400
 31
0.0000
  0
ARC
  8
20
 10
26.4676
 20
59.0050
 30
0.0000
 40
0.6350
 50
0.0000
 51
90.0000
  0
LINE
  8
20
 10
27.1026
 20
59.0050
 30
0.0000
 11
27.1026
 21
57.1000
 31
0.0000
  0
LINE
  8
20
 10
29.7413
 20
57.1000
 30
0.0000
 11
28.0480
 21
57.1000
 31
0.0000
  0
LINE
  8
20
 10
28.0480
 20
57.1000
 30
0.0000
 11
28.0480
 21
60.9100
 31
0.0000
  0
LINE
  8
20
 10
28.0480
 20
60.9100
 30
0.0000
 11
29.7413
 21
60.9100
 31
0.0000
  0
LINE
  8
20
 10
28.0480
 20
59.2167
 30
0.0000
 11
29.3180
 21
59.2167
 31
0.0000
  0
LINE
  8
20
 10
30.5527
 20
57.1000
 30
0.0000
 11
30.5527
 21
59.6400
 31
0.0000
  0
LINE
  8
20
 10
30.5527
 20
59.6400
 30
0.0000
 11
31.6111
 21
59.6400
 31
0.0000
  0
ARC
  8
20
 10
31.6111
 20
59.0050
 30
0.0000
 40
0.6350
 50
0.0000
 51
90.0000
  0
LINE
  8
20
 10
32.2461
 20
59.0050
 30
0.0000
 11
32.2461
 21
57.1000
 31
0.0000
  0
LINE
  8
20
 10
34.8178
 20
57.1000
 30
0.0000
 11
33.7595
 21
57.1000
 31
0.0000
  0
ARC
  8
20
 10
33.7595
 20
57.7350
 30
0.0000
 40
0.6350
 50
180.0000
 51
270.0000
  0
LINE
  8
20
 10
33.1245
 20
57.7350
 30
0.0000
 11
33.1245
 21
58.7933
 31
0.0000
  0
ARC
  8
20
 10
33.9711
 20
58.7933
 30
0.0000
 40
0.8467
 50
0.0000
 51
180.0000
  0
LINE
  8
20
 10
34.8178
 20
58.7933
 30
0.0000
 11
34.8178
 21
58.3700
 31
0.0000
  0
LINE
  8
20
 10
34.8178
 20
58.3700
 30
0.0000
 11
33.1245
 21
58.3700
 31
0.0000
  0
LINE
  8
20
 10
35.6793
 20
57.1000
 30
0.0000
 11
35.6793
 21
59.6400
 31
0.0000
  0
LINE
  8
20
 10
35.6793
 20
59.6400
 30
0.0000
 11
36.9493
 21
59.6400
 31
0.0000
  0
LINE
  8
20
 10
36.9493
 20
59.6400
 30
0.0000
 11
36.9493
 21
59.2167
 31
0.0000
  0
LINE
  8
20
 10
39.3066
 20
57.1000
 30
0.0000
 11
38.2483
 21
57.1000
 31
0.0000
  0
ARC
  8
20
 10
38.2483
 20
57.7350
 30
0.0000
 40
0.6350
 50
180.0000
 51
270.0000
  0
LINE
  8
20
 10
37.6133
 20
57.7350
 30
0.0000
 11
37.6133
 21
59.0050
 31
0.0000
  0
ARC
  8
20
 10
38.2483
 20
59.0050
 30
0.0000
 40
0.6350
 50
90.0000
 51
180.0000
  0
LINE
  8
20
 10
38.2483
 20
59.6400
 30
0.0000
 11
39.3066
 21
59.6400
 31
0.0000
  0
LINE
  8
20
 10
39.3066
 20
59.6400
 30
0.0000
 11
39.3066
 21
56.4650
 31
0.0000
  0
ARC
  8
20
 10
38.6716
 20
56.4650
 30
0.0000
 40
0.6350
 50
270.0000
 51
0.0000
  0
LINE
  8
20
 10
38.6716
 20
55.8300
 30
0.0000
 11
37.8250
 21
55.8300
 31
0.0000
  0
LINE
  8
20
 10
40.0777
 20
55.8300
 30
0.0000
 11
40.5010
 21
55.8300
 31
0.0000
  0
LINE
  8
20
 10
40.5010
 20
55.8300
 30
0.0000
 11
41.7710
 21
59.6400
 31
0.0000
  0
LINE
  8
20
 10
40.0777
 20
59.6400
 30
0.0000
 11
40.9244
 21
57.1000
 31
0.0000
  0
LINE
  8
20
 10
42.5119
 20
57.1000
 30
0.0000
 11
42.5119
 21
60.9100
 31
0.0000
  0
LINE
  8
20
 10
42.5119
 20
60.9100
 30
0.0000
 11
43.7819
 21
58.7933
 31
0.0000
  0
LINE
  8
20
 10
43.7819
 20
58.7933
 30
0.0000
 11
45.0519
 21
60.9100
 31
0.0000
  0
LINE
  8
20
 10
45.0519
 20
60.9100
 30
0.0000
 11
45.0519
 21
57.1000
 31
0.0000
  0
LINE
  8
20
 10
45.8880
 20
57.9467
 30
0.0000
 11
45.8880
 21
58.7933
 31
0.0000
  0
ARC
  8
20
 10
46.7346
 20
58.7933
 30
0.0000
 40
0.8467
 50
0.0000
 51
180.0000
  0
LINE
  8
20
 10
47.5813
 20
58.7933
 30
0.0000
 11
47.5813
 21
57.9467
 31
0.0000
  0
ARC
  8
20
 10
46.7346
 20
57.9467
 30
0.0000
 40
0.8467
 50
180.0000
 51
0.0000
  0
LINE
  8
20
 10
48.4597
 20
57.1000
 30
0.0000
 11
48.4597
 21
59.6400
 31
0.0000
  0
LINE
  8
20
 10
48.4597
 20
59.6400
 30
0.0000
 11
49.5180
 21
59.6400
 31
0.0000
  0
ARC
  8
20
 10
49.5180
 20
59.0050
 30
0.0000
 40
0.6350
 50
0.0000
 51
90.0000
  0
LINE
  8
20
 10
50.1530
 20
59.0050
 30
0.0000
 11
50.1530
 21
57.1000
 31
0.0000
  0
LINE
  8
20
 10
51.2114
 20
57.1000
 30
0.0000
 11
51.2114
 21
59.6400
 31
0.0000
  0
LINE
  8
20
 10
51.1055
 20
60.6983
 30
0.0000
 11
51.1055
 21
60.9100
 31
0.0000
  0
LINE
  8
20
 10
51.1055
 20
60.9100
 30
0.0000
 11
51.3172
 21
60.9100
 31
0.0000
  0
LINE
  8
20
 10
51.3172
 20
60.9100
 30
0.0000
 11
51.3172
 21
60.6983
 31
0.0000
  0
LINE
  8
20
 10
51.3172
 20
60.6983
 30
0.0000
 11
51.1055
 21
60.6983
 31
0.0000
  0
LINE
  8
20
 10
52.0263
 20
59.6400
 30
0.0000
 11
53.2963
 21
59.6400
 31
0.0000
  0
LINE
  8
20
 10
52.4496
 20
60.9100
 30
0.0000
 11
52.4496
 21
57.7350
 31
0.0000
  0
ARC
  8
20
 10
53.0846
 20
57.7350
 30
0.0000
 40
0.6350
 50
180.0000
 51
270.0000
  0
LINE
  8
20
 10
53.0846
 20
57.1000
 30
0.0000
 11
53.2963
 21
57.1000
 31
0.0000
  0
LINE
  8
20
 10
53.9842
 20
57.9467
 30
0.0000
 11
53.9842
 21
58.7933
 31
0.0000
  0
ARC
  8
20
 10
54.8309
 20
58.7933
 30
0.0000
 40
0.8467
 50
0.0000
 51
180.0000
  0
LINE
  8
20
 10
55.6775
 20
58.7933
 30
0.0000
 11
55.6775
 21
57.9467
 31
0.0000
  0
ARC
  8
20
 10
54.8309
 20
57.9467
 30
0.0000
 40
0.8467
 50
180.0000
 51
0.0000
  0
LINE
  8
20
 10
56.5390
 20
57.1000
 30
0.0000
 11
56.5390
 21
59.6400
 31
0.0000
  0
LINE
  8
20
 10
56.5390
 20
59.6400
 30
0.0000
 11
57.8090
 21
59.6400
 31
0.0000
  0
LINE
  8
20
 10
57.8090
 20
59.6400
 30
0.0000
 11
57.8090
 21
59.2167
 31
0.0000
  0
LINE
  8
20
 10
58.5350
 20
57.1000
 30
0.0000
 11
58.5350
 21
57.3117
 31
0.0000
  0
LINE
  8
20
 10
58.5350
 20
57.3117
 30
0.0000
 11
58.7467
 21
57.3117
 31
0.0000
  0
LINE
  8
20
 10
58.7467
 20
57.3117
 30
0.0000
 11
58.7467
 21
57.1000
 31
0.0000
  0
LINE
  8
20
 10
58.7467
 20
57.1000
 30
0.0000
 11
58.5350
 21
57.1000
 31
0.0000
  0
LINE
  8
20
 10
59.6040
 20
57.9467
 30
0.0000
 11
59.6040
 21
58.7933
 31
0.0000
  0
ARC
  8
20
 10
60.4506
 20
58.7933
 30
0.0000
 40
0.8467
 50
0.0000
 51
180.0000
  0
LINE
  8
20
 10
61.2973
 20
58.7933
 30
0.0000
 11
61.2973
 21
57.9467
 31
0.0000
  0
ARC
  8
20
 10
60.4506
 20
57.9467
 30
0.0000
 40
0.8467
 50
180.0000
 51
0.0000
  0
LINE
  8
20
 10
62.1588
 20
57.1000
 30
0.0000
 11
62.1588
 21
59.6400
 31
0.0000
  0
LINE
  8
20
 10
62.1588
 20
59.6400
 30
0.0000
 11
63.4288
 21
59.6400
 31
0.0000
  0
LINE
  8
20
 10
63.4288
 20
59.6400
 30
0.0000
 11
63.4288
 21
59.2167
 31
0.0000
  0
LINE
  8
20
 10
65.7861
 20
57.1000
 30
0.0000
 11
64.7278
 21
57.1000
 31
0.0000
  0
ARC
  8
20
 10
64.7278
 20
57.7350
 30
0.0000
 40
0.6350
 50
180.0000
 51
270.0000
  0
LINE
  8
20
 10
64.0928
 20
57.7350
 30
0.0000
 11
64.0928
 21
59.0050
 31
0.0000
  0
ARC
  8
20
 10
64.7278
 20
59.0050
 30
0.0000
 40
0.6350
 50
90.0000
 51
180.0000
  0
LINE
  8
20
 10
64.7278
 20
59.6400
 30
0.0000
 11
65.7861
 21
59.6400
 31
0.0000
  0
LINE
  8
20
 10
65.7861
 20
59.6400
 30
0.0000
 11
65.7861
 21
56.4650
 31
0.0000
  0
ARC
  8
20
 10
65.1511
 20
56.4650
 30
0.0000
 40
0.6350
 50
270.0000
 51
0.0000
  0
LINE
  8
20
 10
65.1511
 20
55.8300
 30
0.0000
 11
64.3045
 21
55.8300
 31
0.0000
  0
LINE
  8
20
 10
72.9178
 20
57.1000
 30
0.0000
 11
71.8595
 21
57.1000
 31
0.0000
  0
ARC
  8
20
 10
71.8595
 20
57.7350
 30
0.0000
 40
0.6350
 50
180.0000
 51
270.0000
  0
LINE
  8
20
 10
71.2245
 20
57.7350
 30
0.0000
 11
71.2245
 21
58.7933
 31
0.0000
  0
ARC
  8
20
 10
72.0711
 20
58.7933
 30
0.0000
 40
0.8467
 50
0.0000
 51
180.0000
  0
LINE
  8
20
 10
72.9178
 20
58.7933
 30
0.0000
 11
72.9178
 21
58.3700
 31
0.0000
  0
LINE
  8
20
 10
72.9178
 20
58.3700
 30
0.0000
 11
71.2245
 21
58.3700
 31
0.0000
  0
LINE
  8
20
 10
73.7539
 20
57.1000
 30
0.0000
 11
73.7539
 21
59.6400
 31
0.0000
  0
LINE
  8
20
 10
73.7539
 20
59.6400
 30
0.0000
 11
75.6589
 21
59.6400
 31
0.0000
  0
ARC
  8
20
 10
75.6589
 20
59.0050
 30
0.0000
 40
0.6350
 50
0.0000
 51
90.0000
  0
LINE
  8
20
 10
76.2939
 20
59.0050
 30
0.0000
 11
76.2939
 21
57.1000
 31
0.0000
  0
LINE
  8
20
 10
75.0239
 20
57.1000
 30
0.0000
 11
75.0239
 21
59.6400
 31
0.0000
  0
LINE
  8
20
 10
77.1300
 20
57.9467
 30
0.0000
 11
77.1300
 21
58.7933
 31
0.0000
  0
ARC
  8
20
 10
77.9766
 20
58.7933
 30
0.0000
 40
0.8467
 50
0.0000
 51
180.0000
  0
LINE
  8
20
 10
78.8233
 20
58.7933
 30
0.0000
 11
78.8233
 21
57.9467
 31
0.0000
  0
ARC
  8
20
 10
77.9766
 20
57.9467
 30
0.0000
 40
0.8467
 50
180.0000
 51
0.0000
  0
LINE
  8
20
 10
79.7017
 20
57.1000
 30
0.0000
 11
79.7017
 21
59.6400
 31
0.0000
  0
LINE
  8
20
 10
79.7017
 20
59.6400
 30
0.0000
 11
80.7600
 21
59.6400
 31
0.0000
  0
ARC
  8
20
 10
80.7600
 20
59.0050
 30
0.0000
 40
0.6350
 50
0.0000
 51
90.0000
  0
LINE
  8
20
 10
81.3950
 20
59.0050
 30
0.0000
 11
81.3950
 21
57.1000
 31
0.0000
  0
LINE
  8
20
 10
83.1201
 20
57.1000
 30
0.0000
 11
83.1201
 21
60.9100
 31
0.0000
  0
LINE
  8
20
 10
82.0618
 20
60.9100
 30
0.0000
 11
84.1784
 21
60.9100
 31
0.0000
  0
LINE
  8
20
 10
84.6547
 20
57.1000
 30
0.0000
 11
86.3480
 21
59.6400
 31
0.0000
  0
LINE
  8
20
 10
84.6547
 20
59.6400
 30
0.0000
 11
86.3480
 21
57.1000
 31
0.0000
  0
LINE
  8
20
 10
88.3271
 20
60.9100
 30
0.0000
 11
89.5971
 21
57.1000
 31
0.0000
  0
LINE
  8
20
 10
89.5971
 20
57.1000
 30
0.0000
 11
90.8671
 21
60.9100
 31
0.0000
  0
LINE
  8
20
 10
92.2429
 20
60.9100
 30
0.0000
 11
91.3963
 21
57.9467
 31
0.0000
  0
LINE
  8
20
 10
91.3963
 20
57.9467
 30
0.0000
 11
93.5129
 21
57.9467
 31
0.0000
  0
LINE
  8
20
 10
92.8779
 20
58.7933
 30
0.0000
 11
92.8779
 21
57.1000
 31
0.0000
  0
LINE
  8
20
 10
31.1889
 20
73.1552
 30
0.0000
 11
31.1889
 21
73.5785
 31
0.0000
  0
LINE
  8
20
 10
31.1889
 20
73.5785
 30
0.0000
 11
32.6000
 21
73.5785
 31
0.0000
  0
LINE
  8
20
 10
32.6000
 20
73.5785
 30
0.0000
 11
32.6000
 21
72.7318
 31
0.0000
  0
ARC
  8
20
 10
32.0356
 20
72.7318
 30
0.0000
 40
0.5644
 50
270.0000
 51
0.0000
  0
LINE
  8
20
 10
32.0356
 20
72.1674
 30
0.0000
 11
30.6244
 21
72.1674
 31
0.0000
  0
ARC
  8
20
 10
30.6244
 20
72.7318
 30
0.0000
 40
0.5645
 50
180.0006
 51
270.0000
  0
LINE
  8
20
 10
30.0600
 20
72.7318
 30
0.0000
 11
30.0600
 21
73.5785
 31
0.0000
  0
LINE
  8
20
 10
32.6000
 20
74.3944
 30
0.0000
 11
30.0600
 21
74.3944
 31
0.0000
  0
LINE
  8
20
 10
30.0600
 20
74.3944
 30
0.0000
 11
32.6000
 21
75.8056
 31
0.0000
  0
LINE
  8
20
 10
32.6000
 20
75.8056
 30
0.0000
 11
30.0600
 21
75.8056
 31
0.0000
  0
LINE
  8
20
 10
32.6000
 20
76.6215
 30
0.0000
 11
30.0600
 21
76.6215
 31
0.0000
  0
LINE
  8
20
 10
30.0600
 20
76.6215
 30
0.0000
 11
30.0600
 21
77.3271
 31
0.0000
  0
ARC
  8
20
 10
30.7656
 20
77.3271
 30
0.0000
 40
0.7056
 50
90.0000
 51
180.0000
  0
LINE
  8
20
 10
30.7656
 20
78.0326
 30
0.0000
 11
31.8944
 21
78.0326
 31
0.0000
  0
ARC
  8
20
 10
31.8944
 20
77.3271
 30
0.0000
 40
0.7056
 50
359.9997
 51
90.0000
  0
LINE
  8
20
 10
32.6000
 20
77.3271
 30
0.0000
 11
32.6000
 21
76.6215
 31
0.0000
  0
LINE
  8
20
 10
36.0000
 20
71.9414
 30
0.0000
 11
33.4600
 21
71.9414
 31
0.0000
  0
LINE
  8
20
 10
33.4600
 20
71.9414
 30
0.0000
 11
33.4600
 21
72.6469
 31
0.0000
  0
ARC
  8
20
 10
34.1656
 20
72.6469
 30
0.0000
 40
0.7056
 50
90.0000
 51
180.0000
  0
LINE
  8
20
 10
34.1656
 20
73.3525
 30
0.0000
 11
35.2944
 21
73.3525
 31
0.0000
  0
ARC
  8
20
 10
35.2944
 20
72.6469
 30
0.0000
 40
0.7056
 50
359.9997
 51
90.0000
  0
LINE
  8
20
 10
36.0000
 20
72.6469
 30
0.0000
 11
36.0000
 21
71.9414
 31
0.0000
  0
LINE
  8
20
 10
36.0000
 20
73.9577
 30
0.0000
 11
33.4600
 21
74.8044
 31
0.0000
  0
LINE
  8
20
 10
33.4600
 20
74.8044
 30
0.0000
 11
36.0000
 21
75.6511
 31
0.0000
  0
LINE
  8
20
 10
35.3650
 20
75.4394
 30
0.0000
 11
35.3650
 21
74.1694
 31
0.0000
  0
LINE
  8
20
 10
36.0000
 20
76.7531
 30
0.0000
 11
33.4600
 21
76.7531
 31
0.0000
  0
LINE
  8
20
 10
33.4600
 20
76.0475
 30
0.0000
 11
33.4600
 21
77.4586
 31
0.0000
  0
LINE
  8
20
 10
64.0000
 20
71.8066
 30
0.0000
 11
64.0000
 21
72.5121
 31
0.0000
  0
ARC
  8
20
 10
63.2944
 20
72.5121
 30
0.0000
 40
0.7056
 50
0.0000
 51
180.0000
  0
LINE
  8
20
 10
61.4600
 20
71.8066
 30
0.0000
 11
61.4600
 21
72.6532
 31
0.0000
  0
ARC
  8
20
 10
62.0244
 20
72.6532
 30
0.0000
 40
0.5644
 50
0.0000
 51
180.0000
  0
LINE
  8
20
 10
62.5889
 20
72.6532
 30
0.0000
 11
62.5889
 21
72.0888
 31
0.0000
  0
LINE
  8
20
 10
61.4600
 20
73.7533
 30
0.0000
 11
64.0000
 21
74.6000
 31
0.0000
  0
LINE
  8
20
 10
64.0000
 20
74.6000
 30
0.0000
 11
61.4600
 21
75.4467
 31
0.0000
  0
LINE
  8
20
 10
64.0000
 20
75.9823
 30
0.0000
 11
64.0000
 21
76.6879
 31
0.0000
  0
ARC
  8
20
 10
63.2944
 20
76.6879
 30
0.0000
 40
0.7056
 50
0.0000
 51
180.0000
  0
LINE
  8
20
 10
61.4600
 20
75.9823
 30
0.0000
 11
61.4600
 21
76.8290
 31
0.0000
  0
ARC
  8
20
 10
62.0244
 20
76.8290
 30
0.0000
 40
0.5644
 50
0.0000
 51
180.0000
  0
LINE
  8
20
 10
62.5889
 20
76.8290
 30
0.0000
 11
62.5889
 21
76.2645
 31
0.0000
  0
LINE
  8
20
 10
60.0000
 20
71.9414
 30
0.0000
 11
57.4600
 21
71.9414
 31
0.0000
  0
LINE
  8
20
 10
57.4600
 20
71.9414
 30
0.0000
 11
57.4600
 21
72.6469
 31
0.0000
  0
ARC
  8
20
 10
58.1656
 20
72.6469
 30
0.0000
 40
0.7056
 50
90.0000
 51
180.0000
  0
LINE
  8
20
 10
58.1656
 20
73.3525
 30
0.0000
 11
59.2944
 21
73.3525
 31
0.0000
  0
ARC
  8
20
 10
59.2944
 20
72.6469
 30
0.0000
 40
0.7056
 50
359.9997
 51
90.0000
  0
LINE
  8
20
 10
60.0000
 20
72.6469
 30
0.0000
 11
60.0000
 21
71.9414
 31
0.0000
  0
LINE
  8
20
 10
60.0000
 20
73.9577
 30
0.0000
 11
57.4600
 21
74.8044
 31
0.0000
  0
LINE
  8
20
 10
57.4600
 20
74.8044
 30
0.0000
 11
60.0000
 21
75.6511
 31
0.0000
  0
LINE
  8
20
 10
59.3650
 20
75.4394
 30
0.0000
 11
59.3650
 21
74.1694
 31
0.0000
  0
LINE
  8
20
 10
60.0000
 20
76.7531
 30
0.0000
 11
57.4600
 21
76.7531
 31
0.0000
  0
LINE
  8
20
 10
57.4600
 20
76.0475
 30
0.0000
 11
57.4600
 21
77.4586
 31
0.0000
  0
LINE
  8
20
 10
54.6889
 20
73.1552
 30
0.0000
 11
54.6889
 21
73.5785
 31
0.0000
  0
LINE
  8
20
 10
54.6889
 20
73.5785
 30
0.0000
 11
56.1000
 21
73.5785
 31
0.0000
  0
LINE
  8
20
 10
56.1000
 20
73.5785
 30
0.0000
 11
56.1000
 21
72.7318
 31
0.0000
  0
ARC
  8
20
 10
55.5356
 20
72.7318
 30
0.0000
 40
0.5644
 50
270.0000
 51
0.0000
  0
LINE
  8
20
 10
55.5356
 20
72.1674
 30
0.0000
 11
54.1244
 21
72.1674
 31
0.0000
  0
ARC
  8
20
 10
54.1244
 20
72.7318
 30
0.0000
 40
0.5645
 50
180.0006
 51
270.0000
  0
LINE
  8
20
 10
53.5600
 20
72.7318
 30
0.0000
 11
53.5600
 21
73.5785
 31
0.0000
  0
LINE
  8
20
 10
56.1000
 20
74.3944
 30
0.0000
 11
53.5600
 21
74.3944
 31
0.0000
  0
LINE
  8
20
 10
53.5600
 20
74.3944
 30
0.0000
 11
56.1000
 21
75.8056
 31
0.0000
  0
LINE
  8
20
 10
56.1000
 20
75.8056
 30
0.0000
 11
53.5600
 21
75.8056
 31
0.0000
  0
LINE
  8
20
 10
56.1000
 20
76.6215
 30
0.0000
 11
53.5600
 21
76.6215
 31
0.0000
  0
LINE
  8
20
 10
53.5600
 20
76.6215
 30
0.0000
 11
53.5600
 21
77.3271
 31
0.0000
  0
ARC
  8
20
 10
54.2656
 20
77.3271
 30
0.0000
 40
0.7056
 50
90.0000
 51
180.0000
  0
LINE
  8
20
 10
54.2656
 20
78.0326
 30
0.0000
 11
55.3944
 21
78.0326
 31
0.0000
  0
ARC
  8
20
 10
55.3944
 20
77.3271
 30
0.0000
 40
0.7056
 50
359.9997
 51
90.0000
  0
LINE
  8
20
 10
56.1000
 20
77.3271
 30
0.0000
 11
56.1000
 21
76.6215
 31
0.0000
  0
LINE
  8
20
 10
52.0000
 20
71.7066
 30
0.0000
 11
52.0000
 21
72.4121
 31
0.0000
  0
ARC
  8
20
 10
51.2944
 20
72.4121
 30
0.0000
 40
0.7056
 50
0.0000
 51
180.0000
  0
LINE
  8
20
 10
49.4600
 20
71.7066
 30
0.0000
 11
49.4600
 21
72.5532
 31
0.0000
  0
ARC
  8
20
 10
50.0244
 20
72.5532
 30
0.0000
 40
0.5644
 50
0.0000
 51
180.0000
  0
LINE
  8
20
 10
50.5889
 20
72.5532
 30
0.0000
 11
50.5889
 21
71.9888
 31
0.0000
  0
LINE
  8
20
 10
49.4600
 20
73.6533
 30
0.0000
 11
52.0000
 21
74.5000
 31
0.0000
  0
LINE
  8
20
 10
52.0000
 20
74.5000
 30
0.0000
 11
49.4600
 21
75.3467
 31
0.0000
  0
LINE
  8
20
 10
52.0000
 20
75.8823
 30
0.0000
 11
52.0000
 21
76.5879
 31
0.0000
  0
ARC
  8
20
 10
51.2944
 20
76.5879
 30
0.0000
 40
0.7056
 50
0.0000
 51
180.0000
  0
LINE
  8
20
 10
49.4600
 20
75.8823
 30
0.0000
 11
49.4600
 21
76.7290
 31
0.0000
  0
ARC
  8
20
 10
50.0244
 20
76.7290
 30
0.0000
 40
0.5644
 50
0.0000
 51
180.0000
  0
LINE
  8
20
 10
50.5889
 20
76.7290
 30
0.0000
 11
50.5889
 21
76.1645
 31
0.0000
  0
LINE
  8
20
 10
47.9000
 20
72.0414
 30
0.0000
 11
45.3600
 21
72.0414
 31
0.0000
  0
LINE
  8
20
 10
45.3600
 20
72.0414
 30
0.0000
 11
45.3600
 21
72.7469
 31
0.0000
  0
ARC
  8
20
 10
46.0656
 20
72.7469
 30
0.0000
 40
0.7056
 50
90.0000
 51
180.0000
  0
LINE
  8
20
 10
46.0656
 20
73.4525
 30
0.0000
 11
47.1944
 21
73.4525
 31
0.0000
  0
ARC
  8
20
 10
47.1944
 20
72.7469
 30
0.0000
 40
0.7056
 50
359.9997
 51
90.0000
  0
LINE
  8
20
 10
47.9000
 20
72.7469
 30
0.0000
 11
47.9000
 21
72.0414
 31
0.0000
  0
LINE
  8
20
 10
47.9000
 20
74.0577
 30
0.0000
 11
45.3600
 21
74.9044
 31
0.0000
  0
LINE
  8
20
 10
45.3600
 20
74.9044
 30
0.0000
 11
47.9000
 21
75.7511
 31
0.0000
  0
LINE
  8
20
 10
47.2650
 20
75.5394
 30
0.0000
 11
47.2650
 21
74.2694
 31
0.0000
  0
LINE
  8
20
 10
47.9000
 20
76.8531
 30
0.0000
 11
45.3600
 21
76.8531
 31
0.0000
  0
LINE
  8
20
 10
45.3600
 20
76.1475
 30
0.0000
 11
45.3600
 21
77.5586
 31
0.0000
  0
LINE
  8
20
 10
40.1000
 20
71.7066
 30
0.0000
 11
40.1000
 21
72.4121
 31
0.0000
  0
ARC
  8
20
 10
39.3944
 20
72.4121
 30
0.0000
 40
0.7056
 50
0.0000
 51
180.0000
  0
LINE
  8
20
 10
37.5600
 20
71.7066
 30
0.0000
 11
37.5600
 21
72.5532
 31
0.0000
  0
ARC
  8
20
 10
38.1244
 20
72.5532
 30
0.0000
 40
0.5644
 50
0.0000
 51
180.0000
  0
LINE
  8
20
 10
38.6889
 20
72.5532
 30
0.0000
 11
38.6889
 21
71.9888
 31
0.0000
  0
LINE
  8
20
 10
37.5600
 20
73.6533
 30
0.0000
 11
40.1000
 21
74.5000
 31
0.0000
  0
LINE
  8
20
 10
40.1000
 20
74.5000
 30
0.0000
 11
37.5600
 21
75.3467
 31
0.0000
  0
LINE
  8
20
 10
40.1000
 20
75.8823
 30
0.0000
 11
40.1000
 21
76.5879
 31
0.0000
  0
ARC
  8
20
 10
39.3944
 20
76.5879
 30
0.0000
 40
0.7056
 50
0.0000
 51
180.0000
  0
LINE
  8
20
 10
37.5600
 20
75.8823
 30
0.0000
 11
37.5600
 21
76.7290
 31
0.0000
  0
ARC
  8
20
 10
38.1244
 20
76.7290
 30
0.0000
 40
0.5644
 50
0.0000
 51
180.0000
  0
LINE
  8
20
 10
38.6889
 20
76.7290
 30
0.0000
 11
38.6889
 21
76.1645
 31
0.0000
  0
LINE
  8
20
 10
42.5889
 20
73.2552
 30
0.0000
 11
42.5889
 21
73.6785
 31
0.0000
  0
LINE
  8
20
 10
42.5889
 20
73.6785
 30
0.0000
 11
44.0000
 21
73.6785
 31
0.0000
  0
LINE
  8
20
 10
44.0000
 20
73.6785
 30
0.0000
 11
44.0000
 21
72.8318
 31
0.0000
  0
ARC
  8
20
 10
43.4356
 20
72.8318
 30
0.0000
 40
0.5644
 50
270.0000
 51
0.0000
  0
LINE
  8
20
 10
43.4356
 20
72.2674
 30
0.0000
 11
42.0244
 21
72.2674
 31
0.0000
  0
ARC
  8
20
 10
42.0244
 20
72.8318
 30
0.0000
 40
0.5645
 50
180.0006
 51
270.0000
  0
LINE
  8
20
 10
41.4600
 20
72.8318
 30
0.0000
 11
41.4600
 21
73.6785
 31
0.0000
  0
LINE
  8
20
 10
44.0000
 20
74.4944
 30
0.0000
 11
41.4600
 21
74.4944
 31
0.0000
  0
LINE
  8
20
 10
41.4600
 20
74.4944
 30
0.0000
 11
44.0000
 21
75.9056
 31
0.0000
  0
LINE
  8
20
 10
44.0000
 20
75.9056
 30
0.0000
 11
41.4600
 21
75.9056
 31
0.0000
  0
LINE
  8
20
 10
44.0000
 20
76.7215
 30
0.0000
 11
41.4600
 21
76.7215
 31
0.0000
  0
LINE
  8
20
 10
41.4600
 20
76.7215
 30
0.0000
 11
41.4600
 21
77.4271
 31
0.0000
  0
ARC
  8
20
 10
42.1656
 20
77.4271
 30
0.0000
 40
0.7056
 50
90.0000
 51
180.0000
  0
LINE
  8
20
 10
42.1656
 20
78.1326
 30
0.0000
 11
43.2944
 21
78.1326
 31
0.0000
  0
ARC
  8
20
 10
43.2944
 20
77.4271
 30
0.0000
 40
0.7056
 50
359.9997
 51
90.0000
  0
LINE
  8
20
 10
44.0000
 20
77.4271
 30
0.0000
 11
44.0000
 21
76.7215
 31
0.0000
  0
LINE
  8
20
 10
84.2028
 20
79.0000
 30
0.0000
 11
83.3561
 21
76.0367
 31
0.0000
  0
LINE
  8
20
 10
83.3561
 20
76.0367
 30
0.0000
 11
85.4728
 21
76.0367
 31
0.0000
  0
LINE
  8
20
 10
84.8378
 20
76.8833
 30
0.0000
 11
84.8378
 21
75.1900
 31
0.0000
  0
LINE
  8
20
 10
86.2136
 20
75.1900
 30
0.0000
 11
87.2720
 21
75.1900
 31
0.0000
  0
ARC
  8
20
 10
87.2720
 20
76.2483
 30
0.0000
 40
1.0583
 50
270.0000
 51
90.0000
  0
LINE
  8
20
 10
86.2136
 20
79.0000
 30
0.0000
 11
87.4836
 21
79.0000
 31
0.0000
  0
ARC
  8
20
 10
87.4836
 20
78.1533
 30
0.0000
 40
0.8467
 50
270.0000
 51
90.0000
  0
LINE
  8
20
 10
87.4836
 20
77.3067
 30
0.0000
 11
86.6370
 21
77.3067
 31
0.0000
  0
LINE
  8
20
 10
89.0711
 20
75.1900
 30
0.0000
 11
90.1295
 21
75.1900
 31
0.0000
  0
ARC
  8
20
 10
90.1295
 20
76.2483
 30
0.0000
 40
1.0583
 50
270.0000
 51
90.0000
  0
LINE
  8
20
 10
89.0711
 20
79.0000
 30
0.0000
 11
90.3411
 21
79.0000
 31
0.0000
  0
ARC
  8
20
 10
90.3411
 20
78.1533
 30
0.0000
 40
0.8467
 50
270.0000
 51
90.0000
  0
LINE
  8
20
 10
90.3411
 20
77.3067
 30
0.0000
 11
89.4945
 21
77.3067
 31
0.0000
  0
LINE
  8
20
 10
92.0027
 20
75.1900
 30
0.0000
 11
92.0027
 21
79.0000
 31
0.0000
  0
LINE
  8
20
 10
92.0027
 20
79.0000
 30
0.0000
 11
93.2727
 21
76.8833
 31
0.0000
  0
LINE
  8
20
 10
93.2727
 20
76.8833
 30
0.0000
 11
94.5427
 21
79.0000
 31
0.0000
  0
LINE
  8
20
 10
94.5427
 20
79.0000
 30
0.0000
 11
94.5427
 21
75.1900
 31
0.0000
  0
LINE
  8
20
 10
95.4740
 20
75.1900
 30
0.0000
 11
95.4740
 21
79.0000
 31
0.0000
  0
LINE
  8
20
 10
95.4740
 20
77.7300
 30
0.0000
 11
96.5324
 21
77.7300
 31
0.0000
  0
ARC
  8
20
 10
96.5324
 20
77.0950
 30
0.0000
 40
0.6350
 50
0.0000
 51
90.0000
  0
LINE
  8
20
 10
97.1674
 20
77.0950
 30
0.0000
 11
97.1674
 21
75.1900
 31
0.0000
  0
LINE
  8
20
 10
97.9505
 20
77.7300
 30
0.0000
 11
99.6439
 21
77.7300
 31
0.0000
  0
LINE
  8
20
 10
99.6439
 20
77.7300
 30
0.0000
 11
97.9505
 21
75.1900
 31
0.0000
  0
LINE
  8
20
 10
97.9505
 20
75.1900
 30
0.0000
 11
99.6439
 21
75.1900
 31
0.0000
  0
POLYLINE
  8
20
 66
1
 10
0.0000
 20
0.0000
 30
0.0000
 40
0.0010
 41
0.0010
 70
0
  0
VERTEX
  8
20
 10
6.0000
 20
24.3500
 30
0.0000
 42
1.0000
  0
VERTEX
  8
20
 10
6.0000
 20
28.0500
 30
0.0000
 42
1.0000
  0
VERTEX
  8
20
 10
6.0000
 20
24.3500
 30
0.0000
  0
SEQEND
  8
0
  0
POLYLINE
  8
20
 66
1
 10
0.0000
 20
0.0000
 30
0.0000
 40
0.0010
 41
0.0010
 70
0
  0
VERTEX
  8
20
 10
102.5000
 20
24.3500
 30
0.0000
 42
1.0000
  0
VERTEX
  8
20
 10
102.5000
 20
28.0500
 30
0.0000
 42
1.0000
  0
VERTEX
  8
20
 10
102.5000
 20
24.3500
 30
0.0000
  0
SEQEND
  8
0
  0
POLYLINE
  8
20
 66
1
 10
0.0000
 20
0.0000
 30
0.0000
 40
0.0010
 41
0.0010
 70
0
  0
VERTEX
  8
20
 10
6.0000
 20
2.8500
 30
0.0000
 42
1.0000
  0
VERTEX
  8
20
 10
6.0000
 20
6.5500
 30
0.0000
 42
1.0000
  0
VERTEX
  8
20
 10
6.0000
 20
2.8500
 30
0.0000
  0
SEQEND
  8
0
  0
POLYLINE
  8
20
 66
1
 10
0.0000
 20
0.0000
 30
0.0000
 40
0.0010
 41
0.0010
 70
0
  0
VERTEX
  8
20
 10
102.5000
 20
2.8500
 30
0.0000
 42
1.0000
  0
VERTEX
  8
20
 10
102.5000
 20
6.5500
 30
0.0000
 42
1.0000
  0
VERTEX
  8
20
 10
102.5000
 20
2.8500
 30
0.0000
  0
SEQEND
  8
0
  0
POLYLINE
  8
20
 66
1
 10
0.0000
 20
0.0000
 30
0.0000
 40
0.0010
 41
0.0010
 70
0
  0
VERTEX
  8
20
 10
6.0000
 20
78.7500
 30
0.0000
 42
1.0000
  0
VERTEX
  8
20
 10
6.0000
 20
82.4500
 30
0.0000
 42
1.0000
  0
VERTEX
  8
20
 10
6.0000
 20
78.7500
 30
0.0000
  0
SEQEND
  8
0
  0
POLYLINE
  8
20
 66
1
 10
0.0000
 20
0.0000
 30
0.0000
 40
0.0010
 41
0.0010
 70
0
  0
VERTEX
  8
20
 10
102.5000
 20
78.7500
 30
0.0000
 42
1.0000
  0
VERTEX
  8
20
 10
102.5000
 20
82.4500
 30
0.0000
 42
1.0000
  0
VERTEX
  8
20
 10
102.5000
 20
78.7500
 30
0.0000
  0
SEQEND
  8
0
  0
POLYLINE
  8
20
 66
1
 10
0.0000
 20
0.0000
 30
0.0000
 40
0.0010
 41
0.0010
 70
0
  0
VERTEX
  8
20
 10
6.0000
 20
57.2500
 30
0.0000
 42
1.0000
  0
VERTEX
  8
20
 10
6.0000
 20
60.9500
 30
0.0000
 42
1.0000
  0
VERTEX
  8
20
 10
6.0000
 20
57.2500
 30
0.0000
  0
SEQEND
  8
0
  0
POLYLINE
  8
20
 66
1
 10
0.0000
 20
0.0000
 30
0.0000
 40
0.0010
 41
0.0010
 70
0
  0
VERTEX
  8
20
 10
102.5000
 20
57.3500
 30
0.0000
 42
1.0000
  0
VERTEX
  8
20
 10
102.5000
 20
61.0500
 30
0.0000
 42
1.0000
  0
VERTEX
  8
20
 10
102.5000
 20
57.3500
 30
0.0000
  0
SEQEND
  8
0
  0
POLYLINE
  8
20
 66
1
 10
0.0000
 20
0.0000
 30
0.0000
 40
0.0010
 41
0.0010
 70
0
  0
VERTEX
  8
20
 10
43.2500
 20
8.7000
 30
0.0000
 42
1.0000
  0
VERTEX
  8
20
 10
43.2500
 20
14.7000
 30
0.0000
 42
1.0000
  0
VERTEX
  8
20
 10
43.2500
 20
8.7000
 30
0.0000
  0
SEQEND
  8
0
  0
POLYLINE
  8
20
 66
1
 10
0.0000
 20
0.0000
 30
0.0000
 40
0.0010
 41
0.0010
 70
0
  0
VERTEX
  8
20
 10
56.2500
 20
8.7000
 30
0.0000
 42
1.0000
  0
VERTEX
  8
20
 10
56.2500
 20
14.7000
 30
0.0000
 42
1.0000
  0
VERTEX
  8
20
 10
56.2500
 20
8.7000
 30
0.0000
  0
SEQEND
  8
0
  0
POLYLINE
  8
20
 66
1
 10
0.0000
 20
0.0000
 30
0.0000
 40
0.0010
 41
0.0010
 70
0
  0
VERTEX
  8
20
 10
69.2500
 20
8.7000
 30
0.0000
 42
1.0000
  0
VERTEX
  8
20
 10
69.2500
 20
14.7000
 30
0.0000
 42
1.0000
  0
VERTEX
  8
20
 10
69.2500
 20
8.7000
 30
0.0000
  0
SEQEND
  8
0
  0
POLYLINE
  8
20
 66
1
 10
0.0000
 20
0.0000
 30
0.0000
 40
0.0010
 41
0.0010
 70
0
  0
VERTEX
  8
20
 10
82.2500
 20
8.7000
 30
0.0000
 42
1.0000
  0
VERTEX
  8
20
 10
82.2500
 20
14.7000
 30
0.0000
 42
1.0000
  0
VERTEX
  8
20
 10
82.2500
 20
8.7000
 30
0.0000
  0
SEQEND
  8
0
  0
POLYLINE
  8
20
 66
1
 10
0.0000
 20
0.0000
 30
0.0000
 40
0.0010
 41
0.0010
 70
0
  0
VERTEX
  8
20
 10
95.2500
 20
8.7000
 30
0.0000
 42
1.0000
  0
VERTEX
  8
20
 10
95.2500
 20
14.7000
 30
0.0000
 42
1.0000
  0
VERTEX
  8
20
 10
95.2500
 20
8.7000
 30
0.0000
  0
SEQEND
  8
0
  0
POLYLINE
  8
20
 66
1
 10
0.0000
 20
0.0000
 30
0.0000
 40
0.0010
 41
0.0010
 70
0
  0
VERTEX
  8
20
 10
30.2500
 20
8.7000
 30
0.0000
 42
1.0000
  0
VERTEX
  8
20
 10
30.2500
 20
14.7000
 30
0.0000
 42
1.0000
  0
VERTEX
  8
20
 10
30.2500
 20
8.7000
 30
0.0000
  0
SEQEND
  8
0
  0
POLYLINE
  8
20
 66
1
 10
0.0000
 20
0.0000
 30
0.0000
 40
0.0010
 41
0.0010
 70
0
  0
VERTEX
  8
20
 10
91.2500
 20
66.8500
 30
0.0000
 42
1.0000
  0
VERTEX
  8
20
 10
91.2500
 20
73.9500
 30
0.0000
 42
1.0000
  0
VERTEX
  8
20
 10
91.2500
 20
66.8500
 30
0.0000
  0
SEQEND
  8
0
  0
ENDSEC
  0
EOF
