  0
SECTION
  2
HEADER
  9
$ACADVER
  1
AC1009
  9
$FILLMODE
 70
0
  9
$EXTMIN
 10
-0.0007
 20
-0.0007
 30
0.0000
  9
$EXTMAX
 10
108.5007
 20
83.9006
 30
0.0000
  0
ENDSEC
  0
SECTION
  2
TABLES
  0
TABLE
  2
LTYPE
 70
1
  0
LTYPE
  2
CONTINUOUS
 70
64
  3
Solid line
 72
65
 73
0
 40
0
  0
ENDTAB
  0
TABLE
  2
LAYER
 70
255
  0
LAYER
  2
20
 70
64
 62
31
  6
CONTINUOUS
  0
ENDTAB
  0
ENDSEC
  0
SECTION
  2
BLOCKS
  0
BLOCK
  8
0
  2
RECT
 70
64
 10
0.0000
 20
0.0000
 30
0.0000
  3
RECT
  0
SOLID
  8
0
 10
-0.5000
 20
-0.5000
 30
0.0000
 11
0.5000
 21
-0.5000
 31
0.0000
 12
-0.5000
 22
0.5000
 32
0.0000
 13
0.5000
 23
0.5000
 33
0.0000
  0
ENDBLK
  8
0
  0
BLOCK
  8
0
  2
PIE
 70
64
 10
0.0000
 20
0.0000
 30
0.0000
  3
PIE
  0
CIRCLE
  8
0
 10
0.0000
 20
0.0000
 30
0.0000
 40
0.5000
  0
ENDBLK
  8
0
  0
BLOCK
  8
0
  2
OCTAGONP
 70
64
 10
0.0000
 20
0.0000
 30
0.0000
  3
OCTAGONP
  0
POLYLINE
  8
0
 66
1
 10
0.0000
 20
0.0000
 30
0.0000
 40
0.0000
 41
0.0000
 70
1
  0
VERTEX
  8
0
 10
-0.5000
 20
-0.2071
 30
0.0000
  0
VERTEX
  8
0
 10
-0.5000
 20
0.2071
 30
0.0000
  0
VERTEX
  8
0
 10
-0.2071
 20
0.5000
 30
0.0000
  0
VERTEX
  8
0
 10
0.2071
 20
0.5000
 30
0.0000
  0
VERTEX
  8
0
 10
0.5000
 20
0.2071
 30
0.0000
  0
VERTEX
  8
0
 10
0.5000
 20
-0.2071
 30
0.0000
  0
VERTEX
  8
0
 10
0.2071
 20
-0.5000
 30
0.0000
  0
VERTEX
  8
0
 10
-0.2071
 20
-0.5000
 30
0.0000
  0
SEQEND
  8
0
  0
ENDBLK
  8
0
  0
BLOCK
  8
0
  2
SQUAREP
 70
64
 10
0.0000
 20
0.0000
 30
0.0000
  3
SQUAREP
  0
SOLID
  8
0
 10
-0.5000
 20
-0.5000
 30
0.0000
 11
0.5000
 21
-0.5000
 31
0.0000
 12
-0.5000
 22
0.5000
 32
0.0000
 13
0.5000
 23
0.5000
 33
0.0000
  0
ENDBLK
  8
0
  0
BLOCK
  8
0
  2
ROUNDP
 70
64
 10
0.0000
 20
0.0000
 30
0.0000
  3
ROUNDP
  0
CIRCLE
  8
0
 10
0.0000
 20
0.0000
 30
0.0000
 40
0.5000
  0
ENDBLK
  8
0
  0
BLOCK
  8
0
  2
ANNULUSP
 70
64
 10
0.0000
 20
0.0000
 30
0.0000
  3
ANNULUSP
  0
CIRCLE
  8
0
 10
0.0000
 20
0.0000
 30
0.0000
 40
0.5000
  0
ENDBLK
  8
0
  0
BLOCK
  8
0
  2
THERMALP
 70
64
 10
0.0000
 20
0.0000
 30
0.0000
  3
THERMALP
  0
LINE
  8
0
 10
-0.2379
 20
0.4500
 30
0.0000
 11
0.2379
 21
0.4500
 31
0.0000
  0
LINE
  8
0
 10
0.4500
 20
0.2379
 30
0.0000
 11
0.4500
 21
-0.2379
 31
0.0000
  0
LINE
  8
0
 10
0.2379
 20
-0.4500
 30
0.0000
 11
-0.2379
 21
-0.4500
 31
0.0000
  0
LINE
  8
0
 10
-0.4500
 20
-0.2379
 30
0.0000
 11
-0.4500
 21
0.2379
 31
0.0000
  0
ENDBLK
  8
0
  0
BLOCK
  8
0
  2
OCTAGONV
 70
64
 10
0.0000
 20
0.0000
 30
0.0000
  3
OCTAGONV
  0
POLYLINE
  8
0
 66
1
 10
0.0000
 20
0.0000
 30
0.0000
 40
0.0000
 41
0.0000
 70
1
  0
VERTEX
  8
0
 10
-0.5000
 20
-0.2071
 30
0.0000
  0
VERTEX
  8
0
 10
-0.5000
 20
0.2071
 30
0.0000
  0
VERTEX
  8
0
 10
-0.2071
 20
0.5000
 30
0.0000
  0
VERTEX
  8
0
 10
0.2071
 20
0.5000
 30
0.0000
  0
VERTEX
  8
0
 10
0.5000
 20
0.2071
 30
0.0000
  0
VERTEX
  8
0
 10
0.5000
 20
-0.2071
 30
0.0000
  0
VERTEX
  8
0
 10
0.2071
 20
-0.5000
 30
0.0000
  0
VERTEX
  8
0
 10
-0.2071
 20
-0.5000
 30
0.0000
  0
SEQEND
  8
0
  0
ENDBLK
  8
0
  0
BLOCK
  8
0
  2
SQUAREV
 70
64
 10
0.0000
 20
0.0000
 30
0.0000
  3
SQUAREV
  0
SOLID
  8
0
 10
-0.5000
 20
-0.5000
 30
0.0000
 11
0.5000
 21
-0.5000
 31
0.0000
 12
-0.5000
 22
0.5000
 32
0.0000
 13
0.5000
 23
0.5000
 33
0.0000
  0
ENDBLK
  8
0
  0
BLOCK
  8
0
  2
ROUNDV
 70
64
 10
0.0000
 20
0.0000
 30
0.0000
  3
ROUNDV
  0
CIRCLE
  8
0
 10
0.0000
 20
0.0000
 30
0.0000
 40
0.5000
  0
ENDBLK
  8
0
  0
BLOCK
  8
0
  2
ANNULUSV
 70
64
 10
0.0000
 20
0.0000
 30
0.0000
  3
ANNULUSV
  0
CIRCLE
  8
0
 10
0.0000
 20
0.0000
 30
0.0000
 40
0.5000
  0
ENDBLK
  8
0
  0
BLOCK
  8
0
  2
THERMALV
 70
64
 10
0.0000
 20
0.0000
 30
0.0000
  3
THERMALV
  0
LINE
  8
0
 10
-0.2379
 20
0.4500
 30
0.0000
 11
0.2379
 21
0.4500
 31
0.0000
  0
LINE
  8
0
 10
0.4500
 20
0.2379
 30
0.0000
 11
0.4500
 21
-0.2379
 31
0.0000
  0
LINE
  8
0
 10
0.2379
 20
-0.4500
 30
0.0000
 11
-0.2379
 21
-0.4500
 31
0.0000
  0
LINE
  8
0
 10
-0.4500
 20
-0.2379
 30
0.0000
 11
-0.4500
 21
0.2379
 31
0.0000
  0
ENDBLK
  8
0
  0
ENDSEC
  0
SECTION
  2
ENTITIES
  0
ARC
  8
20
 10
3.0000
 20
3.0000
 30
0.0000
 40
3.0000
 50
180.0000
 51
270.0000
  0
LINE
  8
20
 10
3.0000
 20
0.0000
 30
0.0000
 11
105.5000
 21
0.0000
 31
0.0000
  0
ARC
  8
20
 10
105.5000
 20
3.0000
 30
0.0000
 40
3.0000
 50
270.0000
 51
0.0000
  0
LINE
  8
20
 10
108.5000
 20
3.0000
 30
0.0000
 11
108.5000
 21
26.5000
 31
0.0000
  0
ARC
  8
20
 10
105.5000
 20
26.5000
 30
0.0000
 40
3.0000
 50
0.0000
 51
90.0000
  0
LINE
  8
20
 10
105.5000
 20
29.5000
 30
0.0000
 11
3.0000
 21
29.5000
 31
0.0000
  0
ARC
  8
20
 10
3.0000
 20
26.5000
 30
0.0000
 40
3.0000
 50
90.0000
 51
180.0000
  0
LINE
  8
20
 10
0.0000
 20
26.5000
 30
0.0000
 11
0.0000
 21
3.0000
 31
0.0000
  0
LINE
  8
20
 10
0.0000
 20
80.9000
 30
0.0000
 11
0.0000
 21
57.4000
 31
0.0000
  0
ARC
  8
20
 10
3.0000
 20
57.4000
 30
0.0000
 40
3.0000
 50
180.0000
 51
270.0000
  0
LINE
  8
20
 10
3.0000
 20
54.4000
 30
0.0000
 11
105.5000
 21
54.4000
 31
0.0000
  0
ARC
  8
20
 10
105.5000
 20
57.4000
 30
0.0000
 40
3.0000
 50
270.0000
 51
0.0000
  0
LINE
  8
20
 10
108.5000
 20
57.4000
 30
0.0000
 11
108.5000
 21
80.9000
 31
0.0000
  0
ARC
  8
20
 10
105.5000
 20
80.9000
 30
0.0000
 40
3.0000
 50
0.0000
 51
90.0000
  0
LINE
  8
20
 10
105.5000
 20
83.9000
 30
0.0000
 11
3.0000
 21
83.9000
 31
0.0000
  0
ARC
  8
20
 10
3.0000
 20
80.9000
 30
0.0000
 40
3.0000
 50
90.0000
 51
180.0000
  0
LINE
  8
20
 10
9.2500
 20
8.7000
 30
0.0000
 11
23.2500
 21
8.7000
 31
0.0000
  0
LINE
  8
20
 10
23.2500
 20
8.7000
 30
0.0000
 11
23.2500
 21
22.7000
 31
0.0000
  0
LINE
  8
20
 10
23.2500
 20
22.7000
 30
0.0000
 11
9.2500
 21
22.7000
 31
0.0000
  0
LINE
  8
20
 10
9.2500
 20
22.7000
 30
0.0000
 11
9.2500
 21
8.7000
 31
0.0000
  0
LINE
  8
20
 10
48.0000
 20
24.0000
 30
0.0000
 11
27.0000
 21
24.0000
 31
0.0000
  0
LINE
  8
20
 10
98.5000
 20
23.5000
 30
0.0000
 11
77.5000
 21
23.5000
 31
0.0000
  0
LINE
  8
20
 10
28.2500
 20
70.5000
 30
0.0000
 11
28.2500
 21
78.4000
 31
0.0000
  0
LINE
  8
20
 10
64.2500
 20
70.5000
 30
0.0000
 11
64.2500
 21
63.0000
 31
0.0000
  0
LINE
  8
20
 10
12.2500
 20
63.0000
 30
0.0000
 11
12.2500
 21
78.4000
 31
0.0000
  0
LINE
  8
20
 10
12.2500
 20
78.4000
 30
0.0000
 11
28.2500
 21
78.4000
 31
0.0000
  0
LINE
  8
20
 10
52.2500
 20
70.5000
 30
0.0000
 11
41.2500
 21
70.5000
 31
0.0000
  0
LINE
  8
20
 10
66.7500
 20
68.5000
 30
0.0000
 11
78.7500
 21
68.5000
 31
0.0000
  0
LINE
  8
20
 10
66.7500
 20
61.5000
 30
0.0000
 11
78.7500
 21
61.5000
 31
0.0000
  0
LINE
  8
20
 10
66.7500
 20
61.5000
 30
0.0000
 11
66.7500
 21
68.5000
 31
0.0000
  0
LINE
  8
20
 10
78.7500
 20
68.5000
 30
0.0000
 11
78.7500
 21
61.5000
 31
0.0000
  0
LINE
  8
20
 10
28.2500
 20
70.5000
 30
0.0000
 11
64.2500
 21
70.5000
 31
0.0000
  0
LINE
  8
20
 10
12.2500
 20
63.0000
 30
0.0000
 11
64.2500
 21
63.0000
 31
0.0000
  0
LINE
  8
20
 10
28.8989
 20
17.0000
 30
0.0000
 11
28.3344
 21
17.0000
 31
0.0000
  0
ARC
  8
20
 10
28.3344
 20
17.5644
 30
0.0000
 40
0.5644
 50
180.0000
 51
270.0000
  0
LINE
  8
20
 10
27.7700
 20
17.5644
 30
0.0000
 11
27.7700
 21
18.9756
 31
0.0000
  0
ARC
  8
20
 10
28.3344
 20
18.9756
 30
0.0000
 40
0.5644
 50
90.0003
 51
180.0000
  0
LINE
  8
20
 10
28.3344
 20
19.5400
 30
0.0000
 11
28.8989
 21
19.5400
 31
0.0000
  0
LINE
  8
20
 10
30.0758
 20
17.0000
 30
0.0000
 11
30.0758
 21
19.5400
 31
0.0000
  0
LINE
  8
20
 10
29.3702
 20
19.5400
 30
0.0000
 11
30.7813
 21
19.5400
 31
0.0000
  0
LINE
  8
20
 10
31.3189
 20
18.9756
 30
0.0000
 11
32.0245
 21
19.5400
 31
0.0000
  0
LINE
  8
20
 10
32.0245
 20
19.5400
 30
0.0000
 11
32.0245
 21
17.0000
 31
0.0000
  0
LINE
  8
20
 10
31.3189
 20
17.0000
 30
0.0000
 11
32.7300
 21
17.0000
 31
0.0000
  0
LINE
  8
20
 10
41.8989
 20
17.0000
 30
0.0000
 11
41.3344
 21
17.0000
 31
0.0000
  0
ARC
  8
20
 10
41.3344
 20
17.5644
 30
0.0000
 40
0.5644
 50
180.0000
 51
270.0000
  0
LINE
  8
20
 10
40.7700
 20
17.5644
 30
0.0000
 11
40.7700
 21
18.9756
 31
0.0000
  0
ARC
  8
20
 10
41.3344
 20
18.9756
 30
0.0000
 40
0.5644
 50
90.0003
 51
180.0000
  0
LINE
  8
20
 10
41.3344
 20
19.5400
 30
0.0000
 11
41.8989
 21
19.5400
 31
0.0000
  0
LINE
  8
20
 10
43.0758
 20
17.0000
 30
0.0000
 11
43.0758
 21
19.5400
 31
0.0000
  0
LINE
  8
20
 10
42.3702
 20
19.5400
 30
0.0000
 11
43.7813
 21
19.5400
 31
0.0000
  0
ARC
  8
20
 10
45.0950
 20
18.9050
 30
0.0000
 40
0.6350
 50
0.0000
 51
90.0000
  0
ARC
  8
20
 10
45.0950
 20
18.7242
 30
0.0000
 40
0.8158
 50
90.0001
 51
162.0548
  0
ARC
  8
20
 10
45.0480
 20
18.9050
 30
0.0000
 40
0.6821
 50
313.6034
 51
359.9998
  0
LINE
  8
20
 10
45.5183
 20
18.4111
 30
0.0000
 11
44.3189
 21
17.0000
 31
0.0000
  0
LINE
  8
20
 10
44.3189
 20
17.0000
 30
0.0000
 11
45.7300
 21
17.0000
 31
0.0000
  0
LINE
  8
20
 10
54.8989
 20
17.0000
 30
0.0000
 11
54.3344
 21
17.0000
 31
0.0000
  0
ARC
  8
20
 10
54.3344
 20
17.5644
 30
0.0000
 40
0.5644
 50
180.0000
 51
270.0000
  0
LINE
  8
20
 10
53.7700
 20
17.5644
 30
0.0000
 11
53.7700
 21
18.9756
 31
0.0000
  0
ARC
  8
20
 10
54.3344
 20
18.9756
 30
0.0000
 40
0.5644
 50
90.0003
 51
180.0000
  0
LINE
  8
20
 10
54.3344
 20
19.5400
 30
0.0000
 11
54.8989
 21
19.5400
 31
0.0000
  0
LINE
  8
20
 10
56.0758
 20
17.0000
 30
0.0000
 11
56.0758
 21
19.5400
 31
0.0000
  0
LINE
  8
20
 10
55.3702
 20
19.5400
 30
0.0000
 11
56.7813
 21
19.5400
 31
0.0000
  0
LINE
  8
20
 10
57.3189
 20
17.0000
 30
0.0000
 11
58.0245
 21
17.0000
 31
0.0000
  0
ARC
  8
20
 10
58.0245
 20
17.7056
 30
0.0000
 40
0.7056
 50
270.0000
 51
90.0000
  0
LINE
  8
20
 10
57.3189
 20
19.5400
 30
0.0000
 11
58.1656
 21
19.5400
 31
0.0000
  0
ARC
  8
20
 10
58.1656
 20
18.9756
 30
0.0000
 40
0.5644
 50
270.0000
 51
90.0000
  0
LINE
  8
20
 10
58.1656
 20
18.4111
 30
0.0000
 11
57.6011
 21
18.4111
 31
0.0000
  0
LINE
  8
20
 10
67.8989
 20
17.0000
 30
0.0000
 11
67.3344
 21
17.0000
 31
0.0000
  0
ARC
  8
20
 10
67.3344
 20
17.5644
 30
0.0000
 40
0.5644
 50
180.0000
 51
270.0000
  0
LINE
  8
20
 10
66.7700
 20
17.5644
 30
0.0000
 11
66.7700
 21
18.9756
 31
0.0000
  0
ARC
  8
20
 10
67.3344
 20
18.9756
 30
0.0000
 40
0.5644
 50
90.0003
 51
180.0000
  0
LINE
  8
20
 10
67.3344
 20
19.5400
 30
0.0000
 11
67.8989
 21
19.5400
 31
0.0000
  0
LINE
  8
20
 10
69.0758
 20
17.0000
 30
0.0000
 11
69.0758
 21
19.5400
 31
0.0000
  0
LINE
  8
20
 10
68.3702
 20
19.5400
 30
0.0000
 11
69.7813
 21
19.5400
 31
0.0000
  0
LINE
  8
20
 10
70.8833
 20
19.5400
 30
0.0000
 11
70.3189
 21
17.5644
 31
0.0000
  0
LINE
  8
20
 10
70.3189
 20
17.5644
 30
0.0000
 11
71.7300
 21
17.5644
 31
0.0000
  0
LINE
  8
20
 10
71.3067
 20
18.1289
 30
0.0000
 11
71.3067
 21
17.0000
 31
0.0000
  0
LINE
  8
20
 10
80.8989
 20
17.0000
 30
0.0000
 11
80.3344
 21
17.0000
 31
0.0000
  0
ARC
  8
20
 10
80.3344
 20
17.5644
 30
0.0000
 40
0.5644
 50
180.0000
 51
270.0000
  0
LINE
  8
20
 10
79.7700
 20
17.5644
 30
0.0000
 11
79.7700
 21
18.9756
 31
0.0000
  0
ARC
  8
20
 10
80.3344
 20
18.9756
 30
0.0000
 40
0.5644
 50
90.0003
 51
180.0000
  0
LINE
  8
20
 10
80.3344
 20
19.5400
 30
0.0000
 11
80.8989
 21
19.5400
 31
0.0000
  0
LINE
  8
20
 10
82.0758
 20
17.0000
 30
0.0000
 11
82.0758
 21
19.5400
 31
0.0000
  0
LINE
  8
20
 10
81.3702
 20
19.5400
 30
0.0000
 11
82.7813
 21
19.5400
 31
0.0000
  0
LINE
  8
20
 10
83.3189
 20
17.0000
 30
0.0000
 11
84.1656
 21
17.0000
 31
0.0000
  0
ARC
  8
20
 10
84.1656
 20
17.5644
 30
0.0000
 40
0.5644
 50
270.0000
 51
0.0000
  0
LINE
  8
20
 10
84.7300
 20
17.5644
 30
0.0000
 11
84.7300
 21
17.8467
 31
0.0000
  0
ARC
  8
20
 10
84.1656
 20
17.8467
 30
0.0000
 40
0.5644
 50
0.0000
 51
90.0000
  0
LINE
  8
20
 10
84.1656
 20
18.4111
 30
0.0000
 11
83.3189
 21
18.4111
 31
0.0000
  0
LINE
  8
20
 10
83.3189
 20
18.4111
 30
0.0000
 11
83.3189
 21
19.5400
 31
0.0000
  0
LINE
  8
20
 10
83.3189
 20
19.5400
 30
0.0000
 11
84.7300
 21
19.5400
 31
0.0000
  0
LINE
  8
20
 10
93.8989
 20
17.0000
 30
0.0000
 11
93.3344
 21
17.0000
 31
0.0000
  0
ARC
  8
20
 10
93.3344
 20
17.5644
 30
0.0000
 40
0.5644
 50
180.0000
 51
270.0000
  0
LINE
  8
20
 10
92.7700
 20
17.5644
 30
0.0000
 11
92.7700
 21
18.9756
 31
0.0000
  0
ARC
  8
20
 10
93.3344
 20
18.9756
 30
0.0000
 40
0.5644
 50
90.0003
 51
180.0000
  0
LINE
  8
20
 10
93.3344
 20
19.5400
 30
0.0000
 11
93.8989
 21
19.5400
 31
0.0000
  0
LINE
  8
20
 10
95.0758
 20
17.0000
 30
0.0000
 11
95.0758
 21
19.5400
 31
0.0000
  0
LINE
  8
20
 10
94.3702
 20
19.5400
 30
0.0000
 11
95.7813
 21
19.5400
 31
0.0000
  0
LINE
  8
20
 10
96.3189
 20
18.4111
 30
0.0000
 11
97.1656
 21
18.4111
 31
0.0000
  0
ARC
  8
20
 10
97.1656
 20
17.8467
 30
0.0000
 40
0.5644
 50
0.0000
 51
90.0000
  0
LINE
  8
20
 10
97.7300
 20
17.8467
 30
0.0000
 11
97.7300
 21
17.7056
 31
0.0000
  0
ARC
  8
20
 10
97.0245
 20
17.7056
 30
0.0000
 40
0.7056
 50
180.0000
 51
0.0000
  0
LINE
  8
20
 10
96.3189
 20
17.7056
 30
0.0000
 11
96.3189
 21
18.4111
 31
0.0000
  0
ARC
  8
20
 10
97.4478
 20
18.4111
 30
0.0000
 40
1.1289
 50
90.0002
 51
180.0000
  0
LINE
  8
20
 10
49.6568
 20
23.0000
 30
0.0000
 11
50.3624
 21
23.0000
 31
0.0000
  0
ARC
  8
20
 10
50.3624
 20
23.7056
 30
0.0000
 40
0.7056
 50
270.0000
 51
90.0000
  0
LINE
  8
20
 10
49.6568
 20
25.5400
 30
0.0000
 11
50.5035
 21
25.5400
 31
0.0000
  0
ARC
  8
20
 10
50.5035
 20
24.9756
 30
0.0000
 40
0.5644
 50
270.0000
 51
90.0000
  0
LINE
  8
20
 10
50.5035
 20
24.4111
 30
0.0000
 11
49.9391
 21
24.4111
 31
0.0000
  0
LINE
  8
20
 10
51.7447
 20
23.0000
 30
0.0000
 11
52.4503
 21
23.0000
 31
0.0000
  0
ARC
  8
20
 10
52.4503
 20
23.7056
 30
0.0000
 40
0.7056
 50
270.0000
 51
90.0000
  0
LINE
  8
20
 10
51.7447
 20
25.5400
 30
0.0000
 11
52.5914
 21
25.5400
 31
0.0000
  0
ARC
  8
20
 10
52.5914
 20
24.9756
 30
0.0000
 40
0.5644
 50
270.0000
 51
90.0000
  0
LINE
  8
20
 10
52.5914
 20
24.4111
 30
0.0000
 11
52.0269
 21
24.4111
 31
0.0000
  0
LINE
  8
20
 10
53.8326
 20
23.0000
 30
0.0000
 11
54.5382
 21
23.0000
 31
0.0000
  0
ARC
  8
20
 10
54.5382
 20
23.7056
 30
0.0000
 40
0.7056
 50
270.0000
 51
90.0000
  0
LINE
  8
20
 10
53.8326
 20
25.5400
 30
0.0000
 11
54.6793
 21
25.5400
 31
0.0000
  0
ARC
  8
20
 10
54.6793
 20
24.9756
 30
0.0000
 40
0.5644
 50
270.0000
 51
90.0000
  0
LINE
  8
20
 10
54.6793
 20
24.4111
 30
0.0000
 11
54.1148
 21
24.4111
 31
0.0000
  0
LINE
  8
20
 10
55.9882
 20
23.0000
 30
0.0000
 11
55.9882
 21
24.6933
 31
0.0000
  0
LINE
  8
20
 10
55.9882
 20
24.6933
 30
0.0000
 11
57.2582
 21
24.6933
 31
0.0000
  0
ARC
  8
20
 10
57.2582
 20
24.2700
 30
0.0000
 40
0.4233
 50
0.0000
 51
90.0000
  0
LINE
  8
20
 10
57.6815
 20
24.2700
 30
0.0000
 11
57.6815
 21
23.0000
 31
0.0000
  0
LINE
  8
20
 10
56.8348
 20
23.0000
 30
0.0000
 11
56.8348
 21
24.6933
 31
0.0000
  0
LINE
  8
20
 10
58.2848
 20
25.5400
 30
0.0000
 11
59.1315
 21
23.0000
 31
0.0000
  0
LINE
  8
20
 10
59.1315
 20
23.0000
 30
0.0000
 11
59.9782
 21
25.5400
 31
0.0000
  0
LINE
  8
20
 10
62.7567
 20
23.0000
 30
0.0000
 11
62.1923
 21
23.0000
 31
0.0000
  0
ARC
  8
20
 10
62.1923
 20
23.5644
 30
0.0000
 40
0.5644
 50
180.0000
 51
270.0000
  0
LINE
  8
20
 10
61.6278
 20
23.5644
 30
0.0000
 11
61.6278
 21
24.9756
 31
0.0000
  0
ARC
  8
20
 10
62.1923
 20
24.9756
 30
0.0000
 40
0.5644
 50
90.0003
 51
180.0000
  0
LINE
  8
20
 10
62.1923
 20
25.5400
 30
0.0000
 11
62.7567
 21
25.5400
 31
0.0000
  0
LINE
  8
20
 10
63.9336
 20
23.0000
 30
0.0000
 11
63.9336
 21
25.5400
 31
0.0000
  0
LINE
  8
20
 10
63.2281
 20
25.5400
 30
0.0000
 11
64.6392
 21
25.5400
 31
0.0000
  0
LINE
  8
20
 10
66.5783
 20
25.5400
 30
0.0000
 11
66.5783
 21
23.0000
 31
0.0000
  0
LINE
  8
20
 10
66.2960
 20
23.0000
 30
0.0000
 11
66.8605
 21
23.0000
 31
0.0000
  0
LINE
  8
20
 10
66.2960
 20
25.5400
 30
0.0000
 11
66.8605
 21
25.5400
 31
0.0000
  0
LINE
  8
20
 10
67.6145
 20
23.0000
 30
0.0000
 11
67.6145
 21
24.6933
 31
0.0000
  0
LINE
  8
20
 10
67.6145
 20
24.6933
 30
0.0000
 11
68.3201
 21
24.6933
 31
0.0000
  0
ARC
  8
20
 10
68.3201
 20
24.2700
 30
0.0000
 40
0.4233
 50
0.0004
 51
90.0000
  0
LINE
  8
20
 10
68.7434
 20
24.2700
 30
0.0000
 11
68.7434
 21
23.0000
 31
0.0000
  0
LINE
  8
20
 10
69.5622
 20
22.1533
 30
0.0000
 11
69.5622
 21
24.6933
 31
0.0000
  0
LINE
  8
20
 10
69.5622
 20
24.6933
 30
0.0000
 11
70.2677
 21
24.6933
 31
0.0000
  0
ARC
  8
20
 10
70.2677
 20
24.2700
 30
0.0000
 40
0.4233
 50
0.0004
 51
90.0000
  0
LINE
  8
20
 10
70.6911
 20
24.2700
 30
0.0000
 11
70.6911
 21
23.4233
 31
0.0000
  0
ARC
  8
20
 10
70.2677
 20
23.4233
 30
0.0000
 40
0.4233
 50
270.0000
 51
0.0000
  0
LINE
  8
20
 10
70.2677
 20
23.0000
 30
0.0000
 11
69.5622
 21
23.0000
 31
0.0000
  0
LINE
  8
20
 10
71.4423
 20
24.6933
 30
0.0000
 11
71.4423
 21
23.4233
 31
0.0000
  0
ARC
  8
20
 10
71.8656
 20
23.4233
 30
0.0000
 40
0.4233
 50
180.0000
 51
270.0000
  0
LINE
  8
20
 10
71.8656
 20
23.0000
 30
0.0000
 11
72.5712
 21
23.0000
 31
0.0000
  0
LINE
  8
20
 10
72.5712
 20
23.0000
 30
0.0000
 11
72.5712
 21
24.6933
 31
0.0000
  0
LINE
  8
20
 10
73.1858
 20
24.6933
 30
0.0000
 11
74.0325
 21
24.6933
 31
0.0000
  0
LINE
  8
20
 10
73.4681
 20
25.5400
 30
0.0000
 11
73.4681
 21
23.4233
 31
0.0000
  0
ARC
  8
20
 10
73.8914
 20
23.4233
 30
0.0000
 40
0.4233
 50
180.0000
 51
270.0000
  0
LINE
  8
20
 10
73.8914
 20
23.0000
 30
0.0000
 11
74.0325
 21
23.0000
 31
0.0000
  0
LINE
  8
20
 10
75.5609
 20
23.7056
 30
0.0000
 11
74.8554
 21
23.9878
 31
0.0000
  0
ARC
  8
20
 10
74.9913
 20
24.3275
 30
0.0000
 40
0.3659
 50
89.1818
 51
248.1987
  0
ARC
  8
20
 10
74.9736
 20
23.0910
 30
0.0000
 40
1.6025
 50
65.7609
 51
89.1817
  0
ARC
  8
20
 10
75.4250
 20
23.3658
 30
0.0000
 40
0.3659
 50
269.1817
 51
68.1987
  0
ARC
  8
20
 10
75.4540
 20
25.3929
 30
0.0000
 40
2.3931
 50
250.2088
 51
269.1818
  0
LINE
  8
20
 10
10.2803
 20
24.0000
 30
0.0000
 11
11.1270
 21
26.5400
 31
0.0000
  0
LINE
  8
20
 10
11.1270
 20
26.5400
 30
0.0000
 11
11.9737
 21
24.0000
 31
0.0000
  0
LINE
  8
20
 10
11.7620
 20
24.6350
 30
0.0000
 11
10.4920
 21
24.6350
 31
0.0000
  0
LINE
  8
20
 10
13.6387
 20
24.0000
 30
0.0000
 11
13.0742
 21
24.0000
 31
0.0000
  0
ARC
  8
20
 10
13.0742
 20
24.5644
 30
0.0000
 40
0.5644
 50
180.0000
 51
270.0000
  0
LINE
  8
20
 10
12.5098
 20
24.5644
 30
0.0000
 11
12.5098
 21
25.9756
 31
0.0000
  0
ARC
  8
20
 10
13.0743
 20
25.9756
 30
0.0000
 40
0.5644
 50
90.0003
 51
180.0000
  0
LINE
  8
20
 10
13.0742
 20
26.5400
 30
0.0000
 11
13.6387
 21
26.5400
 31
0.0000
  0
LINE
  8
20
 10
15.2216
 20
26.5400
 30
0.0000
 11
16.0683
 21
24.0000
 31
0.0000
  0
LINE
  8
20
 10
16.0683
 20
24.0000
 30
0.0000
 11
16.9150
 21
26.5400
 31
0.0000
  0
LINE
  8
20
 10
18.3698
 20
24.7056
 30
0.0000
 11
17.6642
 21
24.9878
 31
0.0000
  0
ARC
  8
20
 10
17.8001
 20
25.3275
 30
0.0000
 40
0.3659
 50
89.1818
 51
248.1987
  0
ARC
  8
20
 10
17.7824
 20
24.0910
 30
0.0000
 40
1.6025
 50
65.7609
 51
89.1817
  0
ARC
  8
20
 10
18.2339
 20
24.3658
 30
0.0000
 40
0.3659
 50
269.1817
 51
68.1987
  0
ARC
  8
20
 10
18.2628
 20
26.3929
 30
0.0000
 40
2.3931
 50
250.2088
 51
269.1818
  0
LINE
  8
20
 10
20.3909
 20
24.0000
 30
0.0000
 11
19.6854
 21
24.0000
 31
0.0000
  0
ARC
  8
20
 10
19.6854
 20
24.4233
 30
0.0000
 40
0.4233
 50
180.0000
 51
270.0000
  0
LINE
  8
20
 10
19.2620
 20
24.4233
 30
0.0000
 11
19.2620
 21
25.1289
 31
0.0000
  0
ARC
  8
20
 10
19.8265
 20
25.1289
 30
0.0000
 40
0.5644
 50
0.0000
 51
180.0000
  0
LINE
  8
20
 10
20.3909
 20
25.1289
 30
0.0000
 11
20.3909
 21
24.8467
 31
0.0000
  0
LINE
  8
20
 10
20.3909
 20
24.8467
 30
0.0000
 11
19.2620
 21
24.8467
 31
0.0000
  0
LINE
  8
20
 10
21.1411
 20
24.0000
 30
0.0000
 11
21.1411
 21
25.6933
 31
0.0000
  0
LINE
  8
20
 10
21.1411
 20
25.6933
 30
0.0000
 11
21.8467
 21
25.6933
 31
0.0000
  0
ARC
  8
20
 10
21.8467
 20
25.2700
 30
0.0000
 40
0.4233
 50
0.0004
 51
90.0000
  0
LINE
  8
20
 10
22.2700
 20
25.2700
 30
0.0000
 11
22.2700
 21
24.0000
 31
0.0000
  0
LINE
  8
20
 10
23.9374
 20
24.7056
 30
0.0000
 11
23.2319
 21
24.9878
 31
0.0000
  0
ARC
  8
20
 10
23.3678
 20
25.3275
 30
0.0000
 40
0.3659
 50
89.1818
 51
248.1987
  0
ARC
  8
20
 10
23.3501
 20
24.0910
 30
0.0000
 40
1.6025
 50
65.7609
 51
89.1817
  0
ARC
  8
20
 10
23.8016
 20
24.3658
 30
0.0000
 40
0.3659
 50
269.1817
 51
68.1987
  0
ARC
  8
20
 10
23.8305
 20
26.3929
 30
0.0000
 40
2.3931
 50
250.2088
 51
269.1818
  0
LINE
  8
20
 10
10.0247
 20
5.0000
 30
0.0000
 11
10.0247
 21
7.5400
 31
0.0000
  0
LINE
  8
20
 10
10.0247
 20
7.5400
 30
0.0000
 11
10.7302
 21
7.5400
 31
0.0000
  0
ARC
  8
20
 10
10.7302
 20
6.8344
 30
0.0000
 40
0.7056
 50
270.0000
 51
90.0000
  0
LINE
  8
20
 10
10.7302
 20
6.1289
 30
0.0000
 11
10.0247
 21
6.1289
 31
0.0000
  0
ARC
  8
20
 10
12.8230
 20
5.5644
 30
0.0000
 40
0.5644
 50
270.0000
 51
0.0000
  0
ARC
  8
20
 10
12.8230
 20
6.1924
 30
0.0000
 40
1.1924
 50
224.7606
 51
269.9999
  0
ARC
  8
20
 10
12.6114
 20
6.9756
 30
0.0000
 40
0.5644
 50
89.9997
 51
180.0000
  0
ARC
  8
20
 10
12.6114
 20
6.4817
 30
0.0000
 40
1.0583
 50
53.1301
 51
89.9997
  0
ARC
  8
20
 10
12.6202
 20
6.9756
 30
0.0000
 40
0.5733
 50
179.9999
 51
239.4899
  0
ARC
  8
20
 10
12.8142
 20
5.5644
 30
0.0000
 40
0.5733
 50
0.0000
 51
59.4898
  0
LINE
  8
20
 10
13.1052
 20
6.0583
 30
0.0000
 11
12.3291
 21
6.4817
 31
0.0000
  0
LINE
  8
20
 10
14.0642
 20
7.5400
 30
0.0000
 11
14.0642
 21
5.7056
 31
0.0000
  0
ARC
  8
20
 10
14.7698
 20
5.7056
 30
0.0000
 40
0.7056
 50
180.0000
 51
0.0000
  0
LINE
  8
20
 10
15.4753
 20
5.7056
 30
0.0000
 11
15.4753
 21
7.5400
 31
0.0000
  0
LINE
  8
20
 10
21.6331
 20
59.2056
 30
0.0000
 11
21.6331
 21
60.3344
 31
0.0000
  0
ARC
  8
20
 10
22.3386
 20
60.3344
 30
0.0000
 40
0.7056
 50
0.0000
 51
180.0000
  0
LINE
  8
20
 10
23.0442
 20
60.3344
 30
0.0000
 11
23.0442
 21
59.2056
 31
0.0000
  0
ARC
  8
20
 10
22.3386
 20
59.2056
 30
0.0000
 40
0.7056
 50
180.0000
 51
0.0000
  0
LINE
  8
20
 10
23.7914
 20
57.6533
 30
0.0000
 11
23.7914
 21
60.1933
 31
0.0000
  0
LINE
  8
20
 10
23.7914
 20
60.1933
 30
0.0000
 11
24.4970
 21
60.1933
 31
0.0000
  0
ARC
  8
20
 10
24.4970
 20
59.7700
 30
0.0000
 40
0.4233
 50
0.0004
 51
90.0000
  0
LINE
  8
20
 10
24.9203
 20
59.7700
 30
0.0000
 11
24.9203
 21
58.9233
 31
0.0000
  0
ARC
  8
20
 10
24.4970
 20
58.9233
 30
0.0000
 40
0.4233
 50
270.0000
 51
0.0000
  0
LINE
  8
20
 10
24.4970
 20
58.5000
 30
0.0000
 11
23.7914
 21
58.5000
 31
0.0000
  0
LINE
  8
20
 10
26.7308
 20
58.5000
 30
0.0000
 11
26.0253
 21
58.5000
 31
0.0000
  0
ARC
  8
20
 10
26.0253
 20
58.9233
 30
0.0000
 40
0.4233
 50
180.0000
 51
270.0000
  0
LINE
  8
20
 10
25.6020
 20
58.9233
 30
0.0000
 11
25.6020
 21
59.6289
 31
0.0000
  0
ARC
  8
20
 10
26.1664
 20
59.6289
 30
0.0000
 40
0.5644
 50
0.0000
 51
180.0000
  0
LINE
  8
20
 10
26.7308
 20
59.6289
 30
0.0000
 11
26.7308
 21
59.3467
 31
0.0000
  0
LINE
  8
20
 10
26.7308
 20
59.3467
 30
0.0000
 11
25.6020
 21
59.3467
 31
0.0000
  0
LINE
  8
20
 10
27.4810
 20
58.5000
 30
0.0000
 11
27.4810
 21
60.1933
 31
0.0000
  0
LINE
  8
20
 10
27.4810
 20
60.1933
 30
0.0000
 11
28.1866
 21
60.1933
 31
0.0000
  0
ARC
  8
20
 10
28.1866
 20
59.7700
 30
0.0000
 40
0.4233
 50
0.0004
 51
90.0000
  0
LINE
  8
20
 10
28.6099
 20
59.7700
 30
0.0000
 11
28.6099
 21
58.5000
 31
0.0000
  0
LINE
  8
20
 10
30.5562
 20
58.5000
 30
0.0000
 11
29.4273
 21
58.5000
 31
0.0000
  0
LINE
  8
20
 10
29.4273
 20
58.5000
 30
0.0000
 11
29.4273
 21
61.0400
 31
0.0000
  0
LINE
  8
20
 10
29.4273
 20
61.0400
 30
0.0000
 11
30.5562
 21
61.0400
 31
0.0000
  0
LINE
  8
20
 10
29.4273
 20
59.9111
 30
0.0000
 11
30.2740
 21
59.9111
 31
0.0000
  0
LINE
  8
20
 10
31.2392
 20
58.5000
 30
0.0000
 11
31.2392
 21
60.1933
 31
0.0000
  0
LINE
  8
20
 10
31.2392
 20
60.1933
 30
0.0000
 11
31.9448
 21
60.1933
 31
0.0000
  0
ARC
  8
20
 10
31.9448
 20
59.7700
 30
0.0000
 40
0.4233
 50
0.0004
 51
90.0000
  0
LINE
  8
20
 10
32.3681
 20
59.7700
 30
0.0000
 11
32.3681
 21
58.5000
 31
0.0000
  0
LINE
  8
20
 10
34.2472
 20
58.5000
 30
0.0000
 11
33.5417
 21
58.5000
 31
0.0000
  0
ARC
  8
20
 10
33.5417
 20
58.9233
 30
0.0000
 40
0.4233
 50
180.0000
 51
270.0000
  0
LINE
  8
20
 10
33.1183
 20
58.9233
 30
0.0000
 11
33.1183
 21
59.6289
 31
0.0000
  0
ARC
  8
20
 10
33.6828
 20
59.6289
 30
0.0000
 40
0.5644
 50
0.0000
 51
180.0000
  0
LINE
  8
20
 10
34.2472
 20
59.6289
 30
0.0000
 11
34.2472
 21
59.3467
 31
0.0000
  0
LINE
  8
20
 10
34.2472
 20
59.3467
 30
0.0000
 11
33.1183
 21
59.3467
 31
0.0000
  0
LINE
  8
20
 10
34.9961
 20
58.5000
 30
0.0000
 11
34.9961
 21
60.1933
 31
0.0000
  0
LINE
  8
20
 10
34.9961
 20
60.1933
 30
0.0000
 11
35.8428
 21
60.1933
 31
0.0000
  0
LINE
  8
20
 10
35.8428
 20
60.1933
 30
0.0000
 11
35.8428
 21
59.9111
 31
0.0000
  0
LINE
  8
20
 10
37.5193
 20
58.5000
 30
0.0000
 11
36.8137
 21
58.5000
 31
0.0000
  0
ARC
  8
20
 10
36.8137
 20
58.9233
 30
0.0000
 40
0.4233
 50
180.0000
 51
270.0000
  0
LINE
  8
20
 10
36.3904
 20
58.9233
 30
0.0000
 11
36.3904
 21
59.7700
 31
0.0000
  0
ARC
  8
20
 10
36.8137
 20
59.7700
 30
0.0000
 40
0.4233
 50
90.0000
 51
180.0000
  0
LINE
  8
20
 10
36.8137
 20
60.1933
 30
0.0000
 11
37.5193
 21
60.1933
 31
0.0000
  0
LINE
  8
20
 10
37.5193
 20
60.1933
 30
0.0000
 11
37.5193
 21
58.0767
 31
0.0000
  0
ARC
  8
20
 10
37.0959
 20
58.0767
 30
0.0000
 40
0.4233
 50
270.0004
 51
360.0000
  0
LINE
  8
20
 10
37.0959
 20
57.6533
 30
0.0000
 11
36.5315
 21
57.6533
 31
0.0000
  0
LINE
  8
20
 10
38.1988
 20
57.6533
 30
0.0000
 11
38.4810
 21
57.6533
 31
0.0000
  0
LINE
  8
20
 10
38.4810
 20
57.6533
 30
0.0000
 11
39.3277
 21
60.1933
 31
0.0000
  0
LINE
  8
20
 10
38.1988
 20
60.1933
 30
0.0000
 11
38.7633
 21
58.5000
 31
0.0000
  0
LINE
  8
20
 10
40.0045
 20
58.5000
 30
0.0000
 11
40.0045
 21
61.0400
 31
0.0000
  0
LINE
  8
20
 10
40.0045
 20
61.0400
 30
0.0000
 11
40.8511
 21
59.6289
 31
0.0000
  0
LINE
  8
20
 10
40.8511
 20
59.6289
 30
0.0000
 11
41.6978
 21
61.0400
 31
0.0000
  0
LINE
  8
20
 10
41.6978
 20
61.0400
 30
0.0000
 11
41.6978
 21
58.5000
 31
0.0000
  0
LINE
  8
20
 10
42.4442
 20
59.0644
 30
0.0000
 11
42.4442
 21
59.6289
 31
0.0000
  0
ARC
  8
20
 10
43.0086
 20
59.6289
 30
0.0000
 40
0.5644
 50
0.0000
 51
180.0000
  0
LINE
  8
20
 10
43.5731
 20
59.6289
 30
0.0000
 11
43.5731
 21
59.0644
 31
0.0000
  0
ARC
  8
20
 10
43.0086
 20
59.0644
 30
0.0000
 40
0.5644
 50
180.0000
 51
0.0000
  0
LINE
  8
20
 10
44.3233
 20
58.5000
 30
0.0000
 11
44.3233
 21
60.1933
 31
0.0000
  0
LINE
  8
20
 10
44.3233
 20
60.1933
 30
0.0000
 11
45.0288
 21
60.1933
 31
0.0000
  0
ARC
  8
20
 10
45.0288
 20
59.7700
 30
0.0000
 40
0.4233
 50
0.0004
 51
90.0000
  0
LINE
  8
20
 10
45.4522
 20
59.7700
 30
0.0000
 11
45.4522
 21
58.5000
 31
0.0000
  0
LINE
  8
20
 10
46.2796
 20
58.5000
 30
0.0000
 11
46.2796
 21
60.1933
 31
0.0000
  0
LINE
  8
20
 10
46.2091
 20
60.8989
 30
0.0000
 11
46.2091
 21
61.0400
 31
0.0000
  0
LINE
  8
20
 10
46.2091
 20
61.0400
 30
0.0000
 11
46.3502
 21
61.0400
 31
0.0000
  0
LINE
  8
20
 10
46.3502
 20
61.0400
 30
0.0000
 11
46.3502
 21
60.8989
 31
0.0000
  0
LINE
  8
20
 10
46.3502
 20
60.8989
 30
0.0000
 11
46.2091
 21
60.8989
 31
0.0000
  0
LINE
  8
20
 10
46.9020
 20
60.1933
 30
0.0000
 11
47.7486
 21
60.1933
 31
0.0000
  0
LINE
  8
20
 10
47.1842
 20
61.0400
 30
0.0000
 11
47.1842
 21
58.9233
 31
0.0000
  0
ARC
  8
20
 10
47.6075
 20
58.9233
 30
0.0000
 40
0.4233
 50
180.0000
 51
270.0000
  0
LINE
  8
20
 10
47.6075
 20
58.5000
 30
0.0000
 11
47.7486
 21
58.5000
 31
0.0000
  0
LINE
  8
20
 10
48.3598
 20
59.0644
 30
0.0000
 11
48.3598
 21
59.6289
 31
0.0000
  0
ARC
  8
20
 10
48.9243
 20
59.6289
 30
0.0000
 40
0.5644
 50
0.0000
 51
180.0000
  0
LINE
  8
20
 10
49.4887
 20
59.6289
 30
0.0000
 11
49.4887
 21
59.0644
 31
0.0000
  0
ARC
  8
20
 10
48.9243
 20
59.0644
 30
0.0000
 40
0.5644
 50
180.0000
 51
0.0000
  0
LINE
  8
20
 10
50.2376
 20
58.5000
 30
0.0000
 11
50.2376
 21
60.1933
 31
0.0000
  0
LINE
  8
20
 10
50.2376
 20
60.1933
 30
0.0000
 11
51.0843
 21
60.1933
 31
0.0000
  0
LINE
  8
20
 10
51.0843
 20
60.1933
 30
0.0000
 11
51.0843
 21
59.9111
 31
0.0000
  0
LINE
  8
20
 10
51.6376
 20
58.5000
 30
0.0000
 11
51.6376
 21
58.6411
 31
0.0000
  0
LINE
  8
20
 10
51.6376
 20
58.6411
 30
0.0000
 11
51.7787
 21
58.6411
 31
0.0000
  0
LINE
  8
20
 10
51.7787
 20
58.6411
 30
0.0000
 11
51.7787
 21
58.5000
 31
0.0000
  0
LINE
  8
20
 10
51.7787
 20
58.5000
 30
0.0000
 11
51.6376
 21
58.5000
 31
0.0000
  0
LINE
  8
20
 10
52.4660
 20
59.0644
 30
0.0000
 11
52.4660
 21
59.6289
 31
0.0000
  0
ARC
  8
20
 10
53.0304
 20
59.6289
 30
0.0000
 40
0.5644
 50
0.0000
 51
180.0000
  0
LINE
  8
20
 10
53.5949
 20
59.6289
 30
0.0000
 11
53.5949
 21
59.0644
 31
0.0000
  0
ARC
  8
20
 10
53.0304
 20
59.0644
 30
0.0000
 40
0.5644
 50
180.0000
 51
0.0000
  0
LINE
  8
20
 10
54.3438
 20
58.5000
 30
0.0000
 11
54.3438
 21
60.1933
 31
0.0000
  0
LINE
  8
20
 10
54.3438
 20
60.1933
 30
0.0000
 11
55.1904
 21
60.1933
 31
0.0000
  0
LINE
  8
20
 10
55.1904
 20
60.1933
 30
0.0000
 11
55.1904
 21
59.9111
 31
0.0000
  0
LINE
  8
20
 10
56.8669
 20
58.5000
 30
0.0000
 11
56.1614
 21
58.5000
 31
0.0000
  0
ARC
  8
20
 10
56.1614
 20
58.9233
 30
0.0000
 40
0.4233
 50
180.0000
 51
270.0000
  0
LINE
  8
20
 10
55.7380
 20
58.9233
 30
0.0000
 11
55.7380
 21
59.7700
 31
0.0000
  0
ARC
  8
20
 10
56.1614
 20
59.7700
 30
0.0000
 40
0.4233
 50
90.0000
 51
180.0000
  0
LINE
  8
20
 10
56.1614
 20
60.1933
 30
0.0000
 11
56.8669
 21
60.1933
 31
0.0000
  0
LINE
  8
20
 10
56.8669
 20
60.1933
 30
0.0000
 11
56.8669
 21
58.0767
 31
0.0000
  0
ARC
  8
20
 10
56.4436
 20
58.0767
 30
0.0000
 40
0.4233
 50
270.0004
 51
360.0000
  0
LINE
  8
20
 10
56.4436
 20
57.6533
 30
0.0000
 11
55.8792
 21
57.6533
 31
0.0000
  0
LINE
  8
20
 10
72.7081
 20
72.0400
 30
0.0000
 11
72.7081
 21
70.2056
 31
0.0000
  0
ARC
  8
20
 10
73.4136
 20
70.2056
 30
0.0000
 40
0.7056
 50
180.0000
 51
0.0000
  0
LINE
  8
20
 10
74.1192
 20
70.2056
 30
0.0000
 11
74.1192
 21
72.0400
 31
0.0000
  0
ARC
  8
20
 10
75.6426
 20
70.0644
 30
0.0000
 40
0.5644
 50
270.0000
 51
0.0000
  0
ARC
  8
20
 10
75.6426
 20
70.6924
 30
0.0000
 40
1.1924
 50
224.7606
 51
269.9999
  0
ARC
  8
20
 10
75.4310
 20
71.4756
 30
0.0000
 40
0.5644
 50
89.9997
 51
180.0000
  0
ARC
  8
20
 10
75.4310
 20
70.9817
 30
0.0000
 40
1.0583
 50
53.1301
 51
89.9997
  0
ARC
  8
20
 10
75.4398
 20
71.4756
 30
0.0000
 40
0.5733
 50
179.9999
 51
239.4899
  0
ARC
  8
20
 10
75.6338
 20
70.0644
 30
0.0000
 40
0.5733
 50
0.0000
 51
59.4898
  0
LINE
  8
20
 10
75.9248
 20
70.5583
 30
0.0000
 11
75.1487
 21
70.9817
 31
0.0000
  0
LINE
  8
20
 10
76.8808
 20
70.9111
 30
0.0000
 11
77.5864
 21
70.9111
 31
0.0000
  0
ARC
  8
20
 10
77.5864
 20
70.2056
 30
0.0000
 40
0.7056
 50
270.0000
 51
90.0000
  0
LINE
  8
20
 10
77.5864
 20
69.5000
 30
0.0000
 11
76.8808
 21
69.5000
 31
0.0000
  0
LINE
  8
20
 10
76.8808
 20
69.5000
 30
0.0000
 11
76.8808
 21
72.0400
 31
0.0000
  0
LINE
  8
20
 10
76.8808
 20
72.0400
 30
0.0000
 11
77.5864
 21
72.0400
 31
0.0000
  0
ARC
  8
20
 10
77.5864
 20
71.4756
 30
0.0000
 40
0.5644
 50
270.0000
 51
90.0000
  0
LINE
  8
20
 10
31.2819
 20
74.2056
 30
0.0000
 11
31.2819
 21
75.3344
 31
0.0000
  0
ARC
  8
20
 10
31.9875
 20
75.3344
 30
0.0000
 40
0.7056
 50
0.0000
 51
180.0000
  0
LINE
  8
20
 10
32.6930
 20
75.3344
 30
0.0000
 11
32.6930
 21
74.2056
 31
0.0000
  0
ARC
  8
20
 10
31.9875
 20
74.2056
 30
0.0000
 40
0.7056
 50
180.0000
 51
0.0000
  0
LINE
  8
20
 10
33.4413
 20
73.5000
 30
0.0000
 11
33.4413
 21
75.1933
 31
0.0000
  0
LINE
  8
20
 10
33.4413
 20
75.1933
 30
0.0000
 11
34.1469
 21
75.1933
 31
0.0000
  0
ARC
  8
20
 10
34.1469
 20
74.7700
 30
0.0000
 40
0.4233
 50
0.0004
 51
90.0000
  0
LINE
  8
20
 10
34.5702
 20
74.7700
 30
0.0000
 11
34.5702
 21
73.5000
 31
0.0000
  0
LINE
  8
20
 10
36.4493
 20
73.5000
 30
0.0000
 11
35.7437
 21
73.5000
 31
0.0000
  0
ARC
  8
20
 10
35.7437
 20
73.9233
 30
0.0000
 40
0.4233
 50
180.0000
 51
270.0000
  0
LINE
  8
20
 10
35.3204
 20
73.9233
 30
0.0000
 11
35.3204
 21
74.6289
 31
0.0000
  0
ARC
  8
20
 10
35.8849
 20
74.6289
 30
0.0000
 40
0.5644
 50
0.0000
 51
180.0000
  0
LINE
  8
20
 10
36.4493
 20
74.6289
 30
0.0000
 11
36.4493
 21
74.3467
 31
0.0000
  0
LINE
  8
20
 10
36.4493
 20
74.3467
 30
0.0000
 11
35.3204
 21
74.3467
 31
0.0000
  0
LINE
  8
20
 10
37.1261
 20
74.4878
 30
0.0000
 11
38.8194
 21
74.4878
 31
0.0000
  0
LINE
  8
20
 10
39.4227
 20
75.1933
 30
0.0000
 11
39.8461
 21
73.5000
 31
0.0000
  0
LINE
  8
20
 10
39.8461
 20
73.5000
 30
0.0000
 11
40.2694
 21
74.6289
 31
0.0000
  0
LINE
  8
20
 10
40.2694
 20
74.6289
 30
0.0000
 11
40.6927
 21
73.5000
 31
0.0000
  0
LINE
  8
20
 10
40.6927
 20
73.5000
 30
0.0000
 11
41.1161
 21
75.1933
 31
0.0000
  0
LINE
  8
20
 10
41.8005
 20
73.5000
 30
0.0000
 11
41.8005
 21
75.1933
 31
0.0000
  0
LINE
  8
20
 10
41.7300
 20
75.8989
 30
0.0000
 11
41.7300
 21
76.0400
 31
0.0000
  0
LINE
  8
20
 10
41.7300
 20
76.0400
 30
0.0000
 11
41.8711
 21
76.0400
 31
0.0000
  0
LINE
  8
20
 10
41.8711
 20
76.0400
 30
0.0000
 11
41.8711
 21
75.8989
 31
0.0000
  0
LINE
  8
20
 10
41.8711
 20
75.8989
 30
0.0000
 11
41.7300
 21
75.8989
 31
0.0000
  0
LINE
  8
20
 10
42.6267
 20
73.5000
 30
0.0000
 11
42.6267
 21
75.1933
 31
0.0000
  0
LINE
  8
20
 10
42.6267
 20
75.1933
 30
0.0000
 11
43.4733
 21
75.1933
 31
0.0000
  0
LINE
  8
20
 10
43.4733
 20
75.1933
 30
0.0000
 11
43.4733
 21
74.9111
 31
0.0000
  0
LINE
  8
20
 10
45.1488
 20
73.5000
 30
0.0000
 11
44.4432
 21
73.5000
 31
0.0000
  0
ARC
  8
20
 10
44.4432
 20
73.9233
 30
0.0000
 40
0.4233
 50
180.0000
 51
270.0000
  0
LINE
  8
20
 10
44.0199
 20
73.9233
 30
0.0000
 11
44.0199
 21
74.6289
 31
0.0000
  0
ARC
  8
20
 10
44.5843
 20
74.6289
 30
0.0000
 40
0.5644
 50
0.0000
 51
180.0000
  0
LINE
  8
20
 10
45.1488
 20
74.6289
 30
0.0000
 11
45.1488
 21
74.3467
 31
0.0000
  0
LINE
  8
20
 10
45.1488
 20
74.3467
 30
0.0000
 11
44.0199
 21
74.3467
 31
0.0000
  0
LINE
  8
20
 10
46.8074
 20
75.1933
 30
0.0000
 11
47.6540
 21
75.1933
 31
0.0000
  0
LINE
  8
20
 10
47.0896
 20
76.0400
 30
0.0000
 11
47.0896
 21
73.9233
 31
0.0000
  0
ARC
  8
20
 10
47.5129
 20
73.9233
 30
0.0000
 40
0.4233
 50
180.0000
 51
270.0000
  0
LINE
  8
20
 10
47.5129
 20
73.5000
 30
0.0000
 11
47.6540
 21
73.5000
 31
0.0000
  0
LINE
  8
20
 10
49.3941
 20
73.5000
 30
0.0000
 11
48.6886
 21
73.5000
 31
0.0000
  0
ARC
  8
20
 10
48.6886
 20
73.9233
 30
0.0000
 40
0.4233
 50
180.0000
 51
270.0000
  0
LINE
  8
20
 10
48.2653
 20
73.9233
 30
0.0000
 11
48.2653
 21
74.6289
 31
0.0000
  0
ARC
  8
20
 10
48.8297
 20
74.6289
 30
0.0000
 40
0.5644
 50
0.0000
 51
180.0000
  0
LINE
  8
20
 10
49.3941
 20
74.6289
 30
0.0000
 11
49.3941
 21
74.3467
 31
0.0000
  0
LINE
  8
20
 10
49.3941
 20
74.3467
 30
0.0000
 11
48.2653
 21
74.3467
 31
0.0000
  0
LINE
  8
20
 10
50.1405
 20
73.5000
 30
0.0000
 11
50.1405
 21
75.1933
 31
0.0000
  0
LINE
  8
20
 10
50.1405
 20
75.1933
 30
0.0000
 11
51.4105
 21
75.1933
 31
0.0000
  0
ARC
  8
20
 10
51.4105
 20
74.7700
 30
0.0000
 40
0.4233
 50
0.0000
 51
90.0000
  0
LINE
  8
20
 10
51.8338
 20
74.7700
 30
0.0000
 11
51.8338
 21
73.5000
 31
0.0000
  0
LINE
  8
20
 10
50.9872
 20
73.5000
 30
0.0000
 11
50.9872
 21
75.1933
 31
0.0000
  0
LINE
  8
20
 10
52.6488
 20
72.6533
 30
0.0000
 11
52.6488
 21
75.1933
 31
0.0000
  0
LINE
  8
20
 10
52.6488
 20
75.1933
 30
0.0000
 11
53.3543
 21
75.1933
 31
0.0000
  0
ARC
  8
20
 10
53.3543
 20
74.7700
 30
0.0000
 40
0.4233
 50
0.0004
 51
90.0000
  0
LINE
  8
20
 10
53.7776
 20
74.7700
 30
0.0000
 11
53.7776
 21
73.9233
 31
0.0000
  0
ARC
  8
20
 10
53.3543
 20
73.9233
 30
0.0000
 40
0.4233
 50
270.0000
 51
0.0000
  0
LINE
  8
20
 10
53.3543
 20
73.5000
 30
0.0000
 11
52.6488
 21
73.5000
 31
0.0000
  0
ARC
  8
20
 10
56.0540
 20
75.6245
 30
0.0000
 40
0.4155
 50
90.0000
 51
211.8908
  0
LINE
  8
20
 10
55.7013
 20
75.4050
 30
0.0000
 11
56.9007
 21
73.5000
 31
0.0000
  0
ARC
  8
20
 10
56.0540
 20
75.6245
 30
0.0000
 40
0.4155
 50
328.1092
 51
90.0000
  0
ARC
  8
20
 10
55.9129
 20
73.9233
 30
0.0000
 40
0.4233
 50
180.0000
 51
270.0000
  0
ARC
  8
20
 10
55.8424
 20
73.9233
 30
0.0000
 40
0.3528
 50
143.1316
 51
180.0000
  0
LINE
  8
20
 10
55.5602
 20
74.1350
 30
0.0000
 11
56.4068
 21
75.4050
 31
0.0000
  0
ARC
  8
20
 10
55.9129
 20
73.8528
 30
0.0000
 40
0.3528
 50
270.0000
 51
306.8684
  0
LINE
  8
20
 10
56.1246
 20
73.5706
 30
0.0000
 11
57.1829
 21
74.3467
 31
0.0000
  0
LINE
  8
20
 10
59.9042
 20
74.4878
 30
0.0000
 11
59.2692
 21
74.4878
 31
0.0000
  0
ARC
  8
20
 10
59.2692
 20
73.9939
 30
0.0000
 40
0.4939
 50
90.0000
 51
270.0000
  0
LINE
  8
20
 10
59.2692
 20
73.5000
 30
0.0000
 11
59.9042
 21
73.5000
 31
0.0000
  0
LINE
  8
20
 10
59.9042
 20
73.5000
 30
0.0000
 11
59.9042
 21
74.7700
 31
0.0000
  0
ARC
  8
20
 10
59.4808
 20
74.7700
 30
0.0000
 40
0.4233
 50
0.0000
 51
90.0000
  0
LINE
  8
20
 10
59.4808
 20
75.1933
 30
0.0000
 11
58.9164
 21
75.1933
 31
0.0000
  0
LINE
  8
20
 10
60.7229
 20
75.1933
 30
0.0000
 11
60.7229
 21
73.9233
 31
0.0000
  0
ARC
  8
20
 10
61.1463
 20
73.9233
 30
0.0000
 40
0.4233
 50
180.0000
 51
270.0000
  0
LINE
  8
20
 10
61.1463
 20
73.5000
 30
0.0000
 11
61.8518
 21
73.5000
 31
0.0000
  0
LINE
  8
20
 10
61.8518
 20
73.5000
 30
0.0000
 11
61.8518
 21
75.1933
 31
0.0000
  0
LINE
  8
20
 10
62.5324
 20
73.5000
 30
0.0000
 11
63.6613
 21
75.1933
 31
0.0000
  0
LINE
  8
20
 10
62.5324
 20
75.1933
 30
0.0000
 11
63.6613
 21
73.5000
 31
0.0000
  0
LINE
  8
20
 10
65.6719
 20
76.0400
 30
0.0000
 11
65.6719
 21
73.5000
 31
0.0000
  0
LINE
  8
20
 10
65.3897
 20
73.5000
 30
0.0000
 11
65.9541
 21
73.5000
 31
0.0000
  0
LINE
  8
20
 10
65.3897
 20
76.0400
 30
0.0000
 11
65.9541
 21
76.0400
 31
0.0000
  0
LINE
  8
20
 10
66.5690
 20
73.2178
 30
0.0000
 11
67.6979
 21
76.3222
 31
0.0000
  0
LINE
  8
20
 10
68.3070
 20
74.2056
 30
0.0000
 11
68.3070
 21
75.3344
 31
0.0000
  0
ARC
  8
20
 10
69.0125
 20
75.3344
 30
0.0000
 40
0.7056
 50
0.0000
 51
180.0000
  0
LINE
  8
20
 10
69.7181
 20
75.3344
 30
0.0000
 11
69.7181
 21
74.2056
 31
0.0000
  0
ARC
  8
20
 10
69.0125
 20
74.2056
 30
0.0000
 40
0.7056
 50
180.0000
 51
0.0000
  0
CIRCLE
  8
20
 10
6.0000
 20
26.2000
 30
0.0000
 40
1.8500
  0
CIRCLE
  8
20
 10
102.5000
 20
26.2000
 30
0.0000
 40
1.8500
  0
CIRCLE
  8
20
 10
6.0000
 20
4.7000
 30
0.0000
 40
1.8500
  0
CIRCLE
  8
20
 10
102.5000
 20
4.7000
 30
0.0000
 40
1.8500
  0
CIRCLE
  8
20
 10
6.0000
 20
80.6000
 30
0.0000
 40
1.8500
  0
CIRCLE
  8
20
 10
102.5000
 20
80.6000
 30
0.0000
 40
1.8500
  0
CIRCLE
  8
20
 10
6.0000
 20
59.1000
 30
0.0000
 40
1.8500
  0
CIRCLE
  8
20
 10
102.5000
 20
59.2000
 30
0.0000
 40
1.8500
  0
CIRCLE
  8
20
 10
43.2500
 20
11.7000
 30
0.0000
 40
3.0000
  0
CIRCLE
  8
20
 10
56.2500
 20
11.7000
 30
0.0000
 40
3.0000
  0
CIRCLE
  8
20
 10
69.2500
 20
11.7000
 30
0.0000
 40
3.0000
  0
CIRCLE
  8
20
 10
82.2500
 20
11.7000
 30
0.0000
 40
3.0000
  0
CIRCLE
  8
20
 10
95.2500
 20
11.7000
 30
0.0000
 40
3.0000
  0
CIRCLE
  8
20
 10
30.2500
 20
11.7000
 30
0.0000
 40
3.0000
  0
CIRCLE
  8
20
 10
91.2500
 20
70.4000
 30
0.0000
 40
3.2500
  0
ENDSEC
  0
EOF
